<svg width="602" height="591" viewBox="0 0 602 591" fill="none" xmlns="http://www.w3.org/2000/svg">
<g clip-path="url(#clip0)">
<path d="M546.023 461.656C424.612 616.945 140.307 619.447 61.6019 533.182C30.1883 498.759 21.8933 439.64 9.70177 352.8C3.83281 310.998 2.99125 277.301 2.49377 254.18C0.775599 175.539 -0.0791029 136.218 12.5793 109.464C48.8428 32.8846 174.813 3.07956 256.235 1.69889C261.919 1.601 267.651 1.63899 273.432 1.81285C368.765 4.66186 476.354 44.3398 542.705 129.142C549.639 137.99 556.043 147.241 561.881 156.847C622.445 256.442 612.254 376.942 546.023 461.656Z" fill="#FB525E"/>
<path d="M253.378 467.795C274.831 452.645 278.668 412.96 273.415 386.328C267.278 355.235 251.221 354.411 248.333 329.857C242.955 284.141 296.426 268.248 294.66 221.715C293.215 183.674 256.932 179.856 257.25 137.662C257.469 107.213 276.481 94.5613 267.947 67.991C267.217 65.7206 258.997 41.3375 238.173 35.6373C217.153 29.8866 195.589 46.5314 184.918 59.9415C165.194 84.7279 179.796 102.146 167.21 140.104C150.072 191.78 112.88 190.071 108.126 230.742C104.201 264.318 128.657 273.22 123.566 310.363C118.836 344.851 96.0311 349.708 95.0756 373.216C92.8753 427.295 209.617 498.695 253.378 467.795Z" fill="url(#paint0_linear)"/>
<g style="mix-blend-mode:soft-light" opacity="0.7">
<g style="mix-blend-mode:soft-light" opacity="0.7">
<path d="M222.443 493.199C222.312 493.199 222.183 493.164 222.07 493.098C201.932 481.264 185.154 465.747 172.197 446.959C159.907 429.14 147.202 410.716 148.226 387.671C149.006 370.139 157.163 360.772 167.492 348.914C177.338 337.608 189.594 323.538 198.173 297.478C203.067 282.604 209.16 264.092 204.463 241.929C201.737 229.067 196.705 221.787 192.263 215.366C187.597 208.631 183.587 202.832 184.356 192.867C185.585 176.904 194.11 166.709 203.983 154.905C209.971 147.746 216.16 140.345 221.588 130.73C236.848 103.704 237.253 67.318 222.791 22.5864C222.734 22.4011 222.753 22.2011 222.842 22.0293C222.932 21.8575 223.085 21.7277 223.269 21.6679C223.454 21.6081 223.654 21.6231 223.827 21.7096C224.001 21.7962 224.133 21.9473 224.196 22.1305C238.789 67.2764 238.345 104.053 222.881 131.454C217.387 141.184 211.152 148.64 205.129 155.85C195.421 167.465 187.036 177.487 185.844 192.979C185.116 202.422 188.809 207.763 193.486 214.526C198.005 221.061 203.129 228.471 205.916 241.623C210.694 264.174 204.536 282.896 199.585 297.945C190.917 324.288 178.546 338.489 168.62 349.885C158.482 361.526 150.472 370.72 149.716 387.737C148.712 410.286 161.277 428.5 173.424 446.118C186.26 464.728 202.883 480.104 222.833 491.825C222.972 491.907 223.08 492.033 223.141 492.183C223.202 492.333 223.212 492.499 223.169 492.655C223.127 492.811 223.034 492.948 222.905 493.047C222.777 493.145 222.62 493.198 222.458 493.199H222.443Z" fill="white"/>
</g>
</g>
<g style="mix-blend-mode:soft-light" opacity="0.7">
<g style="mix-blend-mode:soft-light" opacity="0.7">
<path d="M206.678 253.205C206.529 253.205 206.383 253.16 206.259 253.075C206.136 252.99 206.042 252.87 205.988 252.73C205.935 252.591 205.925 252.438 205.96 252.293C205.995 252.148 206.074 252.016 206.185 251.916C240.31 221.426 256.343 193.137 263.786 174.774C271.844 154.888 271.842 142.043 271.839 141.916C271.838 141.721 271.915 141.533 272.052 141.394C272.189 141.254 272.376 141.175 272.571 141.173C272.766 141.173 272.953 141.25 273.091 141.387C273.23 141.524 273.308 141.711 273.31 141.905C273.31 142.436 273.33 155.103 265.186 175.234C257.691 193.764 241.541 222.3 207.165 253.017C207.031 253.137 206.858 253.204 206.678 253.205Z" fill="white"/>
</g>
</g>
<g style="mix-blend-mode:soft-light" opacity="0.7">
<g style="mix-blend-mode:soft-light" opacity="0.7">
<path d="M190.263 319.131C190.093 319.131 189.928 319.073 189.797 318.965C170.748 303.405 156.266 285.75 146.75 266.497C139.165 251.212 134.651 234.587 133.465 217.564C131.431 188.519 139.737 167.516 139.821 167.308C139.896 167.129 140.039 166.988 140.218 166.914C140.396 166.84 140.597 166.839 140.777 166.911C140.956 166.983 141.1 167.123 141.177 167.301C141.255 167.478 141.259 167.679 141.19 167.86C141.107 168.066 132.915 188.809 134.942 217.531C136.809 244.018 148.004 282.918 190.726 317.823C190.846 317.919 190.932 318.05 190.974 318.197C191.016 318.345 191.011 318.502 190.96 318.646C190.909 318.791 190.814 318.916 190.688 319.004C190.562 319.092 190.412 319.139 190.259 319.138L190.263 319.131Z" fill="white"/>
</g>
</g>
<g style="mix-blend-mode:soft-light" opacity="0.7">
<g style="mix-blend-mode:soft-light" opacity="0.7">
<path d="M159.09 428.055C158.912 428.055 158.741 427.99 158.608 427.874C158.474 427.758 158.386 427.597 158.361 427.422C158.336 427.246 158.374 427.068 158.47 426.918C158.566 426.769 158.712 426.659 158.881 426.609C209.197 411.846 235.436 385.024 248.588 365.123C262.815 343.591 265.198 325.357 265.22 325.175C265.253 324.989 265.356 324.823 265.508 324.711C265.66 324.598 265.849 324.549 266.037 324.572C266.224 324.595 266.396 324.689 266.516 324.834C266.636 324.98 266.696 325.166 266.683 325.355C266.659 325.539 264.233 344.117 249.809 365.936C236.521 386.043 210.032 413.137 159.287 428.024C159.223 428.044 159.156 428.054 159.09 428.055Z" fill="white"/>
</g>
</g>
<g style="mix-blend-mode:soft-light" opacity="0.7">
<g style="mix-blend-mode:soft-light" opacity="0.7">
<path d="M223.911 126.709C223.809 126.709 223.708 126.689 223.615 126.648C223.521 126.607 223.437 126.547 223.368 126.472C194.589 95.2647 191.084 62.6984 193.212 40.8837C195.518 17.2479 204.764 0.752144 204.858 0.587778C204.962 0.434588 205.12 0.326118 205.301 0.283872C205.481 0.241626 205.67 0.268688 205.832 0.359695C205.993 0.450701 206.114 0.599006 206.172 0.775207C206.229 0.951408 206.217 1.14264 206.14 1.31099C206.048 1.47316 196.936 17.7476 194.676 41.0788C192.592 62.5844 196.066 94.6796 224.455 125.453C224.552 125.559 224.616 125.69 224.64 125.831C224.663 125.973 224.645 126.118 224.588 126.249C224.53 126.38 224.436 126.492 224.316 126.57C224.197 126.649 224.057 126.691 223.914 126.691L223.911 126.709Z" fill="white"/>
</g>
</g>
<path d="M197.847 575.393C203.295 576.166 215.828 573.044 218.761 570.883C238.266 556.502 276.55 531.948 281.906 506.89C282.82 502.609 265.081 493.504 263.51 488.919C253.609 480.372 249.644 478.016 244.224 465.263C228.226 427.613 300.168 385.079 240.718 346.727C197.17 318.636 152.372 323.935 177.937 251.353C203.501 178.771 182.055 27.7039 89.659 57.7477C36.6236 74.9908 64.7806 150.492 28.8875 190.538C-5.21955 228.592 3.4524 270.069 43.001 309.48C82.5497 348.89 51.8987 362.329 26.7047 400.486C-3.55835 446.32 71.4451 476.629 107.251 487.67C136.096 496.559 203.534 538.656 197.847 575.393Z" fill="url(#paint1_linear)"/>
<g style="mix-blend-mode:soft-light" opacity="0.7">
<g style="mix-blend-mode:soft-light" opacity="0.7">
<path d="M249.09 540.83L249.864 539.953C114.7 420.714 64.9278 234.202 116.723 41.0348L115.592 40.7302C91.0466 132.278 89.3526 225.901 110.7 311.48C133.14 401.45 180.996 480.758 249.09 540.83Z" fill="#FCFDFE"/>
</g>
<g style="mix-blend-mode:soft-light" opacity="0.7">
<path d="M11.9396 418.092C61.1836 415.745 136.818 436.197 180.54 463.677L181.162 462.686C137.267 435.094 61.3304 414.564 11.8848 416.92L11.9396 418.092Z" fill="#FCFDFE"/>
</g>
<g style="mix-blend-mode:soft-light" opacity="0.7">
<path d="M222.824 517.117L223.81 516.488C209.39 493.848 206.97 464.783 216.618 430.109C223.692 404.687 236.968 376.889 256.083 347.487L255.101 346.85C235.925 376.343 222.596 404.248 215.491 429.789C205.752 464.805 208.217 494.189 222.824 517.117Z" fill="#FCFDFE"/>
</g>
<g style="mix-blend-mode:soft-light" opacity="0.7">
<path d="M108.14 299.216L109.159 298.64C84.1751 254.564 36.2043 231.373 0.363797 219.679L0 220.792C35.6433 232.42 83.3401 255.464 108.14 299.216Z" fill="#FCFDFE"/>
</g>
<g style="mix-blend-mode:soft-light" opacity="0.7">
<path d="M95.6641 183.906L96.8124 184.125C107.989 128.151 152.916 88.5126 178.702 69.8669L178.016 68.918C152.094 87.6754 106.918 127.544 95.6641 183.906Z" fill="#FCFDFE"/>
</g>
</g>
<path d="M597.669 540.107L17.9219 535.066V550.006C17.9219 554.06 20.4509 557.51 23.8741 558.115L187.802 587.534C189.742 587.883 191.719 587.976 193.684 587.81L591.362 554.268C594.912 553.968 597.662 550.51 597.662 546.344L597.669 540.107Z" fill="url(#paint2_linear)"/>
<path d="M411.04 515.886L24.3025 543.221C17.3816 543.71 11.7559 538.514 11.7559 531.606V255.14C11.7651 251.821 13.0917 248.64 15.4443 246.298C17.7968 243.956 20.9828 242.643 24.3025 242.648H411.04C416.738 242.648 421.34 247.707 421.34 253.944V503.865C421.351 510.105 416.742 515.487 411.04 515.886Z" fill="url(#paint3_linear)"/>
<path d="M417.207 515.886L30.4626 543.221C23.5417 543.71 17.916 538.514 17.916 531.606V255.14C17.9253 251.821 19.2519 248.64 21.6044 246.298C23.9569 243.956 27.1429 242.643 30.4626 242.648H417.207C422.905 242.648 427.507 247.707 427.507 253.944V503.865C427.518 510.105 422.909 515.487 417.207 515.886Z" fill="url(#paint4_linear)"/>
<path d="M405.159 498.27L44.9524 522.009C39.3201 522.379 34.7441 518.115 34.7441 512.482V270.433C34.7482 267.723 35.8238 265.126 37.7364 263.207C39.6489 261.287 42.243 260.203 44.9524 260.19L405.159 258.699C409.862 258.68 413.667 262.824 413.667 267.954V488.424C413.667 493.55 409.862 497.959 405.159 498.27Z" fill="url(#paint5_linear)"/>
<path d="M237.496 250.207C237.496 252.775 235.506 254.864 233.047 254.873C230.589 254.881 228.59 252.799 228.59 250.224C228.59 247.649 230.586 245.561 233.047 245.559C235.509 245.556 237.496 247.641 237.496 250.207Z" fill="white"/>
<g style="mix-blend-mode:soft-light" opacity="0.48">
<path d="M324.028 440.058C294.223 424.016 270.774 444.343 248.148 424.279C234.431 412.121 241.166 403.054 224.289 384.884C205.595 364.759 193.425 371.516 174.64 353.411C150.885 330.51 162.766 312.692 142.305 296.249C117.484 276.306 90.7143 294.763 67.085 275.633C56.8944 267.382 51.3059 255.388 48.3824 242.631H25.2616C23.3154 242.63 21.4487 243.403 20.0719 244.778C18.6952 246.154 17.9211 248.02 17.9199 249.966V536.565C17.9199 540.615 21.2072 543.666 25.2616 543.379L419.411 515.402C421.346 515.263 423.06 514.135 424.16 512.498C395.306 511.446 377.581 501.775 366.251 491.774C344.088 472.213 347.932 452.925 324.028 440.058Z" fill="white"/>
</g>
<path d="M407.557 514.65L17.9219 543.418L187.815 573.905C189.755 574.254 191.733 574.346 193.697 574.181L597.673 540.107L413.763 514.845C411.707 514.562 409.627 514.496 407.557 514.65Z" fill="url(#paint6_linear)"/>
<path style="mix-blend-mode:multiply" opacity="0.3" d="M74.7754 544.141L399.159 519.835L499.552 533.512L177.964 559.495L74.7754 544.141Z" fill="url(#paint7_linear)"/>
<path d="M397.666 107.838V481.891C397.666 491.476 390.079 499.423 380.269 500.054L377.113 500.249L59.0215 519.831C67.2025 518.516 73.1 511.628 73.1 503.539V102.367L290.549 106.03L397.666 107.838Z" fill="white"/>
<path d="M363.828 230.88L114.732 233.093V189.543L363.828 189.475V230.88Z" fill="#D8DEE8"/>
<path d="M295.372 267.185L130.451 269.856V245.254L295.372 243.387V267.185Z" fill="#D8DEE8"/>
<path d="M349.532 266.306L309.006 266.964V243.231L349.532 242.773V266.306Z" fill="#D8DEE8"/>
<path d="M232.213 301.529L130.451 303.865V279.263L232.213 277.424V301.529Z" fill="#D8DEE8"/>
<path d="M349.532 298.837L309.006 299.767V276.037L349.532 275.305V298.837Z" fill="#D8DEE8"/>
<path d="M259.299 334.047L130.451 337.873V313.273L259.299 310.073V334.047Z" fill="#D8DEE8"/>
<path d="M349.532 331.366L309.006 332.572V308.839L349.532 307.833V331.366Z" fill="#D8DEE8"/>
<path d="M186.732 369.832L130.451 371.884V347.281L186.732 345.504V369.832Z" fill="#D8DEE8"/>
<path d="M349.532 363.898L309.006 365.375V341.645L349.532 340.365V363.898Z" fill="#D8DEE8"/>
<path d="M114.732 221.48V418.5L239.651 412.802L363.819 407.144V219.837L114.732 221.48ZM356.898 400.558L237.054 405.846L122.383 410.911V228.673L356.896 226.793L356.898 400.558Z" fill="#D8DEE8"/>
<path d="M232.723 428.412L118.708 433.959C116.516 434.067 114.732 435.839 114.732 437.921V465.951C114.732 468.033 116.512 469.622 118.708 469.499L232.723 463.144C234.818 463.028 236.514 461.286 236.514 459.254V431.906C236.514 429.874 234.818 428.312 232.723 428.412Z" fill="#D8DEE8"/>
<path d="M360.229 422.208L252.091 427.468C250.012 427.569 248.324 429.293 248.324 431.321V458.61C248.324 460.637 250.012 462.184 252.091 462.07L360.229 456.057C361.195 455.995 362.102 455.572 362.769 454.871C363.437 454.169 363.814 453.242 363.827 452.274V425.616C363.831 425.151 363.739 424.691 363.557 424.263C363.375 423.835 363.107 423.449 362.769 423.13C362.432 422.81 362.032 422.563 361.595 422.405C361.158 422.246 360.693 422.179 360.229 422.208Z" fill="#D8DEE8"/>
<path d="M363.828 174.465L114.732 173.139V144.268L363.828 145.835V174.465Z" fill="#D8DEE8"/>
<path d="M473.728 207.535L466.974 208.885C466.974 208.885 431.512 254.143 436.577 271.366C441.642 288.59 466.974 275.418 466.974 275.418L473.728 207.535Z" fill="url(#paint8_linear)"/>
<path d="M518.237 529.778C519.376 530.705 519.587 533.017 519.723 534.529C519.784 535.204 519.815 535.542 519.74 535.781C519.19 537.521 515.815 537.705 510.52 538.244C502.155 539.099 499.666 539.756 499.013 538.511C498.399 537.345 499.889 535.443 500.051 535.224C500.95 534.091 502.052 533.69 504.187 532.978C508.132 531.678 510.799 530.968 511.607 530.753C516.646 529.41 517.487 529.169 518.237 529.778Z" fill="url(#paint9_linear)"/>
<path d="M513.261 522.136L512.424 531.667C512.661 532.127 515.492 533.508 517.745 532.325L519.895 522.956L513.261 522.136Z" fill="url(#paint10_linear)"/>
<path d="M449.841 522.184C451.207 523.692 451.518 526.471 450.33 527.839C449.142 529.206 447.406 528.176 442.427 528.323C437.093 528.483 435.701 529.743 432.077 528.741C430.613 528.336 428.027 527.354 428.075 526.309C428.11 525.573 429.425 525.193 433.823 523.721C440.065 521.63 440.039 521.516 441.362 521.297C444.693 520.747 448.038 520.194 449.841 522.184Z" fill="url(#paint11_linear)"/>
<path d="M446.418 513.486L443.742 522.384C443.944 522.861 446.663 524.453 449.002 523.444L452.975 514.808L446.418 513.486Z" fill="url(#paint12_linear)"/>
<path d="M470.191 318.598C469.763 352.069 467.318 385.483 462.872 418.66C458.473 451.481 452.122 484.011 443.854 516.076L454.092 518.831C462.751 510.757 473.674 498.046 478.944 480.087C482.216 468.938 481.136 463.212 483.2 449.499C486.505 427.667 493.196 416.229 500.113 398.625C506.328 382.804 513.676 359.587 517.614 328.552L470.191 318.598Z" fill="url(#paint13_linear)"/>
<path style="mix-blend-mode:multiply" opacity="0.3" d="M467.649 462.193C471.074 452.73 475.245 449.817 477.106 439.903C478.73 431.255 476.501 428.445 476.431 419.637C476.293 402.085 485.008 396.271 487.914 381.811C489.488 373.972 479.192 354.178 469.746 337.077C469.967 330.772 470.113 324.61 470.185 318.592L517.608 328.546C513.663 359.58 506.321 382.797 500.106 398.618C493.189 416.223 486.496 427.661 483.194 449.493C481.118 463.205 482.21 468.934 478.938 480.08C473.667 498.051 462.744 510.762 454.086 518.824L453.119 518.564C461.848 507.187 464.559 497.525 464.953 489.887C465.346 482 463.369 474.027 467.649 462.193Z" fill="url(#paint14_linear)"/>
<path d="M503.059 322.114C505.148 360.149 506.851 398.884 508.167 438.318C509.145 467.906 509.868 497.114 510.339 525.945L520.799 527.236C525.588 518.34 529.252 508.883 531.706 499.083C535.432 484.157 534.566 475.292 536.199 459.822C538.031 442.469 540.692 438.689 545.404 416.802C554.97 372.379 559.754 350.168 549.081 336.35C545.621 331.864 534.762 320.619 503.059 322.114Z" fill="url(#paint15_linear)"/>
<path d="M551.34 208.71C538.804 205.183 525.922 203.031 512.92 202.293C489.054 200.943 477.117 200.347 470.113 205.833C448.386 222.848 468.975 283.665 461.232 315.629C454.717 342.517 454.478 342.986 454.478 342.986C452.944 345.993 450.443 350.17 451.438 355.145C452.221 359.059 455.184 363.556 459.205 364.939C467.566 367.816 472.354 354.448 486.225 350.415C500.717 346.201 516.933 354.579 537.437 365.156C550.485 371.893 554.941 376.188 559.514 374.056C568.318 369.951 565.901 347.444 564.919 338.255C561.013 301.735 556.619 258.982 551.34 208.71Z" fill="url(#paint16_linear)"/>
<path d="M491.46 270.702C492.091 270.562 493.213 266.363 490.448 265.129C477.956 259.556 468.28 270.591 466.998 273.985L465.705 277.38C465.705 277.38 471.912 277.864 475.76 276.571C479.608 275.278 486.328 271.846 491.46 270.702Z" fill="url(#paint17_linear)"/>
<path d="M457.318 286.503L479.303 287.612C480.145 287.654 481.151 286.613 480.945 285.903L470.675 252.67C470.579 252.395 470.394 252.16 470.15 252.001C469.906 251.843 469.616 251.769 469.325 251.794L448.24 252.256C447.554 252.295 447.178 253.65 447.364 254.318L456.099 285.554C456.183 285.817 456.344 286.048 456.561 286.218C456.779 286.387 457.043 286.487 457.318 286.503Z" fill="url(#paint18_linear)"/>
<path d="M457.715 285.796L479.821 286.832C480.669 286.872 481.252 286.265 481.046 285.554L471.171 251.745C471.075 251.469 470.889 251.233 470.644 251.074C470.398 250.916 470.106 250.843 469.815 250.869L448.701 252.118C448.54 252.128 448.383 252.174 448.242 252.252C448.1 252.331 447.979 252.441 447.886 252.573C447.792 252.705 447.73 252.857 447.704 253.016C447.677 253.176 447.687 253.339 447.733 253.494L456.499 284.855C456.584 285.116 456.745 285.345 456.962 285.513C457.179 285.681 457.442 285.779 457.715 285.796Z" fill="url(#paint19_linear)"/>
<path style="mix-blend-mode:multiply" opacity="0.3" d="M468.876 265.638C468.219 268.706 465.455 268.048 463.2 271.774C460.336 276.499 463.08 280.669 460.457 282.401C459.654 282.929 458.302 283.247 455.865 282.609L456.492 284.853C456.576 285.116 456.739 285.348 456.957 285.517C457.176 285.686 457.441 285.785 457.717 285.8L479.823 286.836C480.671 286.876 481.254 286.269 481.048 285.559L471.173 251.75C471.077 251.474 470.891 251.237 470.645 251.079C470.4 250.92 470.108 250.848 469.817 250.873L466.645 251.062C466.223 252.348 466.017 253.696 466.036 255.05C466.141 260.132 469.648 262.037 468.876 265.638Z" fill="url(#paint20_linear)"/>
<path d="M447.64 263.157C447.517 262.624 447.778 262.079 448.175 262.05C449.783 261.934 453.515 261.888 455.576 263.672C458.251 265.991 461.712 270.22 458.797 272.355L456.077 274.349C456.022 274.393 455.957 274.423 455.887 274.437C455.818 274.45 455.746 274.446 455.679 274.426C454.712 274.126 450.638 272.848 450.2 272.532C449.792 272.241 448.24 265.728 447.64 263.157Z" fill="url(#paint21_linear)"/>
<path style="mix-blend-mode:multiply" opacity="0.3" d="M465.961 352.096C468.319 348.009 468.221 341.836 473.391 338.925C476.406 337.227 478.756 338.02 482.847 337.913C495.043 337.588 497.377 329.916 505.812 329.469C518.878 328.778 525.153 346.563 532.494 343.992C537.285 342.32 540.371 332.736 537.899 325.416C534.451 315.21 522.639 316.609 507.165 302.789C500.544 296.872 491.048 286.205 493.656 281.511C496.395 276.58 509.393 283.817 518.986 276.444C524.583 272.144 523.869 266.828 528.442 257.194C530.921 251.973 539.996 238.397 553.492 229.245C557.831 270.744 561.556 306.826 564.918 338.25C565.9 347.439 568.32 369.944 559.514 374.051C554.942 376.184 550.487 371.886 537.436 365.151C516.932 354.566 500.717 346.197 486.224 350.411C472.358 354.441 467.566 367.81 459.205 364.934C456.593 364.036 454.443 361.82 453.031 359.311C460.489 357.965 464.184 355.175 465.961 352.096Z" fill="url(#paint22_linear)"/>
<path d="M500.748 184.13C500.733 185.944 505.245 195.035 511.331 199.44C517.467 203.887 525.197 203.646 527.498 204.215C532.834 205.53 533.522 205.502 533.634 206.032C534.208 208.616 519.657 217.428 504.623 215.298C495.418 213.998 487.049 208.75 487.564 205.993C488.079 203.236 497.272 204.706 500.012 199.688C501.918 196.197 499.781 191.239 497.257 187.134C499.705 182.552 498.302 188.71 500.748 184.13Z" fill="url(#paint23_linear)"/>
<path d="M484.599 188.331C481.401 186.654 479.12 182.16 480.02 178.213C480.794 174.816 483.689 173.012 485.42 171.929C490.441 168.798 498.195 167.84 502.843 171.625C505.598 173.867 505.473 181.305 505.508 182.609C505.559 184.084 504.796 184.958 504.347 186.306C503.722 188.173 502.762 191.127 501.23 196.032C500.349 194.938 499.373 193.924 498.316 192.999C497.842 192.587 495.966 190.987 493.786 189.959C489.418 187.893 487.619 189.92 484.599 188.331Z" fill="url(#paint24_linear)"/>
<path d="M504.363 191.033C504.363 191.033 503.585 198.416 496.419 201.259C490.002 203.803 482.474 190.275 485.047 185.427C485.906 183.81 488.367 182.14 490.815 181.723C492.261 181.476 492.943 181.802 495.297 181.351C497.469 180.937 497.913 180.474 498.729 180.678C499.75 180.948 500.999 182.199 501.714 186.858C502.332 185.092 503.539 183.957 504.782 183.954C505.216 183.978 505.636 184.121 505.994 184.369C507.611 185.552 507.125 188.278 504.363 191.033Z" fill="url(#paint25_linear)"/>
<path d="M498.612 179.703C498.417 180.069 499.865 180.755 500.685 182.306C502.276 185.32 500.904 190.49 497.882 192.309C496.091 193.385 495.033 192.497 491.776 193.639C490.188 194.201 488.7 195.015 487.369 196.049C487.994 199.887 490.505 202.817 493.505 203.31C496.731 203.84 499.35 201.351 500.444 200.31C501.176 199.613 503.527 197.389 503.771 194.149C504.025 190.774 501.781 189.878 502.675 187.257C503.113 185.942 504.086 184.998 504.375 182.712C504.437 182.22 504.46 181.725 504.446 181.23C502.026 180.294 498.894 179.179 498.612 179.703Z" fill="url(#paint26_linear)"/>
<path d="M532.833 219.028C536.477 213.501 543.727 208.07 550.396 208.559C569.87 209.964 593.874 262.423 577.416 283.198C564.851 299.059 526.039 299.828 490.617 272.39V263.271C508.049 266.319 522.498 268.344 533.173 269.688C539.831 270.527 546.462 271.281 547.696 268.675C549.563 264.73 536.23 259.087 531.148 244.349C530.444 242.328 525.987 229.414 532.833 219.028Z" fill="url(#paint27_linear)"/>
<g style="mix-blend-mode:multiply" opacity="0.7">
<g style="mix-blend-mode:multiply" opacity="0.7">
<path d="M397.665 97.5198V178.734L347.687 178.579L338.217 189.482L324.255 205.532C323.62 206.279 322.745 206.782 321.781 206.957L321.702 207.038C317.711 211.546 312.837 209.554 312.837 205.473V178.263L306.361 178.204C302.522 178.168 298.834 176.707 296.013 174.103C294.335 172.58 292.996 170.721 292.082 168.648C291.169 166.574 290.701 164.331 290.709 162.065V95.6746L397.665 97.5198Z" fill="#D8DEE8"/>
</g>
</g>
<path style="mix-blend-mode:multiply" opacity="0.1" d="M73.416 390.902L74.7748 539.221L97.9328 537.946L73.416 390.902Z" fill="url(#paint28_linear)"/>
<path d="M343.058 528.507C343.599 532.287 341.217 535.577 337.752 535.818L104.572 552.474C100.351 552.767 95.0694 549.272 94.4908 545.081L73.4169 390.902C72.8493 386.738 77.239 383.039 81.4796 383.026L315.065 378.204C318.548 378.191 321.829 381.246 322.368 384.998L343.058 528.507Z" fill="url(#paint29_linear)"/>
<path d="M347.668 528.704C348.214 532.506 345.814 535.813 342.328 536.057L106.298 552.493C102.053 552.789 98.0975 549.583 97.532 545.371L76.331 390.345C75.759 386.168 78.7921 382.738 83.0547 382.725L319.494 377.564C323 377.549 326.301 380.632 326.842 384.393L347.668 528.704Z" fill="url(#paint30_linear)"/>
<g opacity="0.7">
<path opacity="0.7" d="M165.774 498.507L125.507 500.212C123.69 500.289 121.911 498.976 121.562 497.295L119.612 488.069C119.255 486.383 120.455 484.952 122.277 484.887L162.651 483.44C164.405 483.377 166.125 484.678 166.467 486.329L168.343 495.373C168.68 497.023 167.528 498.432 165.774 498.507Z" fill="#F4F7FA"/>
<path opacity="0.7" d="M217.529 496.315L179.05 497.944C177.314 498.018 175.616 496.732 175.276 495.095L173.413 486.077C173.073 484.429 174.22 483.03 175.96 482.969L214.531 481.588C216.21 481.529 217.851 482.8 218.178 484.415L219.97 493.26C220.306 494.867 219.203 496.245 217.529 496.315Z" fill="#F4F7FA"/>
<path opacity="0.7" d="M267.024 494.22L230.22 495.778C228.561 495.849 226.932 494.591 226.61 492.984L224.828 484.165C224.504 482.555 225.6 481.187 227.263 481.128L264.164 479.813C264.973 479.809 265.759 480.08 266.393 480.582C267.027 481.084 267.472 481.786 267.653 482.574L269.369 491.229C269.454 491.584 269.457 491.954 269.379 492.311C269.3 492.667 269.143 493.002 268.917 493.289C268.692 493.577 268.405 493.81 268.077 493.971C267.749 494.132 267.39 494.217 267.024 494.22Z" fill="#F4F7FA"/>
<path opacity="0.7" d="M314.409 492.217L279.169 493.71C278.367 493.717 277.586 493.45 276.958 492.952C276.329 492.454 275.891 491.755 275.715 490.973L274.01 482.342C273.699 480.767 274.748 479.43 276.339 479.373L311.669 478.108C313.203 478.053 314.711 479.274 315.011 480.821L316.655 489.292C316.953 490.832 315.943 492.149 314.409 492.217Z" fill="#F4F7FA"/>
</g>
<path d="M141.355 461.698L122.14 462.355C118.633 462.478 115.346 459.71 114.861 456.208L112.232 437.111C111.749 433.604 114.243 430.685 117.763 430.608L136.994 430.196C140.452 430.12 143.665 432.883 144.143 436.333L146.753 455.18C147.233 458.649 144.804 461.579 141.355 461.698Z" fill="url(#paint31_linear)"/>
<path d="M139.753 459.925L123.246 460.484C119.996 460.593 116.983 458.049 116.536 454.81L114.28 438.419C113.842 435.182 116.126 432.491 119.38 432.416L135.9 432.039C139.102 431.967 142.063 434.509 142.505 437.709L144.747 453.927C145.19 457.122 142.952 459.815 139.753 459.925ZM119.492 433.227C116.691 433.293 114.719 435.612 115.109 438.397L117.364 454.783C117.747 457.571 120.342 459.765 123.141 459.671L139.648 459.116C142.405 459.024 144.331 456.705 143.95 453.944L141.705 437.727C141.324 434.97 138.773 432.78 136.007 432.844L119.492 433.227Z" fill="url(#paint32_linear)"/>
<path d="M114.971 440.437L142.38 439.727L114.971 440.437Z" fill="#F4F7FA"/>
<path d="M142.437 440.131L115.028 440.845L114.916 440.03L142.326 439.324L142.437 440.131Z" fill="url(#paint33_linear)"/>
<path d="M115.818 446.6L143.224 445.824L115.818 446.6Z" fill="#F4F7FA"/>
<path d="M143.279 446.225L115.876 447.008L115.762 446.192L143.167 445.419L143.279 446.225Z" fill="url(#paint34_linear)"/>
<path d="M116.668 452.769L144.062 451.926L116.668 452.769Z" fill="#F4F7FA"/>
<path d="M144.122 452.324L116.723 453.17L116.611 452.355L144.01 451.518L144.122 452.324Z" fill="url(#paint35_linear)"/>
<path d="M134.887 456.732L127.232 456.981C126.261 456.989 125.319 456.648 124.579 456.019C123.838 455.391 123.348 454.518 123.197 453.558L121.225 439.278C121.152 438.833 121.176 438.377 121.296 437.942C121.417 437.507 121.63 437.103 121.922 436.759C122.214 436.414 122.577 436.137 122.986 435.947C123.396 435.757 123.842 435.658 124.293 435.658L131.964 435.474C132.93 435.476 133.864 435.822 134.597 436.451C135.331 437.08 135.817 437.949 135.968 438.903L137.94 453.1C138.013 453.545 137.99 454 137.87 454.435C137.751 454.87 137.539 455.273 137.249 455.618C136.959 455.963 136.598 456.242 136.19 456.434C135.782 456.626 135.338 456.728 134.887 456.732Z" fill="#FEC045"/>
<path d="M134.942 457.137L127.287 457.387C126.203 457.398 125.152 457.018 124.325 456.317C123.499 455.617 122.952 454.642 122.785 453.571L120.813 439.289C120.73 438.793 120.756 438.284 120.89 437.799C121.024 437.314 121.261 436.864 121.586 436.479C121.911 436.095 122.316 435.787 122.773 435.575C123.229 435.363 123.726 435.253 124.229 435.252L131.9 435.068C134.065 435.016 136.064 436.732 136.364 438.89L138.336 453.085C138.619 455.25 137.105 457.067 134.942 457.137ZM124.346 436.065C123.946 436.065 123.551 436.152 123.188 436.32C122.826 436.488 122.504 436.733 122.246 437.038C121.987 437.343 121.798 437.701 121.692 438.086C121.586 438.471 121.565 438.875 121.63 439.269L123.603 453.545C123.735 454.395 124.169 455.168 124.825 455.724C125.481 456.28 126.315 456.582 127.175 456.574L134.83 456.326C135.227 456.321 135.619 456.229 135.978 456.058C136.337 455.887 136.655 455.64 136.91 455.335C137.164 455.03 137.35 454.673 137.454 454.289C137.558 453.905 137.578 453.503 137.512 453.111L135.54 438.912C135.408 438.067 134.978 437.296 134.328 436.74C133.677 436.183 132.85 435.877 131.994 435.877L124.346 436.065Z" fill="url(#paint36_linear)"/>
<path style="mix-blend-mode:multiply" opacity="0.15" d="M182.349 508.47C162.597 511.961 149.719 512.833 134.425 508.847C113.224 503.32 97.7492 491.187 89.0137 483.098L97.5234 545.36C98.0998 549.574 102.056 552.778 106.29 552.482L342.319 536.046C345.806 535.803 348.206 532.493 347.66 528.693L344.362 505.708C307.794 485.765 280.741 484.389 262.376 487.137C239.952 490.508 228.479 500.326 182.349 508.47Z" fill="url(#paint37_linear)"/>
<g style="mix-blend-mode:multiply" opacity="0.42">
<path style="mix-blend-mode:multiply" opacity="0.42" d="M181.759 526.879L126.841 530.251C126.317 530.272 125.804 530.1 125.4 529.766C124.996 529.433 124.729 528.962 124.65 528.443L123.449 519.714C123.411 519.469 123.425 519.219 123.49 518.98C123.555 518.74 123.67 518.517 123.827 518.325C123.984 518.133 124.18 517.977 124.402 517.866C124.624 517.755 124.866 517.692 125.114 517.681L180.048 514.571C180.555 514.558 181.05 514.732 181.438 515.06C181.826 515.387 182.081 515.846 182.154 516.348L183.339 524.876C183.38 525.113 183.371 525.356 183.312 525.589C183.253 525.822 183.145 526.041 182.996 526.23C182.847 526.419 182.66 526.574 182.447 526.686C182.234 526.798 181.999 526.863 181.759 526.879Z" fill="url(#paint38_linear)"/>
<path style="mix-blend-mode:multiply" opacity="0.42" d="M283.074 520.909L213.477 525.18C212.971 525.195 212.478 525.023 212.09 524.697C211.703 524.372 211.449 523.915 211.377 523.414L210.185 514.895C210.146 514.66 210.157 514.42 210.217 514.189C210.277 513.959 210.384 513.744 210.533 513.558C210.682 513.372 210.868 513.219 211.079 513.11C211.291 513 211.523 512.937 211.761 512.923L281.393 508.985C282.346 508.932 283.243 509.708 283.385 510.712L284.557 518.978C284.691 519.982 284.023 520.852 283.074 520.909Z" fill="url(#paint39_linear)"/>
</g>
<path style="mix-blend-mode:multiply" opacity="0.26" d="M309.169 418.16C310.602 428.18 303.171 436.585 292.612 436.925C282.093 437.262 272.45 429.473 271.041 419.517C269.632 409.561 276.958 401.187 287.464 400.777C298.003 400.365 307.738 408.145 309.169 418.16Z" fill="url(#paint40_linear)"/>
<g opacity="0.53">
<path opacity="0.53" d="M157.777 447.016C156.681 448.239 154.634 448.331 153.194 447.185C151.754 446.039 151.478 444.117 152.596 442.892C153.714 441.667 155.761 441.621 157.183 442.765C158.605 443.909 158.864 445.798 157.777 447.016Z" fill="#F4F7FA"/>
<path opacity="0.53" d="M169.521 458.513C169.205 458.53 168.893 458.43 168.645 458.233C168.522 458.144 168.418 458.031 168.34 457.901C168.262 457.771 168.212 457.627 168.191 457.477C168.171 457.326 168.181 457.174 168.221 457.028C168.261 456.881 168.331 456.745 168.426 456.627C174.343 449.688 172.846 439.048 165.059 432.559C164.531 432.121 164.43 431.4 164.84 430.955C165.25 430.51 165.995 430.516 166.521 430.955C175.276 438.296 176.957 450.291 170.326 458.13C170.225 458.246 170.102 458.34 169.964 458.406C169.825 458.472 169.675 458.509 169.521 458.513Z" fill="#F4F7FA"/>
<path opacity="0.53" d="M165.71 455.495C165.387 455.512 165.069 455.41 164.815 455.208C164.691 455.119 164.586 455.006 164.508 454.875C164.429 454.744 164.378 454.598 164.357 454.447C164.337 454.296 164.347 454.142 164.388 453.994C164.429 453.847 164.5 453.71 164.596 453.591C169.019 448.48 167.914 440.593 162.111 435.815C161.576 435.377 161.476 434.652 161.892 434.2C162.308 433.749 163.064 433.742 163.595 434.183C170.389 439.817 171.703 449.085 166.523 455.116C166.42 455.232 166.295 455.325 166.156 455.391C166.016 455.456 165.864 455.491 165.71 455.495Z" fill="#F4F7FA"/>
<path opacity="0.53" d="M161.844 452.432C161.516 452.446 161.194 452.341 160.937 452.136C160.811 452.047 160.705 451.933 160.626 451.801C160.546 451.669 160.494 451.522 160.474 451.369C160.453 451.217 160.464 451.061 160.506 450.913C160.548 450.765 160.62 450.627 160.718 450.508C163.591 447.242 162.881 442.164 159.127 439.112C158.585 438.673 158.482 437.941 158.907 437.485C159.333 437.03 160.095 437.016 160.634 437.457C162.964 439.361 164.45 441.912 164.833 444.652C165.034 445.968 164.944 447.312 164.572 448.591C164.199 449.869 163.551 451.05 162.675 452.053C162.57 452.17 162.442 452.264 162.299 452.329C162.156 452.395 162.001 452.429 161.844 452.432Z" fill="#F4F7FA"/>
</g>
<path d="M429.43 38.0983L311.13 30.8465C302.445 30.4082 295.371 37.191 295.371 46.0164V156.529C295.371 165.357 302.445 172.58 311.13 172.661L317.705 172.723V199.94C317.705 204.018 322.54 206.01 326.53 201.498L351.286 173.041L429.43 173.277C436.739 173.345 442.639 166.88 442.639 158.835V53.3471C442.639 45.302 436.739 38.4753 429.43 38.0983Z" fill="url(#paint41_linear)"/>
<path d="M433.18 170.395L314.881 169.779C306.195 169.698 299.121 162.475 299.121 153.647V43.1343C299.121 34.3068 306.195 27.5152 314.881 27.9623L433.18 35.2141C440.489 35.591 446.389 42.4177 446.389 50.4629V155.953C446.389 163.998 440.489 170.465 433.18 170.395Z" fill="url(#paint42_linear)"/>
<path d="M303.625 156.621V40.4345C303.625 35.7359 307.388 32.1067 312.019 32.3499L435.598 39.5031C439.49 39.6982 442.639 43.3361 442.639 47.6294V158.559C442.639 162.852 439.49 166.297 435.598 166.256L312.021 165.219C307.388 165.169 303.625 161.32 303.625 156.621Z" fill="url(#paint43_linear)"/>
<path d="M383.081 114.881C383.081 112.77 382.578 111.099 381.571 109.869C380.565 108.639 378.792 107.452 376.252 106.308C373.71 105.163 371.359 104.008 369.2 102.843C367.159 101.766 365.273 100.418 363.594 98.8348C362.055 97.3768 360.828 95.6228 359.985 93.6781C359.146 91.7393 358.727 89.4104 358.727 86.6914C358.727 82.1418 360.218 78.4498 363.2 75.6154C366.181 72.781 370.139 71.2235 375.071 70.943V62.4727L381.247 62.7335V71.3572C385.97 72.2645 389.673 74.4159 392.356 77.8113C395.038 81.2067 396.378 85.4291 396.375 90.4784L383.34 90.0401C383.34 87.2642 382.823 85.1077 381.79 83.5707C380.757 82.0337 379.283 81.2301 377.366 81.16C375.655 81.0971 374.325 81.6085 373.377 82.6941C372.429 83.7796 371.955 85.2976 371.955 87.2481C371.955 89.2322 372.5 90.8254 373.592 92.0278C374.683 93.2303 376.436 94.3991 378.852 95.5343C381.256 96.6681 383.521 97.8369 385.645 99.0408C387.642 100.146 389.49 101.501 391.146 103.071C392.672 104.536 393.901 106.281 394.764 108.212C395.641 110.154 396.079 112.469 396.079 115.157C396.079 119.709 394.691 123.39 391.915 126.201C389.139 129.012 385.332 130.609 380.493 130.994V139.056L374.315 138.94V130.831C368.648 130.094 364.289 127.99 361.24 124.52C358.191 121.05 356.665 116.521 356.662 110.932L369.871 111.292C369.871 114.351 370.528 116.695 371.843 118.324C373.158 119.953 375.02 120.796 377.429 120.853C379.19 120.896 380.574 120.388 381.582 119.33C382.59 118.272 383.09 116.789 383.081 114.881Z" fill="white"/>
<path d="M419.243 56.7242C419.585 56.7503 419.903 56.9053 420.134 57.1576C420.365 57.41 420.492 57.7408 420.488 58.083V146.102C420.492 146.268 420.463 146.434 420.403 146.589C420.342 146.744 420.251 146.885 420.135 147.004C420.019 147.124 419.881 147.219 419.728 147.284C419.574 147.349 419.41 147.383 419.243 147.384L332.897 145.953C332.543 145.943 332.208 145.795 331.962 145.54C331.716 145.286 331.58 144.946 331.582 144.592V54.1711C331.578 53.9991 331.611 53.8284 331.676 53.6693C331.741 53.5103 331.839 53.3663 331.962 53.2464C332.085 53.1265 332.232 53.033 332.392 52.972C332.553 52.9109 332.725 52.8834 332.897 52.8912L419.243 56.7242ZM419.243 51.7341L332.897 47.7717C329.39 47.6118 326.541 50.3775 326.541 53.9541V144.509C326.541 148.085 329.39 151.024 332.897 151.083L419.243 152.385C422.561 152.436 425.246 149.663 425.246 146.192V58.2912C425.246 54.8198 422.561 51.8853 419.243 51.7319V51.7341Z" fill="white"/>
<path d="M321.465 197.058V164.244L359.817 164.669L329.072 199.999C326.42 203.047 321.465 201.136 321.465 197.058Z" fill="url(#paint44_linear)"/>
</g>
<defs>
<linearGradient id="paint0_linear" x1="241.561" y1="211.252" x2="347.973" y2="-38.5356" gradientUnits="userSpaceOnUse">
<stop stop-color="#FF9085"/>
<stop offset="1" stop-color="#FB6FBB"/>
</linearGradient>
<linearGradient id="paint1_linear" x1="112.712" y1="161.625" x2="144.154" y2="411.947" gradientUnits="userSpaceOnUse">
<stop stop-color="#6165D7"/>
<stop offset="1" stop-color="#AA80F9"/>
</linearGradient>
<linearGradient id="paint2_linear" x1="262.803" y1="562.393" x2="222.077" y2="579.498" gradientUnits="userSpaceOnUse">
<stop stop-color="#40447E"/>
<stop offset="1" stop-color="#3C3B6B"/>
</linearGradient>
<linearGradient id="paint3_linear" x1="389539" y1="525155" x2="316339" y2="567044" gradientUnits="userSpaceOnUse">
<stop stop-color="#40447E"/>
<stop offset="1" stop-color="#3C3B6B"/>
</linearGradient>
<linearGradient id="paint4_linear" x1="33514.3" y1="538938" x2="799032" y2="538938" gradientUnits="userSpaceOnUse">
<stop stop-color="#40447E"/>
<stop offset="1" stop-color="#3C3B6B"/>
</linearGradient>
<linearGradient id="paint5_linear" x1="276.673" y1="293.672" x2="-37.2435" y2="806.857" gradientUnits="userSpaceOnUse">
<stop stop-color="#FFC444"/>
<stop offset="1" stop-color="#F36F56"/>
</linearGradient>
<linearGradient id="paint6_linear" x1="47430" y1="148739" x2="1.58109e+06" y2="148739" gradientUnits="userSpaceOnUse">
<stop stop-color="#40447E"/>
<stop offset="1" stop-color="#3C3B6B"/>
</linearGradient>
<linearGradient id="paint7_linear" x1="145008" y1="98144.2" x2="968331" y2="98144.2" gradientUnits="userSpaceOnUse">
<stop stop-color="#40447E"/>
<stop offset="1" stop-color="#3C3B6B"/>
</linearGradient>
<linearGradient id="paint8_linear" x1="471.876" y1="258.574" x2="453.776" y2="239.045" gradientUnits="userSpaceOnUse">
<stop stop-color="#AA80F9"/>
<stop offset="1" stop-color="#6165D7"/>
</linearGradient>
<linearGradient id="paint9_linear" x1="63479.8" y1="25513.4" x2="65469.1" y2="25573.1" gradientUnits="userSpaceOnUse">
<stop stop-color="#AA80F9"/>
<stop offset="1" stop-color="#6165D7"/>
</linearGradient>
<linearGradient id="paint10_linear" x1="22987.9" y1="26261.4" x2="23605.2" y2="25563.1" gradientUnits="userSpaceOnUse">
<stop stop-color="#FFC444"/>
<stop offset="1" stop-color="#F36F56"/>
</linearGradient>
<linearGradient id="paint11_linear" x1="70592.7" y1="35606.1" x2="72822.9" y2="36233.3" gradientUnits="userSpaceOnUse">
<stop stop-color="#AA80F9"/>
<stop offset="1" stop-color="#6165D7"/>
</linearGradient>
<linearGradient id="paint12_linear" x1="25765.3" y1="26071.8" x2="26394.7" y2="25313.8" gradientUnits="userSpaceOnUse">
<stop stop-color="#FFC444"/>
<stop offset="1" stop-color="#F36F56"/>
</linearGradient>
<linearGradient id="paint13_linear" x1="436.538" y1="485.894" x2="495.598" y2="352.762" gradientUnits="userSpaceOnUse">
<stop stop-color="#AB316D"/>
<stop offset="1" stop-color="#792D3D"/>
</linearGradient>
<linearGradient id="paint14_linear" x1="-86862.9" y1="444064" x2="-156072" y2="393818" gradientUnits="userSpaceOnUse">
<stop stop-color="#AB316D"/>
<stop offset="1" stop-color="#792D3D"/>
</linearGradient>
<linearGradient id="paint15_linear" x1="48014.6" y1="419760" x2="116110" y2="391046" gradientUnits="userSpaceOnUse">
<stop stop-color="#AB316D"/>
<stop offset="1" stop-color="#792D3D"/>
</linearGradient>
<linearGradient id="paint16_linear" x1="-214578" y1="265911" x2="-163237" y2="229212" gradientUnits="userSpaceOnUse">
<stop stop-color="#AA80F9"/>
<stop offset="1" stop-color="#6165D7"/>
</linearGradient>
<linearGradient id="paint17_linear" x1="42325.8" y1="17389.9" x2="39114.3" y2="17389.9" gradientUnits="userSpaceOnUse">
<stop stop-color="#FFC444"/>
<stop offset="1" stop-color="#F36F56"/>
</linearGradient>
<linearGradient id="paint18_linear" x1="468.42" y1="265.008" x2="460.002" y2="274.488" gradientUnits="userSpaceOnUse">
<stop stop-color="#444B8C"/>
<stop offset="1" stop-color="#26264F"/>
</linearGradient>
<linearGradient id="paint19_linear" x1="490.09" y1="274.413" x2="451.737" y2="265.579" gradientUnits="userSpaceOnUse">
<stop stop-color="#311944"/>
<stop offset="1" stop-color="#893976"/>
</linearGradient>
<linearGradient id="paint20_linear" x1="-10518.4" y1="96149.7" x2="-6154.76" y2="96149.7" gradientUnits="userSpaceOnUse">
<stop stop-color="#311944"/>
<stop offset="1" stop-color="#893976"/>
</linearGradient>
<linearGradient id="paint21_linear" x1="17763.9" y1="14810.6" x2="16630.2" y2="16230.6" gradientUnits="userSpaceOnUse">
<stop stop-color="#FFC444"/>
<stop offset="1" stop-color="#F36F56"/>
</linearGradient>
<linearGradient id="paint22_linear" x1="-208828" y1="225971" x2="-163996" y2="188384" gradientUnits="userSpaceOnUse">
<stop stop-color="#AA80F9"/>
<stop offset="1" stop-color="#6165D7"/>
</linearGradient>
<linearGradient id="paint23_linear" x1="77502.1" y1="27452" x2="73537.5" y2="18937.6" gradientUnits="userSpaceOnUse">
<stop stop-color="#FFC444"/>
<stop offset="1" stop-color="#F36F56"/>
</linearGradient>
<linearGradient id="paint24_linear" x1="523.209" y1="211.041" x2="488.795" y2="178.116" gradientUnits="userSpaceOnUse">
<stop stop-color="#311944"/>
<stop offset="1" stop-color="#6B3976"/>
</linearGradient>
<linearGradient id="paint25_linear" x1="58160.1" y1="501.897" x2="60507.5" y2="6208.29" gradientUnits="userSpaceOnUse">
<stop stop-color="#FFC444"/>
<stop offset="1" stop-color="#F36F56"/>
</linearGradient>
<linearGradient id="paint26_linear" x1="51884.5" y1="32552.1" x2="49541.1" y2="28283.3" gradientUnits="userSpaceOnUse">
<stop stop-color="#311944"/>
<stop offset="1" stop-color="#6B3976"/>
</linearGradient>
<linearGradient id="paint27_linear" x1="-167985" y1="115063" x2="-164379" y2="81886.4" gradientUnits="userSpaceOnUse">
<stop stop-color="#AA80F9"/>
<stop offset="1" stop-color="#6165D7"/>
</linearGradient>
<linearGradient id="paint28_linear" x1="8286.55" y1="314990" x2="11029.2" y2="314990" gradientUnits="userSpaceOnUse">
<stop stop-color="#40447E"/>
<stop offset="1" stop-color="#3C3B6B"/>
</linearGradient>
<linearGradient id="paint29_linear" x1="285584" y1="412131" x2="-103924" y2="407555" gradientUnits="userSpaceOnUse">
<stop stop-color="#311944"/>
<stop offset="1" stop-color="#893976"/>
</linearGradient>
<linearGradient id="paint30_linear" x1="95.403" y1="465.318" x2="509.867" y2="426.526" gradientUnits="userSpaceOnUse">
<stop stop-color="#E38DDD"/>
<stop offset="1" stop-color="#9571F6"/>
</linearGradient>
<linearGradient id="paint31_linear" x1="57.3239" y1="412.553" x2="214.358" y2="480.301" gradientUnits="userSpaceOnUse">
<stop stop-color="#F68252"/>
<stop offset="0.04" stop-color="#F99A4D"/>
<stop offset="0.08" stop-color="#FCAD49"/>
<stop offset="0.13" stop-color="#FEBA46"/>
<stop offset="0.2" stop-color="#FFC244"/>
<stop offset="0.32" stop-color="#FFC444"/>
<stop offset="0.45" stop-color="#FDB946"/>
<stop offset="0.69" stop-color="#F99C4C"/>
<stop offset="1" stop-color="#F36F56"/>
</linearGradient>
<linearGradient id="paint32_linear" x1="-1108.51" y1="64305.3" x2="2794.84" y2="63792.8" gradientUnits="userSpaceOnUse">
<stop stop-color="#FF9085"/>
<stop offset="1" stop-color="#FB6FBB"/>
</linearGradient>
<linearGradient id="paint33_linear" x1="-7943.43" y1="4084.68" x2="-4538.36" y2="3637.56" gradientUnits="userSpaceOnUse">
<stop stop-color="#FF9085"/>
<stop offset="1" stop-color="#FB6FBB"/>
</linearGradient>
<linearGradient id="paint34_linear" x1="-7913.54" y1="4284.75" x2="-4508.47" y2="3837.63" gradientUnits="userSpaceOnUse">
<stop stop-color="#FF9085"/>
<stop offset="1" stop-color="#FB6FBB"/>
</linearGradient>
<linearGradient id="paint35_linear" x1="-7883.75" y1="4478.75" x2="-4478.95" y2="4031.67" gradientUnits="userSpaceOnUse">
<stop stop-color="#FF9085"/>
<stop offset="1" stop-color="#FB6FBB"/>
</linearGradient>
<linearGradient id="paint36_linear" x1="1751.47" y1="50459.1" x2="2989.92" y2="50296.5" gradientUnits="userSpaceOnUse">
<stop stop-color="#FF9085"/>
<stop offset="1" stop-color="#FB6FBB"/>
</linearGradient>
<linearGradient id="paint37_linear" x1="103.727" y1="518.071" x2="512.442" y2="479.818" gradientUnits="userSpaceOnUse">
<stop stop-color="#FB6FBB"/>
<stop offset="1" stop-color="#FF9085"/>
</linearGradient>
<linearGradient id="paint38_linear" x1="-13997.5" y1="41608" x2="1972.55" y2="39510.9" gradientUnits="userSpaceOnUse">
<stop stop-color="#FB6FBB"/>
<stop offset="1" stop-color="#FF9085"/>
</linearGradient>
<linearGradient id="paint39_linear" x1="11157.9" y1="41990.3" x2="35880.5" y2="38743.9" gradientUnits="userSpaceOnUse">
<stop stop-color="#FB6FBB"/>
<stop offset="1" stop-color="#FF9085"/>
</linearGradient>
<linearGradient id="paint40_linear" x1="30668.1" y1="73749.3" x2="37015" y2="72130.2" gradientUnits="userSpaceOnUse">
<stop stop-color="#FF9085"/>
<stop offset="1" stop-color="#FB6FBB"/>
</linearGradient>
<linearGradient id="paint41_linear" x1="165633" y1="205670" x2="580522" y2="-247273" gradientUnits="userSpaceOnUse">
<stop stop-color="#AB316D"/>
<stop offset="1" stop-color="#792D3D"/>
</linearGradient>
<linearGradient id="paint42_linear" x1="294.482" y1="200.069" x2="387.002" y2="81.2453" gradientUnits="userSpaceOnUse">
<stop stop-color="#FCB148"/>
<stop offset="0.05" stop-color="#FDBA46"/>
<stop offset="0.14" stop-color="#FFC244"/>
<stop offset="0.32" stop-color="#FFC444"/>
<stop offset="0.48" stop-color="#FDB946"/>
<stop offset="0.78" stop-color="#F99C4D"/>
<stop offset="0.87" stop-color="#F8924F"/>
<stop offset="1" stop-color="#F8924F"/>
</linearGradient>
<linearGradient id="paint43_linear" x1="251099" y1="96877.5" x2="215501" y2="2886.98" gradientUnits="userSpaceOnUse">
<stop stop-color="#FCB148"/>
<stop offset="0.05" stop-color="#FDBA46"/>
<stop offset="0.14" stop-color="#FFC244"/>
<stop offset="0.32" stop-color="#FFC444"/>
<stop offset="0.48" stop-color="#FDB946"/>
<stop offset="0.78" stop-color="#F99C4D"/>
<stop offset="0.87" stop-color="#F8924F"/>
<stop offset="1" stop-color="#F8924F"/>
</linearGradient>
<linearGradient id="paint44_linear" x1="53258.1" y1="36411.5" x2="75136" y2="7485.15" gradientUnits="userSpaceOnUse">
<stop stop-color="#FCB148"/>
<stop offset="0.05" stop-color="#FDBA46"/>
<stop offset="0.14" stop-color="#FFC244"/>
<stop offset="0.32" stop-color="#FFC444"/>
<stop offset="0.48" stop-color="#FDB946"/>
<stop offset="0.78" stop-color="#F99C4D"/>
<stop offset="0.87" stop-color="#F8924F"/>
<stop offset="1" stop-color="#F8924F"/>
</linearGradient>
<clipPath id="clip0">
<rect width="602" height="589.938" fill="white" transform="translate(0 0.215332)"/>
</clipPath>
</defs>
</svg>
