<svg width="58" height="225" viewBox="0 0 58 225" fill="none" xmlns="http://www.w3.org/2000/svg">
<path d="M23.544 190.616L22.1406 192.041L24.6436 194.506L25.4857 191.095L23.544 190.616ZM28.8 181.688L30.0601 183.241L30.0761 183.228L30.0919 183.215L28.8 181.688ZM46.368 181.04L45.2942 182.727L45.3024 182.732L46.368 181.04ZM52.704 188.672L54.5125 187.818L52.704 188.672ZM54 212.216L55.9536 212.644L55.9548 212.639L54 212.216ZM50.616 221.432L49.7805 223.249L51.4539 224.019L52.3583 222.414L50.616 221.432ZM38.088 215.672L36.359 214.667L35.2527 216.57L37.2525 217.489L38.088 215.672ZM40.824 209.048L42.7571 209.561L42.7596 209.551L40.824 209.048ZM40.752 197.384L39.007 198.361L40.752 197.384ZM34.416 208.256L34.416 210.256L36.416 210.256L36.416 208.256L34.416 208.256ZM23.976 208.256L22.5754 209.684L23.1588 210.256L23.976 210.256L23.976 208.256ZM16.416 200.84L17.8166 199.412L14.416 196.076L14.416 200.84L16.416 200.84ZM16.416 218.84L16.416 220.84L18.416 220.84L18.416 218.84L16.416 218.84ZM3.6 218.84L1.6 218.84L1.6 220.84L3.6 220.84L3.6 218.84ZM3.59999 181.256L3.59999 179.256L1.59999 179.256L1.59999 181.256L3.59999 181.256ZM14.04 181.256L15.4434 179.831L14.8595 179.256L14.04 179.256L14.04 181.256ZM25.4857 191.095C26.3651 187.534 27.9237 184.974 30.0601 183.241L27.5399 180.135C24.5883 182.53 22.6429 185.922 21.6023 190.137L25.4857 191.095ZM30.0919 183.215C32.1946 181.436 34.7491 180.52 37.872 180.52L37.872 176.52C33.8909 176.52 30.3974 177.716 27.5081 180.161L30.0919 183.215ZM37.872 180.52C40.5019 180.52 42.9634 181.244 45.2942 182.727L47.4417 179.353C44.4926 177.476 41.2901 176.52 37.872 176.52L37.872 180.52ZM45.3024 182.732C47.5005 184.116 49.386 186.329 50.8955 189.526L54.5125 187.818C52.758 184.103 50.4195 181.227 47.4336 179.348L45.3024 182.732ZM50.8955 189.526C52.3658 192.64 53.152 196.623 53.152 201.56L57.152 201.56C57.152 196.225 56.3062 191.616 54.5125 187.818L50.8955 189.526ZM53.152 201.56C53.152 204.967 52.7838 208.377 52.0452 211.793L55.9548 212.639C56.7522 208.951 57.152 205.257 57.152 201.56L53.152 201.56ZM52.0464 211.788C51.3133 215.132 50.2481 218.011 48.8737 220.45L52.3583 222.414C53.9599 219.573 55.1507 216.308 55.9536 212.644L52.0464 211.788ZM51.4515 219.615L38.9235 213.855L37.2525 217.489L49.7805 223.249L51.4515 219.615ZM39.817 216.677C41.1084 214.456 42.0882 212.082 42.7571 209.561L38.8909 208.535C38.3118 210.718 37.4676 212.76 36.359 214.667L39.817 216.677ZM42.7596 209.551C43.4212 207.007 43.76 204.533 43.76 202.136L39.76 202.136C39.76 204.155 39.4748 206.289 38.8884 208.545L42.7596 209.551ZM43.76 202.136C43.76 199.964 43.3929 198.007 42.497 196.407L39.007 198.361C39.4551 199.161 39.76 200.372 39.76 202.136L43.76 202.136ZM42.497 196.407C41.5153 194.654 39.9297 193.584 37.872 193.584L37.872 197.584C38.3103 197.584 38.6447 197.714 39.007 198.361L42.497 196.407ZM37.872 193.584C36.0071 193.584 34.4827 194.462 33.5487 196.077C32.7109 197.525 32.416 199.441 32.416 201.56L36.416 201.56C36.416 199.695 36.6971 198.623 37.0113 198.079C37.2293 197.702 37.4329 197.584 37.872 197.584L37.872 193.584ZM32.416 201.56L32.416 208.256L36.416 208.256L36.416 201.56L32.416 201.56ZM34.416 206.256L23.976 206.256L23.976 210.256L34.416 210.256L34.416 206.256ZM25.3765 206.828L17.8166 199.412L15.0154 202.268L22.5754 209.684L25.3765 206.828ZM14.416 200.84L14.416 218.84L18.416 218.84L18.416 200.84L14.416 200.84ZM16.416 216.84L3.6 216.84L3.6 220.84L16.416 220.84L16.416 216.84ZM5.6 218.84L5.59999 181.256L1.59999 181.256L1.6 218.84L5.6 218.84ZM3.59999 183.256L14.04 183.256L14.04 179.256L3.59999 179.256L3.59999 183.256ZM12.6366 182.681L22.1406 192.041L24.9474 189.191L15.4434 179.831L12.6366 182.681ZM40.824 82.157L40.824 80.157L38.824 80.157L38.824 82.157L40.824 82.157ZM54 82.157L56 82.157L56 80.157L54 80.157L54 82.157ZM54 122.549L54 124.549L56 124.549L56 122.549L54 122.549ZM43.56 122.549L42.0917 123.907L42.6855 124.549L43.56 124.549L43.56 122.549ZM26.712 104.333L28.1803 102.975L28.175 102.969L28.1697 102.964L26.712 104.333ZM22.896 101.165L23.7904 99.3761L22.896 101.165ZM16.92 101.669L18.4197 102.992L18.4607 102.946L18.4987 102.897L16.92 101.669ZM17.064 109.589L18.7736 108.551L17.064 109.589ZM20.52 112.685L22.3088 113.579L23.215 111.767L21.3911 110.885L20.52 112.685ZM14.112 125.501L13.1708 127.266L14.9826 128.232L15.9008 126.395L14.112 125.501ZM5.61599 117.077L7.36216 116.102L7.35736 116.093L7.35248 116.085L5.61599 117.077ZM4.39199 93.101L6.23472 93.8784L4.39199 93.101ZM9.93599 85.901L11.1046 87.5241L11.1046 87.5241L9.93599 85.901ZM26.064 85.109L25.1837 86.9048L25.1911 86.9085L25.1985 86.912L26.064 85.109ZM34.272 91.949L32.7864 93.2881L32.7928 93.2951L34.272 91.949ZM40.824 99.149L39.3448 100.495L42.824 104.318L42.824 99.149L40.824 99.149ZM40.824 84.157L54 84.157L54 80.157L40.824 80.157L40.824 84.157ZM52 82.157L52 122.549L56 122.549L56 82.157L52 82.157ZM54 120.549L43.56 120.549L43.56 124.549L54 124.549L54 120.549ZM45.0283 121.191L28.1803 102.975L25.2437 105.691L42.0917 123.907L45.0283 121.191ZM28.1697 102.964C26.6324 101.327 25.1663 100.064 23.7904 99.3761L22.0016 102.954C22.7377 103.322 23.8156 104.171 25.2543 105.702L28.1697 102.964ZM23.7904 99.3761C22.5041 98.733 21.1675 98.373 19.8 98.373L19.8 102.373C20.4485 102.373 21.1758 102.541 22.0016 102.954L23.7904 99.3761ZM19.8 98.373C18.033 98.373 16.4486 99.0174 15.3413 100.441L18.4987 102.897C18.7353 102.593 19.071 102.373 19.8 102.373L19.8 98.373ZM15.4203 100.346C14.2581 101.663 13.84 103.416 13.84 105.269L17.84 105.269C17.84 103.954 18.1418 103.307 18.4197 102.992L15.4203 100.346ZM13.84 105.269C13.84 107.18 14.3532 108.978 15.3544 110.627L18.7736 108.551C18.1428 107.512 17.84 106.43 17.84 105.269L13.84 105.269ZM15.3544 110.627C16.3811 112.318 17.8325 113.606 19.6489 114.485L21.3911 110.885C20.2315 110.324 19.3789 109.548 18.7736 108.551L15.3544 110.627ZM18.7311 111.791L12.3231 124.607L15.9008 126.395L22.3088 113.579L18.7311 111.791ZM15.0532 123.736C11.8048 122.004 9.24652 119.476 7.36216 116.102L3.86982 118.052C6.11347 122.07 9.21915 125.158 13.1708 127.266L15.0532 123.736ZM7.35248 116.085C5.44859 112.753 4.44799 108.648 4.44799 103.685L0.447993 103.685C0.447993 109.186 1.5594 114.009 3.8795 118.069L7.35248 116.085ZM4.44799 103.685C4.44799 99.917 5.06067 96.6613 6.23472 93.8784L2.54927 92.3236C1.13132 95.6847 0.447993 99.485 0.447993 103.685L4.44799 103.685ZM6.23472 93.8784C7.40659 91.1006 9.03937 89.011 11.1046 87.5241L8.76738 84.2779C6.03261 86.247 3.9694 88.9574 2.54927 92.3236L6.23472 93.8784ZM11.1046 87.5241C13.1449 86.0551 15.4909 85.309 18.216 85.309L18.216 81.309C14.7011 81.309 11.5271 82.2909 8.76738 84.2779L11.1046 87.5241ZM18.216 85.309C20.7015 85.309 23.0156 85.8421 25.1837 86.9048L26.9443 83.3132C24.2163 81.9759 21.2985 81.309 18.216 81.309L18.216 85.309ZM25.1985 86.912C27.2523 87.8979 29.781 89.9539 32.7864 93.2881L35.7575 90.6099C32.619 87.1281 29.6757 84.6241 26.9295 83.306L25.1985 86.912ZM32.7928 93.2951L39.3448 100.495L42.3032 97.8029L35.7512 90.6029L32.7928 93.2951ZM42.824 99.149L42.824 82.157L38.824 82.157L38.824 99.149L42.824 99.149ZM3.59999 2.20831L3.59999 0.208312L1.59999 0.208312L1.59999 2.20831L3.59999 2.20831ZM54 2.20831L56 2.20831L56 0.20831L54 0.20831L54 2.20831ZM54 19.2003L54 21.2003L56 21.2003L56 19.2003L54 19.2003ZM16.416 19.2003L16.416 17.2003L14.416 17.2003L14.416 19.2003L16.416 19.2003ZM16.416 27.8403L16.416 29.8403L18.416 29.8403L18.416 27.8403L16.416 27.8403ZM3.59999 27.8403L1.59999 27.8403L1.59999 29.8403L3.59999 29.8403L3.59999 27.8403ZM3.59999 4.20831L54 4.20831L54 0.20831L3.59999 0.208312L3.59999 4.20831ZM52 2.20831L52 19.2003L56 19.2003L56 2.20831L52 2.20831ZM54 17.2003L16.416 17.2003L16.416 21.2003L54 21.2003L54 17.2003ZM14.416 19.2003L14.416 27.8403L18.416 27.8403L18.416 19.2003L14.416 19.2003ZM16.416 25.8403L3.59999 25.8403L3.59999 29.8403L16.416 29.8403L16.416 25.8403ZM5.59999 27.8403L5.59999 2.20831L1.59999 2.20831L1.59999 27.8403L5.59999 27.8403Z" fill="#FB525E"/>
</svg>
