<svg width="598" height="598" viewBox="0 0 598 598" fill="none" xmlns="http://www.w3.org/2000/svg">
<g clip-path="url(#clip0)">
<path d="M299 598C464.133 598 598 464.133 598 299C598 133.867 464.133 0 299 0C133.867 0 0 133.867 0 299C0 464.133 133.867 598 299 598Z" fill="#FB525E"/>
<path d="M406.577 503.485C398.513 498.177 418.049 450.462 435.664 418.909C450.13 392.995 467.151 371.085 472.067 373.616C475.83 375.553 471.115 391.099 474.53 392.339C479.101 393.999 488.719 366.512 498.067 367.435C503.826 368.004 508.803 379.291 508.99 389.666C509.327 408.383 494.007 420.779 460.69 453.295C417.987 494.938 410.727 506.207 406.577 503.485Z" fill="url(#paint0_linear)"/>
<g style="mix-blend-mode:soft-light" opacity="0.3">
<path d="M420.325 472.64C424.816 459.179 424.43 450.592 432.599 441.889C439.736 434.294 444.143 436.458 452.56 427.671C462.092 417.718 458.759 412.509 466.743 404.802C477.827 394.1 488.5 400.048 497.896 390.434C500.868 387.394 503.931 382.573 505.427 374.488C507.521 378.728 508.892 384.315 508.988 389.662C509.325 408.379 494.005 420.774 460.688 453.291C417.996 494.957 410.73 506.219 406.579 503.487C405.949 503.077 405.488 502.397 405.18 501.492C413.269 490.474 417.71 480.474 420.325 472.64Z" fill="white"/>
</g>
<path d="M391.148 527.894C408.375 489.397 427.899 461.872 442.55 443.946C475.511 403.601 491.556 402.328 498.596 402.866C507.976 403.583 520.022 408.938 521.876 417.924C525.341 434.726 491.581 456.817 495.275 463.165C497.182 466.449 506.507 461.031 510.271 465.333C515.419 471.215 505.433 489.867 502.748 494.364C481.991 529.123 413.295 528.686 391.148 527.894Z" fill="url(#paint1_linear)"/>
<g style="mix-blend-mode:soft-light" opacity="0.5">
<path d="M424.365 498.467C439.818 488.559 444.434 489.551 452.733 480.384C468.032 463.479 462.429 448.948 476.608 438.116C486.716 430.393 492.595 435.465 506.78 427.3C512.554 423.976 517.287 419.851 521.148 415.612C521.468 416.355 521.713 417.128 521.878 417.919C525.341 434.726 491.581 456.817 495.275 463.165C497.182 466.449 506.507 461.031 510.271 465.333C515.419 471.215 505.433 489.867 502.749 494.364C481.991 529.123 413.295 528.684 391.148 527.894C391.462 527.192 391.779 526.502 392.095 525.807C404.443 512.447 415.842 503.931 424.365 498.467Z" fill="white"/>
</g>
<path d="M273.179 292.779C265.335 294.803 256.484 292.311 250.907 285.835L172.273 194.524C165.114 186.209 166.066 173.835 174.436 166.815C182.866 159.748 199.492 159.377 206.788 167.759L286.944 259.85C294.499 268.532 293.307 281.123 284.319 287.904C282.098 289.569 275.768 292.112 273.179 292.779Z" fill="url(#paint2_linear)"/>
<path style="mix-blend-mode:multiply" opacity="0.3" d="M174.436 166.815C182.866 159.748 199.491 159.377 206.788 167.759L280.063 251.956C272.571 252.443 264.443 255.281 254.337 250.967C237.506 243.783 239.134 226.991 224.489 217.305C217.795 212.876 206.97 209.448 188.512 213.405L172.264 194.539C165.113 186.209 166.066 173.835 174.436 166.815Z" fill="url(#paint3_linear)"/>
<path d="M141.068 154.512C141.445 154.39 141.83 154.293 142.22 154.223L169.334 145.015L192.497 215.762L166.105 224.005C165.489 224.398 164.825 224.712 164.131 224.941C154.806 227.995 142.082 214.695 135.716 195.255C129.349 175.816 131.744 157.566 141.068 154.512Z" fill="url(#paint4_linear)"/>
<path d="M169.335 145.015C166.74 171.947 174.427 195.421 192.497 215.762L416.2 214.559L353.27 15.3119L169.335 145.015Z" fill="url(#paint5_linear)"/>
<path style="mix-blend-mode:multiply" opacity="0.3" d="M342.449 174.083C320.809 173.094 305.698 147.134 283.043 153.511C265.27 158.515 265.563 177.265 247.786 181.054C229.593 184.933 220.441 166.942 198.554 166.708C188.606 166.602 179.425 170.231 171.176 175.777C174.561 190.245 181.668 203.575 192.497 215.764L416.2 214.561L382.149 151.066C366.004 169.237 352.937 174.563 342.449 174.083Z" fill="url(#paint6_linear)"/>
<path d="M426.865 213.968C454.055 205.065 461.044 151.877 442.476 95.1685C423.909 38.4605 386.814 -0.293314 359.624 8.60951C332.434 17.5123 325.445 70.7004 344.013 127.408C362.581 184.117 399.675 222.87 426.865 213.968Z" fill="url(#paint7_linear)"/>
<path d="M425.727 210.475C431.499 208.584 436.38 204.305 440.229 197.749C444.149 191.09 446.836 182.427 448.198 172.002C451.072 150.097 447.808 123.209 438.995 96.2944C430.181 69.3796 416.914 45.7673 401.639 29.8069C394.371 22.2125 387.084 16.8164 379.983 13.7582C373.004 10.7553 366.539 10.1909 360.767 12.0813C354.995 13.9716 350.114 18.2512 346.266 24.8069C342.348 31.4715 339.665 40.1352 338.296 50.5559C337.093 59.7143 336.964 69.745 337.865 80.2847C339.119 94.95 353.035 106.134 358.164 121.795C363.618 138.449 360.112 158.305 368.396 171.401C373.501 179.469 379.034 186.667 384.859 192.747C392.127 200.341 399.414 205.737 406.516 208.796C413.49 211.8 419.947 212.365 425.727 210.475Z" fill="url(#paint8_linear)"/>
<path d="M397.74 111.3C406.258 137.314 395.796 163.609 374.675 169.949C353.881 176.185 330.546 160.668 322.264 135.377C313.982 110.085 323.701 84.0264 344.263 77.0745C365.146 70.0056 389.222 85.2867 397.74 111.3Z" fill="url(#paint9_linear)"/>
<path style="mix-blend-mode:multiply" opacity="0.3" d="M394.292 111.961C400.618 131.278 397.248 149.365 386.903 152.316C376.729 155.222 363.609 142.32 357.459 123.542C351.31 104.763 354.319 86.7891 364.319 83.3511C374.487 79.8556 387.966 92.6429 394.292 111.961Z" fill="url(#paint10_linear)"/>
<path opacity="0.3" d="M409.536 108.168L473.891 89.9726C479.137 88.4886 484.564 90.6684 485.933 94.8618C487.306 99.0551 484.086 103.581 478.796 104.954L413.994 121.801C409.684 122.922 405.24 120.806 404.021 117.08C402.81 113.365 405.252 109.379 409.536 108.168Z" fill="url(#paint11_linear)"/>
<path d="M394.52 71.0175L467.785 45.6688C473.927 43.5445 480.427 46.1819 482.2 51.5986C483.974 57.0131 480.298 63.0045 474.097 64.94L400.12 88.1172C395.327 89.6175 390.267 87.0457 388.742 82.3947C387.219 77.7437 389.775 72.6596 394.52 71.0175Z" fill="url(#paint12_linear)"/>
<path d="M428.482 91.6455L489.21 73.7885C494.148 72.3373 499.283 74.4473 500.618 78.5093C501.952 82.5815 498.949 86.9903 493.978 88.3388L432.831 104.913C428.75 106.019 424.518 103.967 423.332 100.342C422.143 96.7316 424.428 92.838 428.482 91.6455Z" fill="url(#paint13_linear)"/>
<path d="M485.044 50.5498C486.825 55.989 493.096 58.8912 499.157 56.9988C505.337 55.0694 508.941 48.9098 507.096 43.2756C505.251 37.6414 498.709 34.8274 492.595 36.9538C486.595 39.0412 483.262 45.1126 485.044 50.5498Z" fill="url(#paint14_linear)"/>
<path d="M410.619 127.372L488.391 108.39C494.922 106.795 501.769 109.942 503.58 115.442C505.382 120.943 501.404 126.563 494.811 127.963L416.294 144.703C411.218 145.785 405.914 142.827 404.371 138.113C402.827 133.4 405.59 128.599 410.619 127.372Z" fill="url(#paint15_linear)"/>
<g style="mix-blend-mode:soft-light">
<path d="M482.999 120.227C484.352 124.357 489.458 126.834 494.471 125.748C499.559 124.646 502.613 120.303 501.226 116.062C499.838 111.822 494.561 109.381 489.51 110.596C484.532 111.793 481.646 116.097 482.999 120.227Z" fill="#F4F7FA"/>
</g>
<path d="M581.566 529.247L22.373 524.376V538.789C22.373 542.699 24.8115 546.026 28.1201 546.619L186.241 574.995C188.112 575.332 190.019 575.422 191.914 575.262L575.488 542.894C578.912 542.604 581.566 539.269 581.566 535.25V529.247Z" fill="url(#paint16_linear)"/>
<path d="M401.556 505.887L28.5298 532.247C21.855 532.719 16.4199 527.707 16.4199 521.051V254.386C16.4281 251.182 17.7084 248.113 19.9793 245.853C22.2503 243.592 25.3259 242.327 28.5298 242.334H401.556C407.055 242.334 411.501 247.211 411.501 253.229V494.29C411.501 500.306 407.055 505.499 401.556 505.887Z" fill="url(#paint17_linear)"/>
<path d="M407.505 505.887L34.483 532.247C27.8081 532.719 22.373 527.707 22.373 521.051V254.386C22.3812 251.182 23.6615 248.113 25.9325 245.853C28.2034 243.592 31.279 242.327 34.483 242.334H407.505C413.004 242.334 417.45 247.211 417.45 253.229V494.29C417.45 500.306 413.004 505.499 407.505 505.887Z" fill="url(#paint18_linear)"/>
<path d="M395.883 488.892L48.4537 511.79C43.0227 512.147 38.6016 508.034 38.6016 502.601V269.134C38.6059 266.52 39.6444 264.013 41.4903 262.162C43.3363 260.312 45.8396 259.266 48.4537 259.255L395.883 257.818C400.419 257.8 404.093 261.796 404.093 266.744V479.386C404.089 484.339 400.419 488.592 395.883 488.892Z" fill="white"/>
<path d="M234.168 249.628C234.168 252.106 232.249 254.121 229.879 254.128C227.508 254.134 225.568 252.128 225.568 249.645C225.568 247.161 227.496 245.148 229.879 245.146C232.262 245.144 234.168 247.149 234.168 249.628Z" fill="white"/>
<path d="M398.191 504.69L22.373 532.438L186.235 561.845C188.106 562.181 190.013 562.271 191.908 562.112L581.556 529.247L404.166 504.881C402.186 504.608 400.184 504.544 398.191 504.69Z" fill="url(#paint19_linear)"/>
<path style="mix-blend-mode:multiply" opacity="0.3" d="M77.2207 533.136L390.098 509.692L486.93 522.886L176.748 547.947L77.2207 533.136Z" fill="url(#paint20_linear)"/>
<path d="M404.132 302.953L38.5645 307.5V266.203C38.5645 263.979 39.4478 261.846 41.0202 260.274C42.5927 258.701 44.7253 257.818 46.949 257.818H395.747C397.971 257.818 400.104 258.701 401.676 260.274C403.249 261.846 404.132 263.979 404.132 266.203V302.953Z" fill="url(#paint21_linear)"/>
<path d="M267.754 413.595L61.0703 422.133V324.503L267.754 321.036V413.595Z" fill="#D8DEE8"/>
<path d="M385.353 408.734L279.945 413.09V320.833L385.353 319.063V408.734Z" fill="#D8DEE8"/>
<path d="M385.351 475.296L61.0703 494.602V434.884L385.351 420.444V475.296Z" fill="#D8DEE8"/>
<path d="M64.7758 280.897C64.7758 283.495 62.518 285.618 59.7163 285.64C56.9146 285.663 54.6445 283.563 54.6445 280.956C54.6445 278.35 56.9167 276.235 59.7163 276.213C62.516 276.19 64.7758 278.296 64.7758 280.897Z" fill="url(#paint22_linear)"/>
<path d="M83.0741 280.786C83.0741 283.327 80.8307 285.402 78.0618 285.421C75.2929 285.439 73.0352 283.391 73.0352 280.843C73.0352 278.296 75.2929 276.221 78.0618 276.209C80.8307 276.196 83.0741 278.249 83.0741 280.786Z" fill="url(#paint23_linear)"/>
<path d="M101.204 280.685C101.204 283.214 98.9815 285.281 96.2372 285.299C93.493 285.318 91.2578 283.28 91.2578 280.743C91.2578 278.206 93.4889 276.141 96.2372 276.129C98.9856 276.116 101.204 278.157 101.204 280.685Z" fill="url(#paint24_linear)"/>
<g style="mix-blend-mode:soft-light" opacity="0.48">
<path d="M317.631 432.749C288.875 417.277 266.264 436.883 244.442 417.538C231.211 405.81 237.707 397.066 221.429 379.539C203.399 360.128 191.667 366.653 173.541 349.184C150.631 327.095 162.088 309.909 142.353 294.049C118.412 274.809 92.5916 292.613 69.8024 274.167C59.9728 266.209 54.5788 254.639 51.7627 242.334H29.464C27.5872 242.333 25.787 243.078 24.4592 244.404C23.1313 245.731 22.3844 247.53 22.3828 249.407V525.829C22.3828 529.729 25.556 532.678 29.464 532.397L409.633 505.413C411.499 505.279 413.153 504.181 414.215 502.611C386.384 501.597 369.289 492.268 358.359 482.623C336.978 463.761 340.687 445.154 317.631 432.749Z" fill="white"/>
</g>
<path d="M555.004 295.232L513.393 363.31L386.455 361.873L330.156 470.793L184.81 475.879L109.4 592.101C108.737 593.122 107.85 593.979 106.805 594.605C105.761 595.23 104.587 595.609 103.374 595.711L93.5218 596.532C89.0514 597.236 79.503 595.876 80.9603 591.592L132.044 476.022L174.055 457.234L315.361 451.831L368.84 344.749L498.689 343.312L542.202 277.204L555.004 295.232Z" fill="url(#paint25_linear)"/>
<path d="M477.608 299.809L454.277 289.082L480.281 283.787L477.608 299.809Z" fill="url(#paint26_linear)"/>
<path d="M566.496 277.208L578.702 295.232H551.617L542.463 283.787L566.496 277.208Z" fill="url(#paint27_linear)"/>
<path d="M581.565 214.732L570.249 206.347L565.35 274.251L570.249 282.978L578.701 295.232L581.565 214.732Z" fill="url(#paint28_linear)"/>
<path d="M263.564 443.98L322.172 459.994L378.471 351.075L319.863 335.059L263.564 443.98Z" fill="url(#paint29_linear)"/>
<path d="M38.8981 583.897L82.7729 595.886C85.0339 596.504 87.4327 596.387 89.6229 595.552C91.813 594.717 93.6809 593.208 94.9567 591.241L176.828 465.08L118.22 449.071L35.8726 575.96C35.4222 576.655 35.142 577.445 35.0547 578.268C34.9674 579.091 35.0756 579.923 35.3704 580.697C35.6652 581.47 36.1383 582.163 36.7512 582.719C37.3642 583.275 38.0997 583.679 38.8981 583.897Z" fill="url(#paint30_linear)"/>
<path d="M118.219 449.067L176.825 465.08L322.172 459.994L263.564 443.98L118.219 449.067Z" fill="url(#paint31_linear)"/>
<path d="M319.863 335.059L378.471 351.075L505.41 352.505L446.802 336.491L319.863 335.059Z" fill="url(#paint32_linear)"/>
<path d="M454.278 289.082L476.495 287.912L446.803 336.492L505.411 352.505L547.163 284.193L570.25 282.978V206.347L454.278 289.082Z" fill="url(#paint33_linear)"/>
<g style="mix-blend-mode:multiply" opacity="0.3">
<path style="mix-blend-mode:multiply" opacity="0.3" d="M284.02 440.031C300.863 426.511 316.144 434.738 326.918 423.689C336.13 414.247 326.596 406.544 337.131 383.244C345.711 364.27 358.291 355.535 360.826 353.829C363.736 351.877 366.811 350.182 370.015 348.764L319.863 335.061L263.564 443.98L276.637 447.552C278.797 444.766 281.275 442.242 284.02 440.031Z" fill="url(#paint34_linear)"/>
</g>
<path style="mix-blend-mode:multiply" opacity="0.3" d="M385.746 337.896C375.028 338.626 373.105 339.033 373.082 339.538C373.012 341.04 390.223 343.983 407.809 344.441C423.457 344.851 426.191 342.945 442.944 344.03C453.845 344.739 461.15 346.093 461.329 345.262C461.534 344.256 451.407 340.554 440.494 338.316C425.627 335.258 412.132 336.096 385.746 337.896Z" fill="url(#paint35_linear)"/>
<path style="mix-blend-mode:multiply" opacity="0.3" d="M87.9209 529.501C96.9869 514.723 100.331 499.645 116.11 492.324C128.196 486.716 136.416 490.831 147.159 483.744C155.523 478.227 160.055 469.452 162.627 461.201L118.227 449.067L39.1426 570.929C66.4392 557.691 80.2794 541.968 87.9209 529.501Z" fill="url(#paint36_linear)"/>
<path d="M227.563 356.639C232.533 355.188 239.175 364.313 244.698 371.9C252.959 383.25 262.61 396.509 260.01 412.433C257.452 428.098 244.021 440.3 240.195 438.553C236.921 437.061 243.216 426.524 238.393 412.433C234.493 401.062 228.054 401.058 223.731 389.909C218.366 376.072 221.449 358.425 227.563 356.639Z" fill="url(#paint37_linear)"/>
<path d="M230.022 428.796C255.619 435.011 272.481 444.986 282.327 452.043C287.663 455.867 290.126 458.252 291.458 461.729C299.04 481.542 260.083 511.498 255.933 514.635L250.494 501.95C254.519 479.855 261.22 472.923 266.83 470.862C268.398 470.286 271.032 469.668 270.982 468.925C270.861 467.17 256.065 469.672 241.925 464.498C227.824 459.337 213.657 446.283 216.188 437.653C216.648 436.078 218.581 431.524 230.022 428.796Z" fill="url(#paint38_linear)"/>
<path d="M254.844 573.612C254.844 573.612 252.461 574.46 252.461 576.35C252.461 578.24 254.875 586.535 257.506 589.486C260.137 592.438 260.38 588.035 260.209 585.201C260.039 582.366 259.357 576.022 258.707 574.794C258.056 573.567 254.844 573.612 254.844 573.612Z" fill="url(#paint39_linear)"/>
<path style="mix-blend-mode:multiply" opacity="0.3" d="M262.496 457.763C267.148 457.673 278.044 456.805 280.947 462.19C283.367 466.686 279.126 473.498 276.519 477.689C269.43 489.081 262.548 490.246 257.7 497.246C255.824 499.955 254.124 503.74 253.582 509.15L250.504 501.954C254.529 479.859 261.23 472.927 266.84 470.867C268.408 470.29 271.041 469.672 270.992 468.929C270.871 467.174 256.074 469.676 241.934 464.502C229.081 459.799 216.216 448.545 215.949 440.052C236.292 454.635 251.612 457.977 262.496 457.763Z" fill="url(#paint40_linear)"/>
<path d="M253.467 565.605C253.606 568.509 253.855 570.942 254.083 572.74C254.573 576.728 255.027 578.306 255.645 579.745C256.184 580.997 257.535 583.731 258.179 583.54C258.824 583.349 258.161 580.32 257.65 571.9C257.576 570.669 257.35 566.787 257.35 566.787L253.467 565.605Z" fill="url(#paint41_linear)"/>
<path d="M215.264 430.458C226.64 437.278 236.752 446.013 245.153 456.277C251.721 464.337 261.719 476.597 265.337 494.877C267.267 504.62 266.316 513.362 264.34 530.445C262.78 543.972 260.45 557.399 257.361 570.661L253.96 572.025C250.922 566.445 246.949 557.608 245.524 546.311C243.195 527.828 250.108 521.954 246.789 508.845C243.915 497.488 235.582 490.526 218.922 476.601C205.231 465.161 192.61 458.373 187.928 444.102C187.132 441.678 186.457 438.705 187.754 435.984C190.543 430.126 201.239 428.08 215.264 430.458Z" fill="url(#paint42_linear)"/>
<path d="M203.49 357.696C207.318 356.875 213.613 357.037 219.615 352.31C221.421 350.888 227.825 345.847 227.045 338.634C226.361 332.286 220.343 328.873 219.605 328.466C215.343 326.122 211.097 326.644 206.388 327.286C200.28 328.121 198.252 329.79 194.007 330.933C183.509 333.764 179.958 327.855 169.377 328.355C155.865 328.992 154.697 338.971 143.328 339.219C130.566 339.498 128.121 327.009 115.521 324.893C98.0312 321.956 71.57 340.783 72.1037 362.487C72.4115 375.022 81.7505 389.389 93.6675 393.702C100.617 396.216 108.115 395.418 110.256 399.937C111.779 403.154 108.355 405.631 108.678 411.226C109.088 418.451 115.313 423.521 116.317 424.338C125.64 431.932 146.545 428.098 160.818 417.345C186.575 397.963 182.675 362.175 203.49 357.696Z" fill="url(#paint43_linear)"/>
<path d="M173.924 355.12C183.807 353.902 193.749 353.224 203.706 353.088C227.187 352.77 230.547 355.757 231.415 357.951C233.018 362.056 230.272 364.108 231.825 371.292C232.757 375.576 231.877 377.528 233.673 382.129C235.43 386.614 234.052 389.026 232.499 399.543C230.512 412.991 229.596 419.826 233.359 425.249C235.974 429.015 238.901 429.336 238.621 431.125C238.028 434.937 224.847 432.835 208.158 440.156C203.326 442.275 198.88 444.877 195.151 447.076C186.419 452.207 184.804 454.163 180.761 456.484C167.973 463.83 148.764 464.538 138.696 455.663C134.942 452.351 132.206 447.482 133.437 445.7C135.114 443.274 142.61 448.779 149.488 445.423C154.045 443.196 153.183 439.592 158.448 435.347C164.788 430.239 169.197 432.915 173.511 429.6C180.243 424.414 177.181 411.998 175.291 391.179C174.211 379.191 173.755 367.155 173.924 355.12Z" fill="url(#paint44_linear)"/>
<path d="M199.333 350.282C196.131 352.269 190.954 354.866 190.384 355.57C189.813 356.274 206.067 359.059 216.18 353.952C216.18 353.952 217.748 353.082 211.652 351.863C210.353 351.602 210.607 349.076 210.782 346.463L209.563 344.205C209.563 344.205 202.535 348.296 199.333 350.282Z" fill="url(#paint45_linear)"/>
<path d="M207.412 342.661C207.412 342.661 206.156 347.998 210.85 350.625C215.052 352.984 222.162 343.316 220.834 339.722C220.39 338.523 218.808 336.984 217.154 336.465C215.99 336.099 211.589 336.241 209.703 339.954C209.208 338.87 208.326 338.312 207.73 338.48C206.977 338.706 206.866 340.077 206.84 340.389C206.789 341.188 206.99 341.982 207.412 342.661Z" fill="url(#paint46_linear)"/>
<path style="mix-blend-mode:multiply" opacity="0.3" d="M214.694 428.092C209.858 430.095 209.206 434.428 202.521 436.885C196.143 439.229 194.003 436.292 187.642 438.237C178.087 441.16 174.434 450.378 172.989 449.51C171.663 448.714 172.936 439.894 179.077 434.18C186.129 427.612 193.726 430.623 198.239 423.81C199.996 421.158 201.349 416.924 199.817 413.665C197.742 409.248 192.32 410.779 189.448 407.127C184.286 400.559 196.365 388.728 193.054 378.722C191.733 374.73 187.527 369.724 173.966 366.374C174.151 376.403 174.727 384.785 175.306 391.15C177.197 411.969 180.259 424.385 173.527 429.572C169.216 432.897 164.803 430.218 158.463 435.319C153.194 439.563 154.06 443.168 149.504 445.395C142.626 448.757 135.136 443.246 133.453 445.672C132.222 447.453 134.958 452.322 138.712 455.635C148.779 464.518 167.989 463.81 180.776 456.456C184.82 454.132 186.435 452.172 195.166 447.047C198.896 444.857 203.342 442.246 208.173 440.128C219.885 434.997 229.862 434.494 234.981 433.338C224.805 426.577 218.615 426.464 214.694 428.092Z" fill="url(#paint47_linear)"/>
<path d="M261.359 434.894L200.015 437.878C199.601 437.9 199.198 438.021 198.841 438.232C198.483 438.443 198.182 438.737 197.963 439.089L196.265 441.813C196.074 442.12 195.971 442.473 195.965 442.835C195.96 443.197 196.053 443.553 196.234 443.866C196.416 444.179 196.679 444.436 196.996 444.611C197.313 444.785 197.671 444.87 198.033 444.857L263.009 442.381L261.359 434.894Z" fill="url(#paint48_linear)"/>
<path d="M317.673 401.004L254.299 402.236C253.378 402.254 252.478 402.512 251.686 402.983C250.895 403.455 250.239 404.124 249.784 404.925L227.83 443.531L294.761 440.863C295.665 440.827 296.547 440.566 297.325 440.104C298.103 439.642 298.754 438.993 299.219 438.217L319.551 404.247C319.747 403.919 319.852 403.545 319.854 403.163C319.856 402.781 319.757 402.405 319.565 402.074C319.374 401.744 319.097 401.47 318.765 401.282C318.432 401.094 318.055 400.998 317.673 401.004Z" fill="url(#paint49_linear)"/>
<path style="mix-blend-mode:multiply" opacity="0.3" d="M249.778 404.921C250.233 404.12 250.888 403.451 251.68 402.979C252.472 402.508 253.372 402.25 254.293 402.232L255.683 402.205C255.888 404.258 256.518 406.122 257.77 407.634C261.67 412.355 268.17 409.443 273.01 414.434C278.326 419.917 273.421 426.446 278.168 431.548C283.17 436.92 291.259 432.546 300.559 435.984L299.221 438.221C298.756 438.998 298.105 439.646 297.327 440.108C296.549 440.57 295.667 440.831 294.763 440.867L227.832 443.535L249.778 404.921Z" fill="url(#paint50_linear)"/>
<path d="M210.064 434.931L212.137 429.455C204.498 427.361 193.931 424.266 183.094 420.393C180.426 419.436 179.436 418.199 178.72 417.248C173.164 409.88 187.304 396.879 187.051 380.011C186.877 368.312 179.787 354.942 173.539 354.79C160.842 354.482 132.846 408.361 156.425 431.349C168.129 442.761 189.995 444.085 210.064 434.931Z" fill="url(#paint51_linear)"/>
<path d="M212.14 429.449C216.936 426.901 222.677 429.512 223.047 429.687C224.592 430.42 225.993 431.425 227.185 432.652C227.359 432.891 229.442 435.774 228.683 436.698C228.067 437.439 225.723 436.825 222.895 435.056C221.217 434.82 219.518 434.778 217.831 434.933C213.95 435.29 212.17 436.517 210.762 435.458C209.736 434.684 209.379 433.045 209.75 431.827C210.147 430.53 211.327 429.882 212.14 429.449Z" fill="url(#paint52_linear)"/>
</g>
<defs>
<linearGradient id="paint0_linear" x1="473.694" y1="362.197" x2="423.642" y2="558.868" gradientUnits="userSpaceOnUse">
<stop stop-color="#AA80F9"/>
<stop offset="1" stop-color="#6165D7"/>
</linearGradient>
<linearGradient id="paint1_linear" x1="452.43" y1="487.447" x2="571.477" y2="377.523" gradientUnits="userSpaceOnUse">
<stop stop-color="#E38DDD"/>
<stop offset="1" stop-color="#9571F6"/>
</linearGradient>
<linearGradient id="paint2_linear" x1="247.836" y1="182.641" x2="211.311" y2="272.297" gradientUnits="userSpaceOnUse">
<stop stop-color="#FFC444"/>
<stop offset="1" stop-color="#F36F56"/>
</linearGradient>
<linearGradient id="paint3_linear" x1="-23619.9" y1="98018.4" x2="-50186.5" y2="136434" gradientUnits="userSpaceOnUse">
<stop stop-color="#FFC444"/>
<stop offset="1" stop-color="#F36F56"/>
</linearGradient>
<linearGradient id="paint4_linear" x1="68255.4" y1="49021.9" x2="92634.6" y2="59599.1" gradientUnits="userSpaceOnUse">
<stop stop-color="#E38DDD"/>
<stop offset="1" stop-color="#9571F6"/>
</linearGradient>
<linearGradient id="paint5_linear" x1="19940.3" y1="85773" x2="162062" y2="371263" gradientUnits="userSpaceOnUse">
<stop stop-color="#AA80F9"/>
<stop offset="1" stop-color="#6165D7"/>
</linearGradient>
<linearGradient id="paint6_linear" x1="-20794.4" y1="36964.2" x2="16674.5" y2="135275" gradientUnits="userSpaceOnUse">
<stop stop-color="#AA80F9"/>
<stop offset="1" stop-color="#6165D7"/>
</linearGradient>
<linearGradient id="paint7_linear" x1="224997" y1="75678.4" x2="343542" y2="99488" gradientUnits="userSpaceOnUse">
<stop stop-color="#E38DDD"/>
<stop offset="1" stop-color="#9571F6"/>
</linearGradient>
<linearGradient id="paint8_linear" x1="330.026" y1="130.494" x2="436.308" y2="98.783" gradientUnits="userSpaceOnUse">
<stop stop-color="#311944"/>
<stop offset="1" stop-color="#893976"/>
</linearGradient>
<linearGradient id="paint9_linear" x1="28319.6" y1="46778.7" x2="48867.1" y2="143164" gradientUnits="userSpaceOnUse">
<stop stop-color="#FFC444"/>
<stop offset="1" stop-color="#F36F56"/>
</linearGradient>
<linearGradient id="paint10_linear" x1="19800" y1="43281.3" x2="34405.6" y2="93192.5" gradientUnits="userSpaceOnUse">
<stop stop-color="#FFC444"/>
<stop offset="1" stop-color="#F36F56"/>
</linearGradient>
<linearGradient id="paint11_linear" x1="-18928.4" y1="38406.3" x2="-21547.2" y2="63270.6" gradientUnits="userSpaceOnUse">
<stop stop-color="#E38DDD"/>
<stop offset="1" stop-color="#9571F6"/>
</linearGradient>
<linearGradient id="paint12_linear" x1="477.73" y1="23.9121" x2="422.013" y2="80.5515" gradientUnits="userSpaceOnUse">
<stop stop-color="#FF9085"/>
<stop offset="1" stop-color="#FB6FBB"/>
</linearGradient>
<linearGradient id="paint13_linear" x1="-10711.3" y1="33452.8" x2="-13459.2" y2="56564.6" gradientUnits="userSpaceOnUse">
<stop stop-color="#E38DDD"/>
<stop offset="1" stop-color="#9571F6"/>
</linearGradient>
<linearGradient id="paint14_linear" x1="3479.3" y1="17786.2" x2="11924.3" y2="22508.6" gradientUnits="userSpaceOnUse">
<stop stop-color="#FF9085"/>
<stop offset="1" stop-color="#FB6FBB"/>
</linearGradient>
<linearGradient id="paint15_linear" x1="-19836.1" y1="46620.6" x2="-22517.8" y2="79870.5" gradientUnits="userSpaceOnUse">
<stop stop-color="#AA80F9"/>
<stop offset="1" stop-color="#6165D7"/>
</linearGradient>
<linearGradient id="paint16_linear" x1="258.58" y1="550.741" x2="219.299" y2="567.239" gradientUnits="userSpaceOnUse">
<stop stop-color="#40447E"/>
<stop offset="1" stop-color="#3C3B6B"/>
</linearGradient>
<linearGradient id="paint17_linear" x1="396780" y1="533668" x2="324063" y2="575282" gradientUnits="userSpaceOnUse">
<stop stop-color="#40447E"/>
<stop offset="1" stop-color="#3C3B6B"/>
</linearGradient>
<linearGradient id="paint18_linear" x1="43105.5" y1="547359" x2="803541" y2="547359" gradientUnits="userSpaceOnUse">
<stop stop-color="#40447E"/>
<stop offset="1" stop-color="#3C3B6B"/>
</linearGradient>
<linearGradient id="paint19_linear" x1="61001.2" y1="150126" x2="1.58442e+06" y2="150126" gradientUnits="userSpaceOnUse">
<stop stop-color="#40447E"/>
<stop offset="1" stop-color="#3C3B6B"/>
</linearGradient>
<linearGradient id="paint20_linear" x1="154218" y1="99071.3" x2="972047" y2="99071.3" gradientUnits="userSpaceOnUse">
<stop stop-color="#40447E"/>
<stop offset="1" stop-color="#3C3B6B"/>
</linearGradient>
<linearGradient id="paint21_linear" x1="559160" y1="44698.4" x2="546471" y2="144873" gradientUnits="userSpaceOnUse">
<stop stop-color="#AA80F9"/>
<stop offset="1" stop-color="#6165D7"/>
</linearGradient>
<linearGradient id="paint22_linear" x1="54.6445" y1="280.925" x2="64.7758" y2="280.925" gradientUnits="userSpaceOnUse">
<stop stop-color="#444B8C"/>
<stop offset="1" stop-color="#26264F"/>
</linearGradient>
<linearGradient id="paint23_linear" x1="3645.19" y1="12879.6" x2="4136.2" y2="12879.6" gradientUnits="userSpaceOnUse">
<stop stop-color="#444B8C"/>
<stop offset="1" stop-color="#26264F"/>
</linearGradient>
<linearGradient id="paint24_linear" x1="4513.6" y1="12818.7" x2="4995.61" y2="12818.7" gradientUnits="userSpaceOnUse">
<stop stop-color="#444B8C"/>
<stop offset="1" stop-color="#26264F"/>
</linearGradient>
<linearGradient id="paint25_linear" x1="380.026" y1="324.047" x2="205.225" y2="619.024" gradientUnits="userSpaceOnUse">
<stop stop-color="#AB316D"/>
<stop offset="1" stop-color="#792D3D"/>
</linearGradient>
<linearGradient id="paint26_linear" x1="57191.9" y1="25670.1" x2="57503.4" y2="24810.3" gradientUnits="userSpaceOnUse">
<stop stop-color="#AB316D"/>
<stop offset="1" stop-color="#792D3D"/>
</linearGradient>
<linearGradient id="paint27_linear" x1="100858" y1="19928.3" x2="100569" y2="24952.4" gradientUnits="userSpaceOnUse">
<stop stop-color="#AB316D"/>
<stop offset="1" stop-color="#792D3D"/>
</linearGradient>
<linearGradient id="paint28_linear" x1="45687.4" y1="119321" x2="65967.4" y2="92193.4" gradientUnits="userSpaceOnUse">
<stop stop-color="#AB316D"/>
<stop offset="1" stop-color="#792D3D"/>
</linearGradient>
<linearGradient id="paint29_linear" x1="198247" y1="205808" x2="157753" y2="274246" gradientUnits="userSpaceOnUse">
<stop stop-color="#FF9085"/>
<stop offset="1" stop-color="#FB6FBB"/>
</linearGradient>
<linearGradient id="paint30_linear" x1="107850" y1="318709" x2="21386" y2="447329" gradientUnits="userSpaceOnUse">
<stop stop-color="#FF9085"/>
<stop offset="1" stop-color="#FB6FBB"/>
</linearGradient>
<linearGradient id="paint31_linear" x1="303895" y1="45613.1" x2="238886" y2="156864" gradientUnits="userSpaceOnUse">
<stop stop-color="#FF9085"/>
<stop offset="1" stop-color="#FB6FBB"/>
</linearGradient>
<linearGradient id="paint32_linear" x1="375655" y1="27427.4" x2="375615" y2="31544.1" gradientUnits="userSpaceOnUse">
<stop stop-color="#FF9085"/>
<stop offset="1" stop-color="#FB6FBB"/>
</linearGradient>
<linearGradient id="paint33_linear" x1="288970" y1="233345" x2="363814" y2="152982" gradientUnits="userSpaceOnUse">
<stop stop-color="#FF9085"/>
<stop offset="1" stop-color="#FB6FBB"/>
</linearGradient>
<linearGradient id="paint34_linear" x1="181138" y1="183882" x2="145186" y2="246400" gradientUnits="userSpaceOnUse">
<stop stop-color="#FF9085"/>
<stop offset="1" stop-color="#FB6FBB"/>
</linearGradient>
<linearGradient id="paint35_linear" x1="183743" y1="14985.6" x2="183634" y2="16892.3" gradientUnits="userSpaceOnUse">
<stop stop-color="#FF9085"/>
<stop offset="1" stop-color="#FB6FBB"/>
</linearGradient>
<linearGradient id="paint36_linear" x1="90896.4" y1="261980" x2="20747.7" y2="371746" gradientUnits="userSpaceOnUse">
<stop stop-color="#FF9085"/>
<stop offset="1" stop-color="#FB6FBB"/>
</linearGradient>
<linearGradient id="paint37_linear" x1="25830.9" y1="159656" x2="18239.9" y2="159656" gradientUnits="userSpaceOnUse">
<stop stop-color="#FFC444"/>
<stop offset="1" stop-color="#F36F56"/>
</linearGradient>
<linearGradient id="paint38_linear" x1="-924.886" y1="197705" x2="-29470.3" y2="197705" gradientUnits="userSpaceOnUse">
<stop stop-color="#AA80F9"/>
<stop offset="1" stop-color="#6165D7"/>
</linearGradient>
<linearGradient id="paint39_linear" x1="5202.25" y1="45111.4" x2="4357.89" y2="49921.8" gradientUnits="userSpaceOnUse">
<stop stop-color="#E38DDD"/>
<stop offset="1" stop-color="#9571F6"/>
</linearGradient>
<linearGradient id="paint40_linear" x1="-12298.8" y1="160213" x2="-36806.9" y2="160213" gradientUnits="userSpaceOnUse">
<stop stop-color="#AA80F9"/>
<stop offset="1" stop-color="#6165D7"/>
</linearGradient>
<linearGradient id="paint41_linear" x1="258.444" y1="574.577" x2="253.467" y2="574.577" gradientUnits="userSpaceOnUse">
<stop stop-color="#311944"/>
<stop offset="1" stop-color="#A03976"/>
</linearGradient>
<linearGradient id="paint42_linear" x1="-16739.3" y1="295009" x2="-61822.4" y2="325510" gradientUnits="userSpaceOnUse">
<stop stop-color="#AA80F9"/>
<stop offset="1" stop-color="#6165D7"/>
</linearGradient>
<linearGradient id="paint43_linear" x1="-184997" y1="153548" x2="-142396" y2="212696" gradientUnits="userSpaceOnUse">
<stop stop-color="#444B8C"/>
<stop offset="1" stop-color="#26264F"/>
</linearGradient>
<linearGradient id="paint44_linear" x1="-183990" y1="227124" x2="-144969" y2="193196" gradientUnits="userSpaceOnUse">
<stop stop-color="#FFC444"/>
<stop offset="1" stop-color="#F36F56"/>
</linearGradient>
<linearGradient id="paint45_linear" x1="117063" y1="22132.2" x2="120354" y2="22132.2" gradientUnits="userSpaceOnUse">
<stop stop-color="#311944"/>
<stop offset="1" stop-color="#A03976"/>
</linearGradient>
<linearGradient id="paint46_linear" x1="64124.5" y1="30191" x2="64082.9" y2="26526.9" gradientUnits="userSpaceOnUse">
<stop stop-color="#311944"/>
<stop offset="1" stop-color="#A03976"/>
</linearGradient>
<linearGradient id="paint47_linear" x1="-176358" y1="200680" x2="-141804" y2="167646" gradientUnits="userSpaceOnUse">
<stop stop-color="#FFC444"/>
<stop offset="1" stop-color="#F36F56"/>
</linearGradient>
<linearGradient id="paint48_linear" x1="-107892" y1="21789.4" x2="-85991" y2="21789.4" gradientUnits="userSpaceOnUse">
<stop stop-color="#444B8C"/>
<stop offset="1" stop-color="#26264F"/>
</linearGradient>
<linearGradient id="paint49_linear" x1="-134035" y1="87891.1" x2="-92774.1" y2="87891.1" gradientUnits="userSpaceOnUse">
<stop stop-color="#444B8C"/>
<stop offset="1" stop-color="#26264F"/>
</linearGradient>
<linearGradient id="paint50_linear" x1="-145200" y1="80513.6" x2="-152835" y2="93843.1" gradientUnits="userSpaceOnUse">
<stop stop-color="#444B8C"/>
<stop offset="1" stop-color="#26264F"/>
</linearGradient>
<linearGradient id="paint51_linear" x1="-103185" y1="179277" x2="-125795" y2="162531" gradientUnits="userSpaceOnUse">
<stop stop-color="#FFC444"/>
<stop offset="1" stop-color="#F36F56"/>
</linearGradient>
<linearGradient id="paint52_linear" x1="18799.8" y1="18140.1" x2="19544.5" y2="19297.3" gradientUnits="userSpaceOnUse">
<stop stop-color="#311944"/>
<stop offset="1" stop-color="#A03976"/>
</linearGradient>
<clipPath id="clip0">
<rect width="598" height="598" fill="white"/>
</clipPath>
</defs>
</svg>
