<svg width="120" height="120" viewBox="0 0 120 120" fill="none" xmlns="http://www.w3.org/2000/svg">
<path d="M118.583 25.1471L103.627 10.1909C101.739 8.3042 98.6693 8.3042 96.7821 10.1909C95.7361 11.0804 94.8105 12.5096 94.7791 14.1987C94.7791 15.4913 95.2826 16.7068 96.1964 17.6206L96.908 18.3322L79.7698 31.7532C78.4753 30.7569 76.9641 30.102 75.3347 29.8428C70.8478 29.1291 66.2473 29.5156 61.9683 30.9139C59.3524 27.2054 56.3498 23.9483 53.0009 21.173C58.4114 21.9249 63.6497 23.6837 68.4009 26.3759C69.251 26.8573 70.3308 26.5592 70.8129 25.7087C71.2948 24.8583 70.9962 23.7783 70.1456 23.2967C63.1237 19.3175 55.1217 17.2144 47.0041 17.2144C21.0858 17.2147 0 38.3004 0 64.2186C0 90.1245 21.0661 111.202 46.9673 111.222C46.9795 111.222 46.9915 111.224 47.0039 111.224C47.0159 111.224 47.0273 111.222 47.0391 111.222C69.3202 111.206 88.4452 95.6112 92.9972 73.9498C94.1496 73.5933 95.1176 72.8138 95.7176 71.7338C98.7869 66.2091 99.9279 59.712 98.9304 53.439C98.6712 51.8096 98.0163 50.2983 97.02 49.0039L110.441 31.8657L111.152 32.5772C112.096 33.5206 113.335 33.9922 114.574 33.9922C115.775 34.0458 117.57 33.2314 118.582 31.9913C119.496 31.0775 120 29.862 120 28.5694C120 27.2769 119.497 26.0612 118.583 25.1471ZM58.5813 32.2683C58.0608 32.5165 57.5452 32.7753 57.0401 33.0561C55.7316 33.7831 54.8623 35.0494 54.6548 36.5307C54.4477 38.0087 54.9345 39.4615 55.9896 40.5172L67.3833 51.9108C67.4838 52.3627 67.5788 52.8169 67.6685 53.2742L58.4932 62.4497H48.7739V22.3559C52.4667 25.077 55.7522 28.3983 58.5813 32.2683ZM77.9222 62.4497H74.1551L76.0385 60.5663L77.9222 62.4497ZM56.842 74.7572C55.1386 76.4609 53.3388 78.1097 51.4927 79.6583L42.312 87.3591C42.0577 87.5729 41.688 87.5572 41.4525 87.3214C41.2172 87.0861 41.2008 86.7167 41.4148 86.4619L48.3656 78.1751C48.368 78.1723 48.3703 78.1697 48.3727 78.1669C49.9971 76.1942 52.0519 73.8924 54.0169 71.9319L70.7105 55.238L73.5361 58.0637L56.842 74.7572ZM45.2344 106.106C38.6168 101.21 33.202 94.2636 29.7232 86.18C30.3527 85.8811 30.9117 85.4354 31.3535 84.8623C35.7877 79.1089 40.9252 71.6176 42.5412 65.989H45.2344V76.4007L38.7028 84.1873C37.301 85.8584 37.407 88.2816 38.9494 89.8243C39.7669 90.6415 40.8316 91.0557 41.9009 91.0557C42.8491 91.0557 43.8009 90.7299 44.5863 90.0708L45.2344 89.5273V106.106ZM45.2344 62.4497H43.0488C42.8597 54.1986 36.0938 47.5435 27.798 47.5435C27.7924 47.5435 27.787 47.544 27.7816 47.544C31.0066 37.133 37.106 28.3362 45.2344 22.3538V62.4497ZM27.7983 51.0828C34.2612 51.0828 39.5187 56.3405 39.5187 62.803C39.5187 66.3514 35.4183 73.7902 28.5504 82.7019C28.302 83.0241 27.9724 83.0724 27.7983 83.0724C27.6241 83.0724 27.2946 83.0244 27.0462 82.7019C20.1783 73.7897 16.0781 66.3509 16.0781 62.803C16.0779 56.3405 21.3356 51.0828 27.7983 51.0828ZM48.7737 65.989H54.9539L51.514 69.429C50.5821 70.3608 49.6671 71.3213 48.7737 72.3008V65.989ZM41.0086 21.1693C37.6852 23.9246 34.6985 27.162 32.0906 30.8419C28.44 35.9937 25.7053 41.7753 23.9498 48.0357C17.5024 49.7171 12.7064 55.5202 12.5475 62.4495H3.57797C4.42875 41.315 20.4405 24.02 41.0086 21.1693ZM3.5782 65.989H13.0554C14.6714 71.6176 19.8089 79.1089 24.2428 84.8623C24.6905 85.4431 25.2586 85.8929 25.8984 86.1917C29.2263 94.5364 34.478 101.842 40.9812 107.264C20.4267 104.402 4.42898 87.1137 3.5782 65.989ZM53.0339 107.266C62.6227 99.3111 69.2295 87.5499 71.4523 74.1804C71.6126 73.2165 70.961 72.3047 69.997 72.1444C69.0316 71.9832 68.1213 72.6359 67.961 73.5997C65.726 87.0422 58.7918 98.7272 48.7739 106.108V86.5583L53.7673 82.3697C55.6922 80.7554 57.5688 79.036 59.3449 77.2597L70.6158 65.9888H81.4613L88.2565 72.784C88.6109 73.1384 89.0114 73.4258 89.4412 73.6472C85.5063 91.4869 70.8539 104.789 53.0339 107.266ZM94.5518 46.4155L89.3627 41.2264C88.6718 40.5354 87.5512 40.5352 86.8601 41.2262C86.1689 41.9171 86.1689 43.0376 86.8598 43.729L93.6637 50.5332C94.6132 51.4826 95.2261 52.6798 95.4349 53.9949C96.3089 59.4896 95.3105 65.1793 92.6241 70.0149C92.4584 70.3369 91.6535 70.9772 90.7594 70.2814L58.4923 38.0143C58.132 37.6543 58.1295 37.2378 58.1595 37.0215C58.2115 36.65 58.4299 36.3322 58.7587 36.1496C63.5944 33.463 69.2836 32.464 74.7787 33.3387C76.0941 33.5478 77.291 34.1604 78.2407 35.1099L81.3014 38.1704C81.9921 38.8611 83.1127 38.8613 83.8041 38.1701C84.495 37.4792 84.495 36.3587 83.8038 35.6675L82.3582 34.2219L99.4289 20.8536L107.92 29.3445L94.5518 46.4155ZM116.08 29.4887C115.534 30.1634 114.69 30.8143 113.655 30.0744L98.6993 15.1182C98.4539 14.8728 98.3187 14.5463 98.3187 14.199C98.3909 13.2685 99.8681 11.656 101.124 12.6938L116.08 27.6497C116.263 27.9359 116.813 28.497 116.08 29.4887Z" fill="#FB525E"/>
<path d="M27.7987 71.1877C32.4726 71.1877 36.2751 67.3852 36.2751 62.7113C36.2751 58.0374 32.4726 54.2349 27.7987 54.2349C23.1248 54.2349 19.3223 58.0374 19.3223 62.7113C19.3223 67.3849 23.1248 71.1877 27.7987 71.1877ZM27.7987 57.7742C30.5212 57.7742 32.7358 59.989 32.7358 62.7113C32.7358 65.4338 30.5209 67.6484 27.7987 67.6484C25.0764 67.6484 22.8616 65.4335 22.8616 62.7113C22.8613 59.9888 25.0762 57.7742 27.7987 57.7742Z" fill="#FB525E"/>
</svg>
