<svg width="120" height="120" viewBox="0 0 120 120" fill="none" xmlns="http://www.w3.org/2000/svg">
<g clip-path="url(#clip0)">
<path d="M110.903 6.26697H101.203C100.227 6.26697 99.4359 7.05798 99.4359 8.03416C99.4359 9.01033 100.227 9.80134 101.203 9.80134H110.903C113.97 9.80134 116.466 12.2967 116.466 15.364V26.4954H3.53414V15.364C3.53414 12.2967 6.02953 9.80134 9.0968 9.80134H93.0595C94.0355 9.80134 94.8267 9.01033 94.8267 8.03416C94.8267 7.05798 94.0357 6.26697 93.0595 6.26697H9.0968C4.08094 6.26697 0 10.3479 0 15.364V89.6081C0 94.6242 4.08094 98.7049 9.0968 98.7049H28.8115C36.1343 107.858 47.3932 113.733 60 113.733C72.6068 113.733 83.8657 107.858 91.1885 98.7049H110.903C115.919 98.7049 120 94.624 120 89.6081V15.364C120 10.3479 115.919 6.26697 110.903 6.26697ZM60 110.199C39.9326 110.199 23.6065 93.8731 23.6065 73.8056C23.6065 53.7382 39.9326 37.4119 60 37.4119C80.0674 37.4119 96.3935 53.738 96.3935 73.8054C96.3935 93.8728 80.0674 110.199 60 110.199ZM110.903 95.1706H93.7162C97.6477 88.9884 99.9279 81.6586 99.9279 73.8054C99.9279 51.7892 82.0165 33.8777 60.0002 33.8777C37.984 33.8777 20.0723 51.7892 20.0723 73.8054C20.0723 81.6586 22.3526 88.9884 26.284 95.1706H9.0968C6.02953 95.1706 3.53414 92.6752 3.53414 89.6079V30.0295H116.466V89.6079C116.466 92.6752 113.97 95.1706 110.903 95.1706Z" fill="#FB525E"/>
<path d="M11.7559 18.1484C11.7559 19.9646 13.2282 21.4369 15.0444 21.4369C16.8605 21.4369 18.3329 19.9646 18.3329 18.1484C18.3329 16.3322 16.8605 14.8599 15.0444 14.8599C13.2282 14.8599 11.7559 16.3322 11.7559 18.1484Z" fill="#FB525E"/>
<path d="M21.8711 18.1484C21.8711 19.9646 23.3434 21.4369 25.1596 21.4369C26.9758 21.4369 28.4481 19.9646 28.4481 18.1484C28.4481 16.3322 26.9758 14.8599 25.1596 14.8599C23.3434 14.8599 21.8711 16.3322 21.8711 18.1484Z" fill="#FB525E"/>
<path d="M31.9883 18.1484C31.9883 19.9646 33.4606 21.4369 35.2768 21.4369C37.093 21.4369 38.5653 19.9646 38.5653 18.1484C38.5653 16.3322 37.093 14.8599 35.2768 14.8599C33.4606 14.8599 31.9883 16.3322 31.9883 18.1484Z" fill="#FB525E"/>
<path d="M41.115 64.795C40.2023 64.4519 39.1826 64.9115 38.8378 65.8246C37.8762 68.3734 37.3887 71.0584 37.3887 73.8053C37.3887 86.2731 47.5317 96.4162 59.9995 96.4162C68.6644 96.4162 76.6774 91.3617 80.4136 83.5387C80.4141 83.538 80.4143 83.537 80.4145 83.5363C81.8714 80.485 82.6102 77.211 82.6102 73.8053C82.6102 68.3983 80.7014 63.4291 77.5238 59.5342C78.2168 58.5203 78.1013 57.1966 77.2144 56.3099C76.3172 55.4127 74.9733 55.3061 73.9549 56.0268C70.1091 53.0013 65.2613 51.1945 59.9995 51.1945C53.8191 51.1945 48.0476 53.6411 43.7489 58.0834C43.0702 58.7847 43.0884 59.9034 43.7899 60.5823C44.358 61.0874 45.3752 61.3556 46.2888 60.5413C49.5026 57.22 53.6923 55.2245 58.2326 54.812V68.872C56.7478 70.1062 55.8888 70.8391 55.6648 71.0634C54.7568 71.9711 54.2569 73.1779 54.2569 74.4616C54.2569 75.7452 54.7568 76.952 55.6645 77.86C56.5725 78.7677 57.7793 79.2677 59.063 79.2677C60.3466 79.2677 61.5534 78.7677 62.4612 77.86C62.558 77.7632 62.7523 77.5448 63.0384 77.2117L76.3849 83.5741C72.9682 89.2792 66.7172 92.882 59.9998 92.882C49.481 92.882 40.923 84.3243 40.923 73.8053C40.923 71.4862 41.3339 69.2207 42.1448 67.0722C42.4891 66.1593 42.0284 65.1398 41.115 64.795ZM61.7667 54.8099C65.2366 55.1301 68.4375 56.3875 71.1211 58.3202C67.3031 61.4261 64.1817 63.9742 61.7667 65.9563V54.8099ZM59.0627 75.7335C58.5206 75.7469 57.1453 74.9399 58.1623 73.5637C58.3427 73.3863 59.658 72.2301 68.5554 64.9689C61.2954 73.8648 60.1383 75.1813 59.9609 75.3618C59.7209 75.6016 59.4019 75.7335 59.0627 75.7335ZM75.2447 62.354C77.6482 65.5457 79.0763 69.5113 79.0763 73.8053C79.0763 76.0827 78.6853 78.2894 77.9121 80.3868L65.381 74.4131C67.527 71.8192 70.8225 67.7901 75.2447 62.354Z" fill="#FB525E"/>
<path d="M60 40.9463C41.8812 40.9463 27.1406 55.6868 27.1406 73.8057C27.1406 91.9243 41.8812 106.665 60 106.665C63.0968 106.665 66.1634 106.232 69.1149 105.379C70.0526 105.108 70.5928 104.128 70.3216 103.19C70.0507 102.253 69.0705 101.712 68.1333 101.984C65.5008 102.745 62.7645 103.131 60 103.131C43.83 103.131 30.6748 89.9757 30.6748 73.8057C30.6748 57.6357 43.83 44.4804 60 44.4804C76.17 44.4804 89.3252 57.6357 89.3252 73.8057C89.3252 84.0814 84.0748 93.4348 75.2801 98.8268C74.4481 99.3368 74.1872 100.425 74.6972 101.257C75.2072 102.089 76.2956 102.35 77.1272 101.84C81.8381 98.9515 85.7803 94.8926 88.5272 90.1015C91.3613 85.1583 92.8594 79.5232 92.8594 73.8057C92.8594 55.6868 78.1188 40.9463 60 40.9463Z" fill="#FB525E"/>
<path d="M25.1598 38.8193H11.7555C10.7795 38.8193 9.98828 39.6104 9.98828 40.5865C9.98828 41.5625 10.7793 42.3537 11.7555 42.3537H25.1598C26.1358 42.3537 26.927 41.5627 26.927 40.5865C26.927 39.6106 26.136 38.8193 25.1598 38.8193Z" fill="#FB525E"/>
<path d="M19.4744 46.2412H11.7555C10.7795 46.2412 9.98828 47.0322 9.98828 48.0084C9.98828 48.9846 10.7793 49.7756 11.7555 49.7756H19.4744C20.4503 49.7756 21.2416 48.9846 21.2416 48.0084C21.2416 47.0322 20.4506 46.2412 19.4744 46.2412Z" fill="#FB525E"/>
<path d="M106.732 36.5001C103.793 36.5001 101.402 38.891 101.402 41.83C101.402 44.7691 103.793 47.1602 106.732 47.1602C109.671 47.1602 112.062 44.7691 112.062 41.83C112.062 38.891 109.671 36.5001 106.732 36.5001ZM106.732 43.6258C105.742 43.6258 104.937 42.8203 104.937 41.83C104.937 40.84 105.742 40.0345 106.732 40.0345C107.723 40.0345 108.528 40.84 108.528 41.83C108.528 42.8203 107.723 43.6258 106.732 43.6258Z" fill="#FB525E"/>
<path d="M106.732 50.4199C103.793 50.4199 101.402 52.8108 101.402 55.7498C101.402 58.6889 103.793 61.08 106.732 61.08C109.671 61.08 112.062 58.6889 112.062 55.7498C112.062 52.8108 109.671 50.4199 106.732 50.4199ZM106.732 57.5456C105.742 57.5456 104.937 56.7401 104.937 55.7498C104.937 54.7598 105.742 53.9543 106.732 53.9543C107.723 53.9543 108.528 54.7598 108.528 55.7498C108.528 56.7401 107.723 57.5456 106.732 57.5456Z" fill="#FB525E"/>
</g>
<defs>
<clipPath id="clip0">
<rect width="120" height="120" fill="white"/>
</clipPath>
</defs>
</svg>
