<svg width="120" height="120" viewBox="0 0 120 120" fill="none" xmlns="http://www.w3.org/2000/svg">
<path d="M82.5 73.125H86.25V69.375H89.0625C90.803 69.375 92.4722 68.6836 93.7029 67.4529C94.9336 66.2222 95.625 64.553 95.625 62.8125C95.625 61.072 94.9336 59.4028 93.7029 58.1721C92.4722 56.9414 90.803 56.25 89.0625 56.25H79.6875C78.9416 56.25 78.2262 55.9537 77.6988 55.4262C77.1713 54.8988 76.875 54.1834 76.875 53.4375C76.875 52.6916 77.1713 51.9762 77.6988 51.4488C78.2262 50.9213 78.9416 50.625 79.6875 50.625H95.625V46.875H86.25V43.125H82.5V46.875H79.6875C77.947 46.875 76.2778 47.5664 75.0471 48.7971C73.8164 50.0278 73.125 51.697 73.125 53.4375C73.125 55.178 73.8164 56.8472 75.0471 58.0779C76.2778 59.3086 77.947 60 79.6875 60H89.0625C89.8084 60 90.5238 60.2963 91.0512 60.8238C91.5787 61.3512 91.875 62.0666 91.875 62.8125C91.875 63.5584 91.5787 64.2738 91.0512 64.8012C90.5238 65.3287 89.8084 65.625 89.0625 65.625H73.125V69.375H82.5V73.125Z" fill="#FB525E"/>
<path d="M28.125 28.125H24.375V31.875H28.125V28.125Z" fill="#FB525E"/>
<path d="M43.125 28.125H39.375V31.875H43.125V28.125Z" fill="#FB525E"/>
<path d="M39.375 40.3125H35.625C35.625 40.643 34.9132 41.25 33.75 41.25C32.5868 41.25 31.875 40.643 31.875 40.3125H28.125C28.125 42.941 30.5958 45 33.75 45C36.9042 45 39.375 42.941 39.375 40.3125Z" fill="#FB525E"/>
<path d="M118.125 76.875H110.142C114.701 70.6197 116.825 62.9175 116.116 55.2096C115.407 47.5018 111.913 40.3164 106.289 34.998L103.711 37.7194C109.031 42.7481 112.176 49.6557 112.477 56.97C112.777 64.2842 110.209 71.4267 105.32 76.875H99.9415C103.803 73.6737 106.582 69.3595 107.902 64.5206C109.221 59.6817 109.016 54.5536 107.315 49.8355C105.613 45.1173 102.498 41.0388 98.3938 38.1559C94.2895 35.273 89.396 33.7261 84.3804 33.7261C79.3648 33.7261 74.4713 35.273 70.367 38.1559C66.2627 41.0388 63.1474 45.1173 61.4458 49.8355C59.7443 54.5536 59.5393 59.6817 60.8589 64.5206C62.1784 69.3595 64.9582 73.6737 68.8193 76.875H63.4301C58.8073 71.7167 56.2518 65.0333 56.2536 58.1067C56.2554 51.1801 58.8144 44.498 63.4398 39.3421C68.0652 34.1863 74.4314 30.9196 81.3172 30.1687C88.2029 29.4179 95.1235 31.2356 100.751 35.2734L102.94 32.2282C97.5361 28.3293 91.0387 26.237 84.375 26.25C66.7992 26.25 52.5 40.549 52.5 58.125C52.5 59.1998 52.5532 60.2668 52.6596 61.3259L45.5693 58.0547L42.5953 50.1227L45.7423 48.529C47.2141 47.7891 48.4506 46.6538 49.3131 45.2503C50.1756 43.8468 50.6299 42.2307 50.625 40.5834V37.5H53.4375C55.1774 37.498 56.8454 36.806 58.0757 35.5757C59.306 34.3454 59.998 32.6774 60 30.9375V27.1875C59.9991 25.9458 59.6464 24.7297 58.9827 23.6803C58.319 22.6308 57.3715 21.7909 56.25 21.2578V15.9375C56.2452 11.7121 54.5646 7.66109 51.5767 4.67326C48.5889 1.68544 44.5379 0.00477656 40.3125 0L27.1875 0C22.9621 0.00477656 18.9111 1.68544 15.9233 4.67326C12.9354 7.66109 11.2548 11.7121 11.25 15.9375V21.2578C10.1285 21.7909 9.18103 22.6308 8.51733 23.6803C7.85364 24.7297 7.5009 25.9458 7.5 27.1875V30.9375C7.50199 32.6774 8.19403 34.3454 9.4243 35.5757C10.6546 36.806 12.3226 37.498 14.0625 37.5H16.875V42.0907C16.8709 43.314 17.2096 44.5139 17.8527 45.5545C18.4958 46.5951 19.4175 47.4347 20.5134 47.9782L24.8885 50.1656L21.9307 58.0547L12.3391 62.4804L13.9109 65.8852L20.8155 62.6977C20.9064 62.8839 21.0276 63.0537 21.1741 63.2002L32.4241 74.4502C32.5983 74.6243 32.805 74.7624 33.0324 74.8566C33.2599 74.9509 33.5038 74.9994 33.75 74.9994C33.9962 74.9994 34.2401 74.9509 34.4676 74.8566C34.695 74.7624 34.9017 74.6243 35.0759 74.4502L46.3259 63.2002C46.4723 63.0536 46.5936 62.8838 46.6847 62.6977L53.4375 65.8148C54.4278 69.8021 56.1844 73.5587 58.6095 76.875H46.875C46.3777 76.875 45.9008 77.0725 45.5492 77.4242C45.1975 77.7758 45 78.2527 45 78.75V86.25C45 86.7473 45.1975 87.2242 45.5492 87.5758C45.9008 87.9275 46.3777 88.125 46.875 88.125H48.75V101.25H18.75V84.375H15V93.75H3.75V72.375C3.75084 71.8378 3.90507 71.312 4.19454 70.8594C4.48402 70.4068 4.8967 70.0463 5.38406 69.8203L10.1609 67.6172L8.58914 64.2122L3.81258 66.417C2.67588 66.9442 1.71328 67.7849 1.03791 68.8403C0.362539 69.8957 0.00246428 71.122 0 72.375L0 113.438C0.00198503 115.177 0.694027 116.845 1.9243 118.076C3.15458 119.306 4.82263 119.998 6.5625 120H114.375C114.872 120 115.349 119.802 115.701 119.451C116.052 119.099 116.25 118.622 116.25 118.125V108.75H112.5V116.25H73.3519C74.4257 114.745 75.002 112.942 75 111.094V110.156C75 109.685 74.9629 109.215 74.8889 108.75H101.25C101.747 108.75 102.224 108.552 102.576 108.201C102.927 107.849 103.125 107.372 103.125 106.875V95.625C103.125 95.1277 102.927 94.6508 102.576 94.2992C102.224 93.9475 101.747 93.75 101.25 93.75H67.5C67.0027 93.75 66.5258 93.9475 66.1742 94.2992C65.8225 94.6508 65.625 95.1277 65.625 95.625V101.25H60V98.4375C59.998 96.6976 59.306 95.0296 58.0757 93.7993C56.8454 92.569 55.1774 91.877 53.4375 91.875H52.5V88.125H112.5V105H116.25V88.125H118.125C118.622 88.125 119.099 87.9275 119.451 87.5758C119.802 87.2242 120 86.7473 120 86.25V78.75C120 78.2527 119.802 77.7758 119.451 77.4242C119.099 77.0725 118.622 76.875 118.125 76.875ZM56.25 30.9375C56.2492 31.6832 55.9526 32.3981 55.4253 32.9253C54.8981 33.4526 54.1832 33.7492 53.4375 33.75H50.625V24.375H53.4375C54.1832 24.3758 54.8981 24.6724 55.4253 25.1997C55.9526 25.7269 56.2492 26.4418 56.25 27.1875V30.9375ZM27.1875 3.75H40.3125C43.5437 3.75366 46.6415 5.03887 48.9263 7.32368C51.2111 9.60849 52.4963 12.7063 52.5 15.9375V20.625H46.0615L40.9828 12.1603C40.8162 11.8826 40.5806 11.6528 40.2988 11.4932C40.017 11.3336 39.6987 11.2498 39.3749 11.2498C39.0511 11.2498 38.7327 11.3336 38.451 11.4932C38.1692 11.6528 37.9335 11.8826 37.767 12.1603L37.6029 12.4315C36.0976 14.9246 33.9757 16.9881 31.4415 18.4231C28.9073 19.8582 26.0463 20.6165 23.134 20.625H15V15.9375C15.0037 12.7063 16.2889 9.60849 18.5737 7.32368C20.8585 5.03887 23.9563 3.75366 27.1875 3.75ZM14.0625 33.75C13.3168 33.7492 12.6019 33.4526 12.0747 32.9253C11.5474 32.3981 11.2508 31.6832 11.25 30.9375V27.1875C11.2508 26.4418 11.5474 25.7269 12.0747 25.1997C12.6019 24.6724 13.3168 24.3758 14.0625 24.375H16.875V33.75H14.0625ZM20.625 42.0907V24.375H23.1328C26.2327 24.3657 29.2912 23.6619 32.0833 22.3153C34.8755 20.9688 37.3305 19.0137 39.2679 16.5938L43.391 23.4656C43.5578 23.7433 43.7937 23.973 44.0757 24.1323C44.3577 24.2917 44.6761 24.3753 45 24.375H46.875V40.5834C46.8778 41.5372 46.6148 42.4728 46.1154 43.2854C45.6161 44.0979 44.9001 44.7552 44.048 45.1835L35.0074 49.7616C34.6154 49.9589 34.1828 50.0623 33.744 50.0634C33.3051 50.0645 32.872 49.9634 32.479 49.7681L22.1909 44.625C21.7191 44.3911 21.3223 44.0297 21.0455 43.5818C20.7688 43.1338 20.6231 42.6173 20.625 42.0907ZM33.75 70.4735L24.6797 61.4032L28.2612 51.8522L30.8018 53.1225C31.7187 53.5785 32.7293 53.8146 33.7534 53.812C34.7775 53.8094 35.7869 53.5682 36.7015 53.1075L39.2295 51.8273L42.8203 61.403L33.75 70.4735ZM99.375 97.5V105H73.3519C72.3538 103.598 70.9732 102.514 69.375 101.876V97.5H99.375ZM56.25 98.4375V103.125C56.25 103.622 56.4475 104.099 56.7992 104.451C57.1508 104.802 57.6277 105 58.125 105H66.0938C67.4608 105.002 68.7714 105.545 69.7381 106.512C70.7047 107.479 71.2485 108.789 71.25 110.156V111.094C71.2485 112.461 70.7047 113.771 69.7381 114.738C68.7714 115.705 67.4608 116.248 66.0938 116.25H6.5625C5.81683 116.249 5.10192 115.953 4.57465 115.425C4.04738 114.898 3.75081 114.183 3.75 113.438V97.5H15V103.125C15 103.622 15.1975 104.099 15.5492 104.451C15.9008 104.802 16.3777 105 16.875 105H50.625C51.1223 105 51.5992 104.802 51.9508 104.451C52.3025 104.099 52.5 103.622 52.5 103.125V95.625H53.4375C54.1832 95.6258 54.8981 95.9224 55.4253 96.4497C55.9526 96.9769 56.2492 97.6918 56.25 98.4375ZM63.75 58.125C63.7498 54.4223 64.7464 50.7877 66.6351 47.6029C68.5239 44.4181 71.2352 41.8006 74.4844 40.0249C77.7337 38.2493 81.401 37.3811 85.1014 37.5116C88.8019 37.642 92.399 38.7662 95.5152 40.7661C98.6313 42.7661 101.152 45.5681 102.812 48.8779C104.471 52.1878 105.21 55.8834 104.949 59.577C104.688 63.2705 103.437 66.8257 101.329 69.8694C99.2201 72.9131 96.331 75.3329 92.9646 76.875H75.742L75.7495 76.8588C72.1747 75.2009 69.1469 72.5577 67.0215 69.2394C64.8961 65.9212 63.7612 62.0656 63.75 58.125ZM116.25 84.375H48.75V80.625H116.25V84.375Z" fill="#FB525E"/>
</svg>
