<svg width="240" height="133" viewBox="0 0 240 133" fill="none" xmlns="http://www.w3.org/2000/svg">
<path d="M226.099 1.09998H13.8992C6.89922 1.09998 1.19922 6.79998 1.19922 13.8V118.3C1.19922 125.3 6.89922 131 13.8992 131H226.099C233.099 131 238.799 125.3 238.799 118.3V13.9C238.899 6.89997 233.099 1.09998 226.099 1.09998Z" fill="white"/>
<path d="M226.1 132.2H13.9C10.2 132.2 6.7 130.7 4.1 128.1C1.5 125.6 0 122 0 118.3V13.9C0 10.2 1.5 6.7 4.1 4.1C6.7 1.5 10.2 0 13.9 0H226.1C229.8 0 233.3 1.5 235.9 4.1C238.5 6.7 240 10.2 240 13.9V118.4C240 122.1 238.5 125.6 235.9 128.2C233.3 130.8 229.8 132.2 226.1 132.2ZM13.9 2.3C10.8 2.3 7.9 3.5 5.7 5.7C3.5 7.9 2.3 10.8 2.3 13.9V118.4C2.3 121.5 3.5 124.4 5.7 126.6C7.9 128.8 10.8 130 13.9 130H226.1C229.2 130 232.1 128.8 234.3 126.6C236.5 124.4 237.7 121.5 237.7 118.4V13.9C237.7 10.8 236.5 7.9 234.3 5.7C232.1 3.5 229.2 2.3 226.1 2.3H13.9Z" fill="#FB525E"/>
<path d="M25.8992 18.5L20.1992 21.7V15.4L25.8992 12.3V18.5Z" fill="#0E0E0E"/>
<path d="M14.5 18.5L20.2 21.7V15.4L14.5 12.3V18.5Z" fill="#FB525E"/>
<path d="M14.5 12.2L20.2 15.4L25.9 12.2L20.2 9L14.5 12.2Z" fill="#CCCCCC"/>
<path d="M29.4 12.3V14L28 12.3H27.5V15.1H28.1V13.4L29.5 15.1H30V12.3H29.4Z" fill="#0E0E0E"/>
<path d="M31.2992 14.5V13.9H32.5992V13.4H31.2992V12.8H32.7992V12.3H30.6992V15H32.8992V14.5H31.2992Z" fill="#0E0E0E"/>
<path d="M36.8996 12.3L36.2996 14.3L35.6996 12.3H34.9996L34.3996 14.3L33.7996 12.3H33.0996L33.9996 15.1H34.6996L35.2996 13.2L35.8996 15.1H36.5996L37.4996 12.3H36.8996Z" fill="#0E0E0E"/>
<path d="M38.7992 15.1C39.5992 15.1 39.9992 14.7 39.9992 14.2C39.9992 13.2 38.3992 13.5 38.3992 13C38.3992 12.8 38.4992 12.7 38.8992 12.7C39.1992 12.7 39.3992 12.8 39.6992 12.9L39.8992 12.4C39.5992 12.2 39.2992 12.1 38.8992 12.2C38.0992 12.2 37.6992 12.6 37.6992 13.1C37.6992 14.1 39.2992 13.8 39.2992 14.3C39.2992 14.5 39.0992 14.6 38.7992 14.6C38.4992 14.6 38.1992 14.5 37.8992 14.3L37.6992 14.8C37.9992 15 38.3992 15.1 38.7992 15.1Z" fill="#0E0E0E"/>
<path d="M28.7 15.7H27.5V18.5H28.1V17.7H28.7C29.5 17.7 29.9 17.3 29.9 16.7C29.9 16.1 29.4 15.7 28.7 15.7ZM28.7 17.2H28.2V16.2H28.7C29.1 16.2 29.3 16.4 29.3 16.7C29.3 17 29 17.2 28.7 17.2Z" fill="#0E0E0E"/>
<path d="M32.8008 18.5L32.2008 17.6C32.4008 17.5 32.5008 17.4 32.6008 17.3C32.7008 17.2 32.8008 17 32.7008 16.8C32.7008 16.2 32.2008 15.8 31.5008 15.8H30.3008V18.6H31.0008V17.8H31.6008L32.1008 18.6L32.8008 18.5ZM32.1008 16.7C32.1008 17 31.9008 17.2 31.5008 17.2H31.0008V16.2H31.5008C31.9008 16.2 32.1008 16.4 32.1008 16.7Z" fill="#0E0E0E"/>
<path d="M34.5992 18.5C34.8992 18.5 35.1992 18.4 35.3992 18.2C35.5992 18 35.7992 17.8 35.8992 17.5C35.9992 17.2 35.9992 16.9 35.8992 16.7C35.7992 16.4 35.6992 16.2 35.4992 16C35.2992 15.8 34.9992 15.7 34.7992 15.6C34.4992 15.6 34.1992 15.6 33.9992 15.7C33.6992 15.8 33.4992 16 33.3992 16.2C33.1992 16.4 33.1992 16.7 33.1992 17C33.1992 17.2 33.1992 17.4 33.2992 17.6C33.3992 17.8 33.4992 17.9 33.5992 18.1C33.6992 18.2 33.8992 18.3 34.0992 18.4C34.1992 18.5 34.3992 18.5 34.5992 18.5ZM34.5992 18C34.3992 18 34.1992 18 34.0992 17.9C33.8992 17.8 33.7992 17.7 33.7992 17.5C33.6992 17.3 33.6992 17.2 33.6992 17C33.6992 16.8 33.7992 16.7 33.8992 16.5C33.9992 16.3 34.1992 16.3 34.3992 16.2C34.5992 16.2 34.7992 16.2 34.8992 16.2C35.0992 16.3 35.1992 16.4 35.2992 16.5C35.3992 16.6 35.4992 16.8 35.4992 17C35.4992 17.1 35.4992 17.2 35.3992 17.3C35.3992 17.4 35.2992 17.5 35.1992 17.6C35.0992 17.7 34.9992 17.8 34.8992 17.8C34.8992 17.9 34.6992 18 34.5992 18Z" fill="#0E0E0E"/>
<path d="M38.6996 16.2V15.7H36.5996V18.5H37.1996V17.5H38.4996V17H37.1996V16.2H38.6996Z" fill="#0E0E0E"/>
<path d="M39.1992 18.5H39.7992V15.7H39.1992V18.5Z" fill="#0E0E0E"/>
<path d="M40.9996 18.5H41.5996V16.2H42.4996V15.7H40.0996V16.2H40.9996V18.5Z" fill="#0E0E0E"/>
<path d="M220.501 55.6H48.8008V70.7H220.501V55.6Z" stroke="#CCCCCC" stroke-miterlimit="10"/>
<path d="M220.501 81.9H48.8008V97H220.501V81.9Z" stroke="#CCCCCC" stroke-miterlimit="10"/>
<path d="M220.501 107.1H48.8008V122.2H220.501V107.1Z" stroke="#CCCCCC" stroke-miterlimit="10"/>
<path d="M54.5996 22.9C55.1996 23.2 55.5996 23.5 55.8996 24C56.1996 24.5 56.3996 25 56.3996 25.7C56.3996 26.4 56.1996 26.9 55.8996 27.4C55.5996 27.9 55.0996 28.2 54.5996 28.5C53.9996 28.8 53.2996 28.9 52.5996 28.9H51.3996V31H48.5996V22.6H52.5996C53.2996 22.5 53.9996 22.7 54.5996 22.9ZM53.1996 26.4C53.3996 26.2 53.4996 26 53.4996 25.7C53.4996 25.4 53.3996 25.1 53.1996 25C52.9996 24.8 52.6996 24.7 52.2996 24.7H51.2996V26.7H52.2996C52.6996 26.7 52.9996 26.6 53.1996 26.4Z" fill="black"/>
<path d="M64.2012 28.8V30.9H57.2012V22.5H64.0012V24.6H60.0012V25.6H63.6012V27.6H60.0012V28.7H64.2012V28.8Z" fill="black"/>
<path d="M71.7008 24.7H68.1008V30.9H65.3008V22.5H71.7008V24.7Z" fill="black"/>
<path d="M72.6996 22.5H75.4996V26.9L78.3996 22.5H80.9996V30.9H78.1996V26.5L75.2996 30.9H72.5996V22.5H72.6996Z" fill="black"/>
<path d="M84.3 30.6C83.6 30.2 83 29.7 82.6 29C82.2 28.3 82 27.6 82 26.7C82 25.9 82.2 25.1 82.6 24.4C83 23.7 83.6 23.2 84.3 22.8C85 22.4 85.8 22.2 86.7 22.2C87.5 22.2 88.2 22.3 88.9 22.6C89.6 22.9 90.1 23.3 90.5 23.8L88.7 25.4C88.2 24.7 87.6 24.4 86.9 24.4C86.3 24.4 85.8 24.6 85.5 25C85.2 25.4 85 25.9 85 26.5C85 27.1 85.2 27.7 85.5 28C85.8 28.3 86.3 28.6 86.9 28.6C87.6 28.6 88.2 28.3 88.7 27.6L90.5 29.2C90.1 29.7 89.6 30.2 88.9 30.4C88.3 30.7 87.5 30.8 86.7 30.8C85.8 31.1 85 30.9 84.3 30.6Z" fill="black"/>
<path d="M98.4012 24.7H96.0012V30.9H93.2012V24.7H90.7012V22.5H98.4012V24.7Z" fill="black"/>
<path d="M105.5 22.9C106.1 23.2 106.5 23.5 106.8 24C107.1 24.5 107.3 25 107.3 25.7C107.3 26.4 107.1 26.9 106.8 27.4C106.5 27.9 106 28.2 105.5 28.5C104.9 28.8 104.2 28.9 103.5 28.9H102.3V31H99.5V22.6H103.5C104.2 22.5 104.9 22.7 105.5 22.9ZM104.1 26.4C104.3 26.2 104.4 26 104.4 25.7C104.4 25.4 104.3 25.1 104.1 25C103.9 24.8 103.6 24.7 103.2 24.7H102.2V26.7H103.2C103.6 26.7 103.9 26.6 104.1 26.4Z" fill="black"/>
<path d="M113.6 29.5H110.4L109.8 31H107L110.7 22.6H113.5L117.2 31H114.3L113.6 29.5ZM112.8 27.4L112 25.3L111.2 27.4H112.8Z" fill="black"/>
<path d="M127.2 28.7V32.5H124.6V30.9H117.9V22.5H120.7V28.7H123.4V22.5H126.2V28.7H127.2Z" fill="black"/>
<path d="M128.201 22.5H131.001V26.9L133.901 22.5H136.601V30.9H133.801V26.5L130.901 30.9H128.201V22.5Z" fill="black"/>
<path d="M145.4 22.5V30.9H142.6V28.9H141.8L140.5 30.9H137.5L139.2 28.5C138.7 28.2 138.2 27.9 137.9 27.4C137.6 26.9 137.5 26.4 137.5 25.7C137.5 25 137.7 24.5 138 24C138.3 23.5 138.8 23.1 139.4 22.9C140 22.6 140.7 22.5 141.5 22.5H145.4ZM140.4 25.7C140.4 26.4 140.8 26.8 141.5 26.8H142.6V24.7H141.5C140.8 24.7 140.4 25.1 140.4 25.7Z" fill="black"/>
<path d="M158.7 22.5V30.9H155.9V27.8H153.3V30.9H150.5V22.5H153.3V25.5H155.9V22.5H158.7Z" fill="black"/>
<path d="M162.101 30.6C161.401 30.2 160.801 29.7 160.401 29C160.001 28.3 159.801 27.6 159.801 26.7C159.801 25.9 160.001 25.1 160.401 24.4C160.801 23.7 161.401 23.2 162.101 22.8C162.801 22.4 163.601 22.2 164.501 22.2C165.401 22.2 166.201 22.4 166.901 22.8C167.601 23.2 168.201 23.7 168.601 24.4C169.001 25.1 169.201 25.8 169.201 26.7C169.201 27.5 169.001 28.3 168.601 29C168.201 29.7 167.601 30.2 166.901 30.6C166.201 31 165.401 31.2 164.501 31.2C163.601 31.1 162.801 30.9 162.101 30.6ZM165.401 28.6C165.701 28.4 165.901 28.2 166.101 27.9C166.301 27.6 166.401 27.2 166.401 26.8C166.401 26.4 166.301 26 166.101 25.7C165.901 25.4 165.701 25.1 165.401 25C165.101 24.9 164.801 24.7 164.401 24.7C164.001 24.7 163.701 24.8 163.401 25C163.101 25.2 162.901 25.4 162.701 25.7C162.501 26 162.401 26.4 162.401 26.8C162.401 27.2 162.501 27.6 162.701 27.9C162.901 28.2 163.101 28.5 163.401 28.6C163.701 28.8 164.001 28.9 164.401 28.9C164.801 28.8 165.201 28.7 165.401 28.6Z" fill="black"/>
<path d="M177.801 27.3C178.001 27.6 178.201 28 178.201 28.5C178.201 29.3 177.901 29.8 177.301 30.3C176.701 30.8 175.901 31 174.801 31H170.301V22.6H174.601C175.601 22.6 176.401 22.8 177.001 23.2C177.601 23.6 177.901 24.1 177.901 24.8C177.901 25.2 177.801 25.6 177.601 25.9C177.401 26.2 177.101 26.5 176.801 26.6C177.201 26.7 177.501 26.9 177.801 27.3ZM173.001 25.8H174.201C174.701 25.8 174.901 25.6 174.901 25.2C174.901 24.8 174.701 24.6 174.201 24.6H173.001V25.8ZM175.301 28.3C175.301 27.9 175.101 27.7 174.601 27.7H173.001V29H174.601C175.101 29 175.301 28.7 175.301 28.3Z" fill="black"/>
<path d="M181.001 30.6C180.301 30.2 179.701 29.7 179.301 29C178.901 28.3 178.701 27.6 178.701 26.7C178.701 25.9 178.901 25.1 179.301 24.4C179.701 23.7 180.301 23.2 181.001 22.8C181.701 22.4 182.501 22.2 183.401 22.2C184.301 22.2 185.101 22.4 185.801 22.8C186.501 23.2 187.101 23.7 187.501 24.4C187.901 25.1 188.101 25.8 188.101 26.7C188.101 27.5 187.901 28.3 187.501 29C187.101 29.7 186.501 30.2 185.801 30.6C185.101 31 184.301 31.2 183.401 31.2C182.501 31.1 181.701 30.9 181.001 30.6ZM184.401 28.6C184.701 28.4 184.901 28.2 185.101 27.9C185.301 27.6 185.401 27.2 185.401 26.8C185.401 26.4 185.301 26 185.101 25.7C184.901 25.4 184.701 25.1 184.401 25C184.101 24.9 183.801 24.7 183.401 24.7C183.001 24.7 182.701 24.8 182.401 25C182.101 25.2 181.901 25.4 181.701 25.7C181.501 26 181.401 26.4 181.401 26.8C181.401 27.2 181.501 27.6 181.701 27.9C181.901 28.2 182.101 28.5 182.401 28.6C182.701 28.8 183.001 28.9 183.401 28.9C183.801 28.8 184.101 28.7 184.401 28.6Z" fill="black"/>
<path d="M195.601 24.7H192.001V30.9H189.201V22.5H195.601V24.7Z" fill="black"/>
<path d="M197.8 30.6C197.1 30.2 196.5 29.7 196.1 29C195.7 28.3 195.5 27.6 195.5 26.7C195.5 25.9 195.7 25.1 196.1 24.4C196.5 23.7 197.1 23.2 197.8 22.8C198.5 22.4 199.3 22.2 200.2 22.2C201.1 22.2 201.9 22.4 202.6 22.8C203.3 23.2 203.9 23.7 204.3 24.4C204.7 25.1 204.9 25.8 204.9 26.7C204.9 27.5 204.7 28.3 204.3 29C203.9 29.7 203.3 30.2 202.6 30.6C201.9 31 201.1 31.2 200.2 31.2C199.3 31.1 198.5 30.9 197.8 30.6ZM201.2 28.6C201.5 28.4 201.7 28.2 201.9 27.9C202.1 27.6 202.2 27.2 202.2 26.8C202.2 26.4 202.1 26 201.9 25.7C201.7 25.4 201.5 25.1 201.2 25C200.9 24.9 200.6 24.7 200.2 24.7C199.8 24.7 199.5 24.8 199.2 25C198.9 25.2 198.7 25.4 198.5 25.7C198.3 26 198.2 26.4 198.2 26.8C198.2 27.2 198.3 27.6 198.5 27.9C198.7 28.2 198.9 28.5 199.2 28.6C199.5 28.8 199.8 28.9 200.2 28.9C200.6 28.8 200.9 28.7 201.2 28.6Z" fill="black"/>
<path d="M56.6004 36.9V45.3H53.8004V39.1H51.2004V45.3H48.4004V36.9H56.6004Z" fill="black"/>
<path d="M59.8996 45C59.1996 44.6 58.5996 44.1 58.1996 43.4C57.7996 42.7 57.5996 42 57.5996 41.1C57.5996 40.3 57.7996 39.5 58.1996 38.8C58.5996 38.1 59.1996 37.6 59.8996 37.2C60.5996 36.8 61.3996 36.6 62.2996 36.6C63.1996 36.6 63.9996 36.8 64.6996 37.2C65.3996 37.6 65.9996 38.1 66.3996 38.8C66.7996 39.5 66.9996 40.2 66.9996 41.1C66.9996 41.9 66.7996 42.7 66.3996 43.4C65.9996 44.1 65.3996 44.6 64.6996 45C63.9996 45.4 63.1996 45.6 62.2996 45.6C61.4996 45.5 60.6996 45.3 59.8996 45ZM63.2996 43C63.5996 42.8 63.7996 42.6 63.9996 42.3C64.1996 42 64.2996 41.6 64.2996 41.2C64.2996 40.8 64.1996 40.4 63.9996 40.1C63.7996 39.8 63.5996 39.5 63.2996 39.4C62.9996 39.2 62.6996 39.1 62.2996 39.1C61.8996 39.1 61.5996 39.2 61.2996 39.4C60.9996 39.6 60.7996 39.8 60.5996 40.1C60.3996 40.4 60.2996 40.8 60.2996 41.2C60.2996 41.6 60.3996 42 60.5996 42.3C60.7996 42.6 60.9996 42.9 61.2996 43C61.5996 43.2 61.8996 43.3 62.2996 43.3C62.6996 43.3 62.9996 43.1 63.2996 43Z" fill="black"/>
<path d="M76.1004 36.9V45.3H73.3004V39.1H71.4004V40.1C71.4004 41.3 71.3004 42.3 71.1004 43.1C70.9004 43.9 70.7004 44.5 70.3004 44.9C69.9004 45.3 69.3004 45.5 68.6004 45.5C68.2004 45.5 67.8004 45.4 67.4004 45.3L67.5004 43C67.6004 43 67.7004 43 67.8004 43C68.1004 43 68.3004 42.9 68.5004 42.6C68.7004 42.4 68.8004 42 68.8004 41.6C68.9004 41.2 68.9004 40.7 68.9004 40L69.0004 36.7H76.1004V36.9Z" fill="black"/>
<path d="M84.5 40.2C85.1 40.7 85.4 41.4 85.4 42.3C85.4 43.3 85.1 44 84.4 44.6C83.8 45.1 82.9 45.4 81.7 45.4H77.5V37H80.3V39.6H82C83.2 39.5 84 39.7 84.5 40.2ZM82.3 43.1C82.5 42.9 82.6 42.7 82.6 42.3C82.6 41.7 82.3 41.5 81.6 41.5H80.4V43.4H81.6C81.8 43.4 82.1 43.3 82.3 43.1Z" fill="black"/>
<path d="M92.8 41.8C93.1 42.2 93.2 42.6 93.2 43C93.2 43.5 93 44 92.6 44.4C92.2 44.8 91.7 45.1 91.1 45.3C90.5 45.5 89.8 45.6 89 45.6C87.8 45.6 86.6 45.4 85.5 44.9L86.3 42.9C86.7 43.1 87.1 43.2 87.5 43.3C87.9 43.4 88.3 43.4 88.7 43.4C89.2 43.4 89.5 43.3 89.8 43.2C90.1 43.1 90.2 42.9 90.2 42.6C90.2 42.3 89.9 42.1 89.4 42.1H87.1V40.1H89.1C89.3 40.1 89.5 40.1 89.6 40C89.7 39.9 89.8 39.8 89.8 39.6C89.8 39.4 89.7 39.2 89.5 39.1C89.3 39 89 38.9 88.6 38.9C88.3 38.9 87.9 38.9 87.5 39C87.1 39.1 86.7 39.2 86.4 39.4L85.6 37.3C86.5 36.9 87.5 36.7 88.6 36.7C89.3 36.7 90 36.8 90.6 37C91.2 37.2 91.7 37.5 92.1 37.9C92.5 38.3 92.7 38.7 92.7 39.2C92.7 39.6 92.6 39.9 92.4 40.2C92.2 40.5 91.9 40.7 91.6 40.9C92.2 41.1 92.5 41.4 92.8 41.8Z" fill="black"/>
<path d="M96.0012 45C95.3012 44.6 94.7012 44.1 94.3012 43.4C93.9012 42.7 93.7012 42 93.7012 41.1C93.7012 40.3 93.9012 39.5 94.3012 38.8C94.7012 38.1 95.3012 37.6 96.0012 37.2C96.7012 36.8 97.5012 36.6 98.4012 36.6C99.3012 36.6 100.101 36.8 100.801 37.2C101.501 37.6 102.101 38.1 102.501 38.8C102.901 39.5 103.101 40.2 103.101 41.1C103.101 41.9 102.901 42.7 102.501 43.4C102.101 44.1 101.501 44.6 100.801 45C100.101 45.4 99.3012 45.6 98.4012 45.6C97.5012 45.5 96.7012 45.3 96.0012 45ZM99.4012 43C99.7012 42.8 99.9012 42.6 100.101 42.3C100.301 42 100.401 41.6 100.401 41.2C100.401 40.8 100.301 40.4 100.101 40.1C99.9012 39.8 99.7012 39.5 99.4012 39.4C99.1012 39.2 98.8012 39.1 98.4012 39.1C98.0012 39.1 97.7012 39.2 97.4012 39.4C97.1012 39.6 96.9012 39.8 96.7012 40.1C96.5012 40.4 96.4012 40.8 96.4012 41.2C96.4012 41.6 96.5012 42 96.7012 42.3C96.9012 42.6 97.1012 42.9 97.4012 43C97.7012 43.2 98.0012 43.3 98.4012 43.3C98.8012 43.3 99.1012 43.1 99.4012 43Z" fill="black"/>
<path d="M111.701 41.7C111.901 42 112.101 42.4 112.101 42.9C112.101 43.7 111.801 44.2 111.201 44.7C110.601 45.1 109.801 45.4 108.701 45.4H104.201V37H108.501C109.501 37 110.301 37.2 110.901 37.6C111.501 38 111.801 38.5 111.801 39.2C111.801 39.6 111.701 40 111.501 40.3C111.301 40.6 111.001 40.9 110.701 41C111.101 41.1 111.501 41.3 111.701 41.7ZM107.001 40.2H108.201C108.701 40.2 108.901 40 108.901 39.6C108.901 39.2 108.701 39 108.201 39H107.001V40.2ZM109.301 42.7C109.301 42.3 109.101 42.1 108.601 42.1H107.001V43.4H108.601C109.001 43.4 109.301 43.1 109.301 42.7Z" fill="black"/>
<path d="M119.1 43.9H115.9L115.3 45.4H112.4L116.1 37H118.9L122.6 45.4H119.7L119.1 43.9ZM118.3 41.8L117.5 39.7L116.7 41.8H118.3Z" fill="black"/>
<path d="M130.101 39.1H127.601V45.3H124.801V39.1H122.301V36.9H130.001V39.1H130.101Z" fill="black"/>
<path d="M138 43.2V45.3H131V36.9H137.8V39H133.8V40H137.4V42H133.8V43.1H138V43.2Z" fill="black"/>
<path d="M147.3 36.9V45.3H144.5V39.1H142.6V40.1C142.6 41.3 142.5 42.3 142.3 43.1C142.1 43.9 141.9 44.5 141.5 44.9C141.1 45.3 140.5 45.5 139.8 45.5C139.4 45.5 139 45.4 138.6 45.3L138.7 43C138.8 43 138.9 43 139 43C139.3 43 139.5 42.9 139.7 42.6C139.9 42.4 140 42 140 41.6C140.1 41.2 140.1 40.7 140.1 40L140.2 36.7H147.3V36.9Z" fill="black"/>
<path d="M156.201 36.9V45.3H153.401V43.3H152.601L151.301 45.3H148.301L150.001 42.9C149.501 42.6 149.001 42.3 148.701 41.8C148.401 41.3 148.301 40.8 148.301 40.1C148.301 39.4 148.501 38.9 148.801 38.4C149.101 37.9 149.601 37.5 150.201 37.3C150.801 37 151.501 36.9 152.301 36.9H156.201ZM151.201 40.1C151.201 40.8 151.601 41.2 152.301 41.2H153.401V39.1H152.301C151.601 39.1 151.201 39.5 151.201 40.1Z" fill="black"/>
</svg>
