<svg width="240" height="133" viewBox="0 0 240 133" fill="none" xmlns="http://www.w3.org/2000/svg">
<g clip-path="url(#clip0)">
<path d="M226.112 1.14655H13.8879C6.851 1.14655 1.14648 6.85106 1.14648 13.8879V118.341C1.14648 125.378 6.851 131.083 13.8879 131.083H226.112C233.149 131.083 238.853 125.378 238.853 118.341V13.8879C238.853 6.85106 233.149 1.14655 226.112 1.14655Z" fill="white"/>
<path d="M226.112 132.229H13.8879C10.2058 132.225 6.67575 130.761 4.07214 128.157C1.46853 125.554 0.00404622 122.023 0 118.341L0 13.8879C0.00404622 10.2058 1.46853 6.67575 4.07214 4.07214C6.67575 1.46853 10.2058 0.00404622 13.8879 0L226.112 0C229.794 0.00404622 233.324 1.46853 235.928 4.07214C238.531 6.67575 239.996 10.2058 240 13.8879V118.341C239.996 122.023 238.531 125.554 235.928 128.157C233.324 130.761 229.794 132.225 226.112 132.229ZM13.8879 2.29299C10.8134 2.29502 7.86533 3.51727 5.6913 5.6913C3.51727 7.86533 2.29502 10.8134 2.29299 13.8879V118.341C2.29502 121.416 3.51727 124.364 5.6913 126.538C7.86533 128.712 10.8134 129.934 13.8879 129.936H226.112C229.187 129.934 232.135 128.712 234.309 126.538C236.483 124.364 237.705 121.416 237.707 118.341V13.8879C237.705 10.8134 236.483 7.86533 234.309 5.6913C232.135 3.51727 229.187 2.29502 226.112 2.29299H13.8879Z" fill="#FB525E"/>
<path d="M25.8572 18.5274L20.2012 21.6841V15.3631L25.8572 12.2293V18.5274Z" fill="#0E0E0E"/>
<path d="M14.5234 18.5274L20.1795 21.6841V15.3631L14.5234 12.2293V18.5274Z" fill="#FB525E"/>
<path d="M14.5234 12.2293L20.1795 15.386L25.8585 12.2293L20.2024 9.07263L14.5234 12.2293Z" fill="#CCCCCC"/>
<path d="M29.4112 12.2751V13.9643L28.0354 12.2751H27.5156V15.065H28.15V13.3681L29.5335 15.0573H30.0609V12.2751H29.4112Z" fill="#0E0E0E"/>
<path d="M31.3375 14.5223V13.8803H32.6216V13.3758H31.3375V12.772H32.7974V12.2523H30.7031V15.0421H32.8662V14.5223H31.3375Z" fill="#0E0E0E"/>
<path d="M36.9022 12.2751L36.2526 14.2471L35.6182 12.2751H35.022L34.3952 14.2318L33.7685 12.2751H33.1035L34.0131 15.065H34.701L35.3277 13.1771L35.9392 15.065H36.6271L37.5366 12.2751H36.9022Z" fill="#0E0E0E"/>
<path d="M38.7816 15.1108C39.5459 15.1108 39.9587 14.7134 39.9587 14.2471C39.9587 13.2229 38.3459 13.5745 38.3459 13.0624C38.3459 12.8866 38.4912 12.7414 38.8733 12.7414C39.1432 12.7465 39.4069 12.823 39.6377 12.9631L39.8364 12.4739C39.5458 12.3078 39.2157 12.2232 38.881 12.2293C38.1166 12.2293 37.7115 12.6268 37.7115 13.1006C37.7115 14.1325 39.3243 13.7809 39.3243 14.3006C39.3243 14.4688 39.1714 14.5987 38.7892 14.5987C38.4612 14.5965 38.1415 14.4953 37.872 14.3083L37.6504 14.7975C37.9869 15.0143 38.3815 15.1236 38.7816 15.1108Z" fill="#0E0E0E"/>
<path d="M28.7003 15.6765H27.5156V18.4663H28.1577V17.7019H28.7156C29.48 17.7019 29.9233 17.3121 29.9233 16.693C29.9233 16.0739 29.4417 15.6765 28.7003 15.6765ZM28.7003 17.2051H28.1806V16.2038H28.7003C29.0901 16.2038 29.2889 16.3796 29.2889 16.693C29.2889 17.0064 29.0443 17.1669 28.6698 17.1669L28.7003 17.2051Z" fill="#0E0E0E"/>
<path d="M32.8207 18.4662L32.2016 17.5796C32.3762 17.5103 32.5251 17.3885 32.6278 17.2311C32.7304 17.0737 32.7818 16.8884 32.7748 16.7006C32.7748 16.0739 32.3086 15.6917 31.5672 15.6917H30.3672V18.4815H31.0092V17.7172H31.5978L32.1328 18.4815L32.8207 18.4662ZM32.1022 16.6853C32.1022 16.9911 31.9035 17.1745 31.5137 17.1745H30.9939V16.2038H31.5137C31.9264 16.2038 32.1022 16.3796 32.1022 16.6853Z" fill="#0E0E0E"/>
<path d="M34.6244 18.5121C34.906 18.4957 35.1765 18.3972 35.4028 18.2288C35.629 18.0605 35.8011 17.8295 35.8976 17.5645C35.9942 17.2996 36.0111 17.0121 35.9462 16.7377C35.8813 16.4632 35.7375 16.2137 35.5325 16.02C35.3275 15.8263 35.0703 15.6968 34.7927 15.6476C34.515 15.5983 34.2289 15.6314 33.9698 15.7428C33.7107 15.8542 33.4899 16.039 33.3346 16.2744C33.1792 16.5098 33.0962 16.7855 33.0957 17.0675C33.0943 17.2648 33.1335 17.4603 33.2109 17.6418C33.2883 17.8233 33.4023 17.9869 33.5457 18.1225C33.6891 18.258 33.8589 18.3625 34.0445 18.4296C34.2301 18.4966 34.4275 18.5247 34.6244 18.5121ZM34.6244 17.9618C34.4466 17.9663 34.2715 17.9178 34.1215 17.8223C33.9714 17.7269 33.8533 17.5889 33.782 17.4259C33.7108 17.263 33.6898 17.0825 33.7217 16.9075C33.7536 16.7326 33.8369 16.5711 33.961 16.4437C34.0851 16.3164 34.2443 16.2289 34.4184 16.1925C34.5925 16.1561 34.7734 16.1724 34.9382 16.2393C35.1029 16.3063 35.244 16.4209 35.3433 16.5684C35.4426 16.7159 35.4957 16.8897 35.4957 17.0675C35.5021 17.1847 35.4842 17.3019 35.4429 17.4118C35.4017 17.5216 35.3381 17.6217 35.2563 17.7058C35.1744 17.7898 35.0759 17.856 34.9672 17.9C34.8584 17.9441 34.7417 17.9651 34.6244 17.9618Z" fill="#0E0E0E"/>
<path d="M38.7212 16.1962V15.6765H36.627V18.4663H37.269V17.4497H38.5531V16.93H37.269V16.1656L38.7212 16.1962Z" fill="#0E0E0E"/>
<path d="M39.1562 18.4663H39.7983V15.6765H39.1562V18.4663Z" fill="#0E0E0E"/>
<path d="M41.0292 18.4663H41.6712V16.1733H42.5579V15.6459H40.1426V16.1733H41.0292V18.4663Z" fill="#0E0E0E"/>
<path d="M171.745 17.7401C171.957 18.0183 172.068 18.3609 172.058 18.7108C172.071 18.9694 172.019 19.227 171.905 19.4597C171.791 19.6923 171.621 19.8922 171.409 20.0408C170.858 20.3921 170.21 20.5582 169.559 20.5146H166.395V14.0943H169.383C169.994 14.0594 170.601 14.2085 171.126 14.5223C171.327 14.6562 171.491 14.8398 171.601 15.0553C171.71 15.2709 171.763 15.5112 171.752 15.7529C171.757 16.0502 171.675 16.3424 171.516 16.5936C171.348 16.8425 171.115 17.0408 170.843 17.1669C171.196 17.2583 171.512 17.4589 171.745 17.7401ZM167.877 16.7618H169.261C169.531 16.7868 169.801 16.7165 170.025 16.5631C170.109 16.4913 170.176 16.4022 170.223 16.3019C170.269 16.2017 170.293 16.0926 170.293 15.9822C170.293 15.8718 170.269 15.7627 170.223 15.6624C170.176 15.5621 170.109 15.473 170.025 15.4013C169.802 15.2466 169.531 15.1762 169.261 15.2025H167.877V16.7618ZM170.552 18.5962C170.552 18.0866 170.203 17.8318 169.505 17.8318H167.87V19.414H169.505C170.203 19.414 170.552 19.1388 170.552 18.5885V18.5962Z" fill="#0E0E0E"/>
<path d="M174.498 20.1937C173.98 19.9208 173.546 19.5111 173.244 19.009C172.947 18.4914 172.791 17.9051 172.791 17.3083C172.791 16.7116 172.947 16.1252 173.244 15.6077C173.546 15.1056 173.98 14.6958 174.498 14.423C175.056 14.1397 175.672 13.992 176.298 13.992C176.923 13.992 177.54 14.1397 178.098 14.423C178.622 14.7015 179.061 15.1176 179.367 15.6266C179.673 16.1356 179.835 16.7183 179.835 17.3121C179.835 17.906 179.673 18.4887 179.367 18.9977C179.061 19.5067 178.622 19.9228 178.098 20.2013C177.54 20.4846 176.923 20.6323 176.298 20.6323C175.672 20.6323 175.056 20.4846 174.498 20.2013V20.1937ZM177.326 19.1083C177.633 18.9272 177.883 18.662 178.044 18.344C178.216 18.0161 178.305 17.6516 178.305 17.2816C178.305 16.9116 178.216 16.547 178.044 16.2191C177.883 15.9011 177.633 15.6359 177.326 15.4548C177.011 15.2829 176.657 15.1928 176.298 15.1928C175.939 15.1928 175.585 15.2829 175.27 15.4548C174.963 15.6363 174.713 15.9014 174.551 16.2191C174.38 16.547 174.29 16.9116 174.29 17.2816C174.29 17.6516 174.38 18.0161 174.551 18.344C174.713 18.6618 174.963 18.9269 175.27 19.1083C175.585 19.2802 175.939 19.3703 176.298 19.3703C176.657 19.3703 177.011 19.2802 177.326 19.1083Z" fill="#0E0E0E"/>
<path d="M180.955 14.0943H182.43V18.2751L185.487 14.0943H186.878V20.5146H185.411V16.3414L182.354 20.5146H180.947L180.955 14.0943ZM182.14 12.2751H183.156C183.156 12.7236 183.411 12.9478 183.921 12.9478C184.121 12.9621 184.319 12.9023 184.478 12.7796C184.545 12.7154 184.596 12.6379 184.631 12.5523C184.665 12.4667 184.681 12.3749 184.677 12.2828H185.732C185.742 12.4802 185.706 12.6773 185.628 12.8588C185.55 13.0403 185.431 13.2015 185.281 13.3299C184.891 13.5973 184.422 13.724 183.951 13.6892C182.754 13.6841 182.15 13.2153 182.14 12.2828V12.2751Z" fill="#0E0E0E"/>
<path d="M193.377 15.2867H191.321V20.4994H189.853V15.2867H187.805V14.0943H193.377V15.2867Z" fill="#0E0E0E"/>
<path d="M194.332 14.0943H195.807V18.2752L198.864 14.0943H200.255V20.5147H198.788V16.3414L195.731 20.5147H194.324L194.332 14.0943Z" fill="#0E0E0E"/>
<path d="M208.395 26.3694H160.548C159.016 26.3674 157.547 25.758 156.464 24.6748C155.381 23.5916 154.772 22.123 154.77 20.5911V13.544C154.772 12.0121 155.381 10.5435 156.464 9.4603C157.547 8.37709 159.016 7.76765 160.548 7.76562H208.395C209.927 7.76765 211.395 8.37709 212.479 9.4603C213.562 10.5435 214.171 12.0121 214.173 13.544V20.5911C214.171 22.123 213.562 23.5916 212.479 24.6748C211.395 25.758 209.927 26.3674 208.395 26.3694ZM160.548 10.0663C159.623 10.0663 158.737 10.4335 158.083 11.0871C157.43 11.7407 157.063 12.6272 157.063 13.5516V20.5987C157.063 21.5231 157.43 22.4096 158.083 23.0633C158.737 23.7169 159.623 24.0841 160.548 24.0841H208.395C209.319 24.0841 210.206 23.7169 210.86 23.0633C211.513 22.4096 211.88 21.5231 211.88 20.5987V13.544C211.88 12.6196 211.513 11.7331 210.86 11.0795C210.206 10.4258 209.319 10.0586 208.395 10.0586L160.548 10.0663Z" fill="#FB525E"/>
<path d="M85.2911 43.2918H27.5V101.083H85.2911V43.2918Z" fill="#CCCCCC"/>
<path d="M148.984 43.2918H91.8809V100.395H148.984V43.2918Z" fill="#CCCCCC"/>
<path d="M213.019 43.2918H155.916V100.395H213.019V43.2918Z" fill="#CCCCCC"/>
<path d="M85.2911 114.627H27.5V129.745H85.2911V114.627Z" fill="#CCCCCC"/>
<path d="M148.984 114.627H91.8809V129.562H148.984V114.627Z" fill="#CCCCCC"/>
<path d="M213.019 114.627H155.916V129.562H213.019V114.627Z" fill="#CCCCCC"/>
<path d="M142.64 18.9784C141.83 19.0027 141.062 19.3481 140.505 19.9387C139.949 20.5292 139.651 21.3165 139.675 22.1274C139.699 22.9383 140.045 23.7062 140.635 24.2624C141.226 24.8185 142.013 25.1173 142.824 25.093L148.832 24.9096L139.415 34.907C138.9 35.4719 138.627 36.2169 138.656 36.9809C138.686 37.745 139.014 38.467 139.571 38.9908C140.128 39.5147 140.869 39.7985 141.633 39.7809C142.398 39.7633 143.125 39.4458 143.657 38.8968L153.074 28.8917L153.257 34.8994C153.281 35.7102 153.627 36.4782 154.217 37.0344C154.808 37.5905 155.595 37.8893 156.406 37.865C157.217 37.8407 157.985 37.4952 158.541 36.9046C159.097 36.3141 159.396 35.5268 159.372 34.7159L158.89 19.1083C158.888 19.032 158.871 18.9568 158.84 18.8871C158.809 18.8174 158.765 18.7545 158.709 18.702C158.654 18.6494 158.589 18.6083 158.517 18.581C158.446 18.5537 158.37 18.5407 158.294 18.5427L142.64 18.9784Z" fill="#FB525E"/>
</g>
<defs>
<clipPath id="clip0">
<rect width="240" height="132.229" fill="white"/>
</clipPath>
</defs>
</svg>
