<svg width="240" height="133" viewBox="0 0 240 133" fill="none" xmlns="http://www.w3.org/2000/svg">
<g clip-path="url(#clip0)">
<path d="M226.112 0H13.8879C6.21782 0 0 6.21274 0 13.8765V118.245C0 125.908 6.21782 132.121 13.8879 132.121H226.112C233.782 132.121 240 125.908 240 118.245V13.8765C240 6.21274 233.782 0 226.112 0Z" fill="#FB525E"/>
<path d="M226.112 2.29114H13.8879C7.48418 2.29114 2.29297 7.47811 2.29297 13.8766V118.245C2.29297 124.643 7.48418 129.83 13.8879 129.83H226.112C232.516 129.83 237.707 124.643 237.707 118.245V13.8766C237.707 7.47811 232.516 2.29114 226.112 2.29114Z" fill="white"/>
<path d="M25.8572 18.5122L20.2012 21.6663V15.3505L25.8572 12.2193V18.5122Z" fill="#0E0E0E"/>
<path d="M14.5234 18.5122L20.1795 21.6663V15.3505L14.5234 12.2193V18.5122Z" fill="#FB525E"/>
<path d="M14.5234 12.2194L20.1795 15.3735L25.8585 12.2194L20.2024 9.06525L14.5234 12.2194Z" fill="#CCCCCC"/>
<path d="M29.4112 12.2651V13.9529L28.0354 12.2651H27.5156V15.0527H28.15V13.3572L29.5335 15.045H30.0608V12.2651H29.4112Z" fill="#0E0E0E"/>
<path d="M31.3375 14.5105V13.8689H32.6216V13.3649H31.3375V12.7616H32.7974V12.2422H30.7031V15.0298H32.8662V14.5105H31.3375Z" fill="#0E0E0E"/>
<path d="M36.9022 12.2651L36.2526 14.2355L35.6182 12.2651H35.022L34.3952 14.2202L33.7685 12.2651H33.1035L34.0131 15.0527H34.701L35.3277 13.1663L35.9392 15.0527H36.6271L37.5366 12.2651H36.9022Z" fill="#0E0E0E"/>
<path d="M38.7816 15.0985C39.5459 15.0985 39.9587 14.7013 39.9587 14.2355C39.9587 13.2121 38.3459 13.5634 38.3459 13.0517C38.3459 12.8761 38.4912 12.731 38.8733 12.731C39.1432 12.7361 39.4069 12.8125 39.6377 12.9525L39.8364 12.4637C39.5458 12.2977 39.2157 12.2132 38.881 12.2193C38.1166 12.2193 37.7115 12.6164 37.7115 13.0899C37.7115 14.1209 39.3243 13.7696 39.3243 14.2889C39.3243 14.457 39.1714 14.5868 38.7892 14.5868C38.4612 14.5846 38.1415 14.4834 37.872 14.2966L37.6504 14.7854C37.9869 15.002 38.3815 15.1113 38.7816 15.0985Z" fill="#0E0E0E"/>
<path d="M28.7003 15.6636H27.5156V18.4511H28.1577V17.6874H28.7156C29.48 17.6874 29.9233 17.2979 29.9233 16.6793C29.9233 16.0607 29.4417 15.6636 28.7003 15.6636ZM28.7003 17.191H28.1806V16.1905H28.7003C29.0901 16.1905 29.2889 16.3662 29.2889 16.6793C29.2889 16.9924 29.0443 17.1528 28.6698 17.1528L28.7003 17.191Z" fill="#0E0E0E"/>
<path d="M32.8207 18.4512L32.2016 17.5653C32.3762 17.496 32.5251 17.3743 32.6278 17.2171C32.7304 17.0598 32.7818 16.8746 32.7748 16.687C32.7748 16.0607 32.3086 15.6789 31.5672 15.6789H30.3672V18.4664H31.0092V17.7027H31.5978L32.1328 18.4664L32.8207 18.4512ZM32.1022 16.6717C32.1022 16.9772 31.9035 17.1605 31.5137 17.1605H30.9939V16.1906H31.5137C31.9264 16.1906 32.1022 16.3662 32.1022 16.6717Z" fill="#0E0E0E"/>
<path d="M34.6244 18.497C34.906 18.4806 35.1765 18.3822 35.4028 18.2139C35.629 18.0457 35.8011 17.815 35.8976 17.5502C35.9942 17.2854 36.0111 16.9982 35.9462 16.724C35.8813 16.4497 35.7375 16.2005 35.5325 16.0069C35.3275 15.8134 35.0703 15.684 34.7927 15.6348C34.515 15.5856 34.2289 15.6187 33.9698 15.7299C33.7107 15.8412 33.4899 16.0259 33.3346 16.2611C33.1792 16.4963 33.0962 16.7718 33.0957 17.0536C33.0943 17.2507 33.1335 17.4461 33.2109 17.6274C33.2883 17.8088 33.4023 17.9723 33.5457 18.1077C33.6891 18.2431 33.8589 18.3475 34.0445 18.4145C34.2301 18.4815 34.4275 18.5096 34.6244 18.497ZM34.6244 17.9471C34.4466 17.9517 34.2715 17.9032 34.1215 17.8078C33.9714 17.7124 33.8533 17.5745 33.782 17.4117C33.7108 17.2489 33.6898 17.0685 33.7217 16.8937C33.7536 16.7189 33.8369 16.5576 33.961 16.4303C34.0851 16.303 34.2443 16.2156 34.4184 16.1792C34.5925 16.1429 34.7734 16.1592 34.9382 16.2261C35.1029 16.293 35.244 16.4075 35.3433 16.5548C35.4426 16.7022 35.4957 16.8759 35.4957 17.0536C35.5021 17.1706 35.4842 17.2878 35.4429 17.3975C35.4017 17.5073 35.3381 17.6073 35.2563 17.6913C35.1744 17.7753 35.0759 17.8414 34.9672 17.8854C34.8584 17.9294 34.7417 17.9504 34.6244 17.9471Z" fill="#0E0E0E"/>
<path d="M38.7212 16.1829V15.6636H36.627V18.4511H37.269V17.4354H38.5531V16.9161H37.269V16.1523L38.7212 16.1829Z" fill="#0E0E0E"/>
<path d="M39.1562 18.4511H39.7983V15.6636H39.1562V18.4511Z" fill="#0E0E0E"/>
<path d="M41.0292 18.4512H41.6712V16.1601H42.5579V15.6331H40.1426V16.1601H41.0292V18.4512Z" fill="#0E0E0E"/>
<path d="M73.6439 19.6501V35.688H68.2325V29.7845H63.2337V35.6956H57.8223V19.6578H63.2337V25.3398H68.2325V19.6501H73.6439Z" fill="#0E0E0E"/>
<path d="M79.996 34.9778C78.6514 34.2873 77.5233 33.2398 76.7356 31.9504C75.948 30.661 75.5312 29.1797 75.5312 27.6691C75.5312 26.1585 75.948 24.6772 76.7356 23.3878C77.5233 22.0984 78.6514 21.051 79.996 20.3604C81.4452 19.6515 83.0373 19.283 84.6508 19.283C86.2643 19.283 87.8564 19.6515 89.3056 20.3604C90.6502 21.051 91.7783 22.0984 92.5659 23.3878C93.3536 24.6772 93.7703 26.1585 93.7703 27.6691C93.7703 29.1797 93.3536 30.661 92.5659 31.9504C91.7783 33.2398 90.6502 34.2873 89.3056 34.9778C87.8564 35.6867 86.2643 36.0552 84.6508 36.0552C83.0373 36.0552 81.4452 35.6867 79.996 34.9778ZM86.4699 31.1592C87.0235 30.8217 87.4731 30.3381 87.7693 29.7617C88.0861 29.1 88.2505 28.3759 88.2505 27.6424C88.2505 26.9089 88.0861 26.1847 87.7693 25.5231C87.4728 24.9469 87.0232 24.4633 86.4699 24.1255C85.9167 23.8028 85.2876 23.6327 84.647 23.6327C84.0064 23.6327 83.3772 23.8028 82.824 24.1255C82.2707 24.4633 81.8212 24.9469 81.5247 25.5231C81.2079 26.1847 81.0434 26.9089 81.0434 27.6424C81.0434 28.3759 81.2079 29.1 81.5247 29.7617C81.8208 30.3381 82.2704 30.8217 82.824 31.1592C83.3772 31.482 84.0064 31.6521 84.647 31.6521C85.2876 31.6521 85.9167 31.482 86.4699 31.1592Z" fill="#0E0E0E"/>
<path d="M110.064 28.7154C110.541 29.383 110.79 30.1863 110.775 31.0065C110.796 31.6718 110.651 32.3319 110.352 32.9268C110.053 33.5216 109.609 34.0324 109.063 34.4126C107.627 35.3257 105.939 35.7615 104.24 35.6575H95.6562V19.6196H103.796C105.4 19.5319 106.994 19.9141 108.382 20.7194C108.914 21.0447 109.35 21.5053 109.646 22.0541C109.941 22.6029 110.085 23.2202 110.064 23.8429C110.077 24.5527 109.889 25.2518 109.521 25.8591C109.143 26.4563 108.616 26.9457 107.993 27.2796C108.812 27.5396 109.533 28.0399 110.064 28.7154ZM100.984 25.8133H103.277C104.163 25.8133 104.607 25.4238 104.607 24.6448C104.607 23.8658 104.163 23.4611 103.277 23.4305H100.984V25.8133ZM105.317 30.6246C105.317 29.7998 104.874 29.3874 103.987 29.3874H100.984V31.9077H103.949C104.856 31.9077 105.31 31.48 105.31 30.6246H105.317Z" fill="#0E0E0E"/>
<path d="M116.178 34.9778C114.833 34.2873 113.705 33.2398 112.917 31.9504C112.13 30.661 111.713 29.1797 111.713 27.6691C111.713 26.1585 112.13 24.6772 112.917 23.3878C113.705 22.0984 114.833 21.051 116.178 20.3604C117.627 19.6515 119.219 19.283 120.832 19.283C122.446 19.283 124.038 19.6515 125.487 20.3604C126.832 21.051 127.96 22.0984 128.748 23.3878C129.535 24.6772 129.952 26.1585 129.952 27.6691C129.952 29.1797 129.535 30.661 128.748 31.9504C127.96 33.2398 126.832 34.2873 125.487 34.9778C124.038 35.6867 122.446 36.0552 120.832 36.0552C119.219 36.0552 117.627 35.6867 116.178 34.9778ZM122.652 31.1592C123.21 30.8313 123.668 30.3556 123.974 29.7846C124.291 29.1229 124.455 28.3988 124.455 27.6653C124.455 26.9318 124.291 26.2077 123.974 25.546C123.677 24.9698 123.228 24.4862 122.674 24.1484C122.121 23.8257 121.492 23.6556 120.852 23.6556C120.211 23.6556 119.582 23.8257 119.029 24.1484C118.475 24.4862 118.026 24.9698 117.729 25.546C117.409 26.2059 117.24 26.9292 117.237 27.6627C117.233 28.3962 117.393 29.1212 117.706 29.7846C118.002 30.361 118.452 30.8446 119.006 31.1822C119.559 31.5049 120.188 31.675 120.829 31.675C121.469 31.675 122.098 31.5049 122.652 31.1822V31.1592Z" fill="#0E0E0E"/>
<path d="M135.347 34.9931C134.026 34.3169 132.919 33.2854 132.153 32.0146C131.394 30.6933 130.994 29.1964 130.994 27.6729C130.994 26.1494 131.394 24.6525 132.153 23.3313C132.919 22.0605 134.026 21.0289 135.347 20.3528C136.766 19.6275 138.34 19.2604 139.933 19.2836C141.367 19.2583 142.79 19.5396 144.107 20.1084C145.311 20.631 146.363 21.4509 147.164 22.4912L143.747 25.546C143.348 24.9759 142.819 24.5089 142.204 24.1836C141.589 23.8582 140.905 23.6839 140.209 23.6749C139.703 23.653 139.198 23.7382 138.728 23.9252C138.258 24.1121 137.832 24.3964 137.48 24.7594C136.763 25.5601 136.392 26.6115 136.448 27.6844C136.392 28.7572 136.763 29.8086 137.48 30.6094C137.832 30.9724 138.258 31.2567 138.728 31.4436C139.198 31.6305 139.703 31.7158 140.209 31.6938C140.899 31.6722 141.574 31.488 142.18 31.1562C142.786 30.8244 143.304 30.3545 143.694 29.7846L147.111 32.8394C146.31 33.8799 145.258 34.6999 144.053 35.2222C142.737 35.791 141.314 36.0722 139.88 36.047C138.306 36.0662 136.751 35.7046 135.347 34.9931Z" fill="#0E0E0E"/>
<path d="M162.313 23.8429H157.612V35.688H152.262V23.8429H147.592V19.6501H162.313V23.8429Z" fill="#0E0E0E"/>
<path d="M164.102 19.6501H169.452V27.9898L174.978 19.6501H180.068V35.688H174.718V27.3712L169.215 35.688H164.102V19.6501Z" fill="#0E0E0E"/>
<path d="M211.077 43.2563H27.5V100.313H211.077V43.2563Z" fill="#CCCCCC"/>
<path d="M211.077 116.305H27.5V129.57H211.077V116.305Z" fill="#CCCCCC"/>
<path d="M89.3123 86.1384C88.9108 86.1505 88.5156 86.2414 88.1493 86.406C87.783 86.5707 87.4527 86.8058 87.1773 87.098C86.9019 87.3901 86.6869 87.7337 86.5443 88.1089C86.4018 88.4841 86.3347 88.8837 86.3467 89.2849C86.3588 89.6861 86.4498 90.0809 86.6145 90.447C86.7793 90.813 87.0146 91.143 87.307 91.4181C87.5994 91.6933 87.9432 91.9082 88.3188 92.0506C88.6943 92.193 89.0943 92.2601 89.4957 92.2481L95.5034 92.0648L86.0868 102.062C85.5715 102.626 85.2991 103.37 85.3283 104.134C85.3575 104.897 85.6861 105.619 86.2431 106.142C86.8001 106.666 87.5408 106.949 88.3053 106.932C89.0697 106.914 89.7966 106.597 90.3289 106.048L99.7454 96.0513L99.9289 102.054C99.9532 102.864 100.299 103.632 100.889 104.187C101.48 104.743 102.267 105.042 103.078 105.017C103.889 104.993 104.657 104.648 105.213 104.058C105.769 103.468 106.068 102.681 106.044 101.871L105.57 86.2377C105.568 86.1615 105.551 86.0864 105.52 86.0167C105.489 85.9471 105.444 85.8842 105.389 85.8317C105.333 85.7792 105.268 85.7382 105.197 85.7109C105.126 85.6835 105.05 85.6705 104.973 85.6726L89.3123 86.1384Z" fill="#FB525E"/>
<path d="M191.082 77.5086H173.426C171.081 77.5106 168.833 78.4422 167.175 80.0988C165.517 81.7555 164.585 84.0018 164.583 86.3447V87.8262H158.69V86.3523C158.69 85.1883 158.46 84.0358 158.013 82.9609C157.566 81.8859 156.912 80.9096 156.086 80.088C155.261 79.2664 154.282 78.6156 153.205 78.173C152.127 77.7303 150.973 77.5045 149.808 77.5086H132.16C129.815 77.5106 127.567 78.4422 125.909 80.0988C124.251 81.7555 123.318 84.0018 123.316 86.3447V98.1287C123.318 100.472 124.251 102.718 125.909 104.374C127.567 106.031 129.815 106.963 132.16 106.965H149.808C152.153 106.963 154.401 106.031 156.059 104.374C157.717 102.718 158.649 100.472 158.651 98.1287V96.6547H164.544V98.1287C164.546 100.472 165.479 102.718 167.137 104.374C168.795 106.031 171.043 106.963 173.388 106.965H191.082C193.427 106.963 195.675 106.031 197.333 104.374C198.991 102.718 199.923 100.472 199.925 98.1287V86.337C199.921 83.9955 198.988 81.7511 197.33 80.0961C195.672 78.4411 193.425 77.5106 191.082 77.5086ZM155.709 98.1287C155.707 99.6897 155.085 101.186 153.981 102.29C152.876 103.394 151.378 104.015 149.816 104.017H132.16C130.597 104.015 129.1 103.394 127.995 102.29C126.89 101.186 126.269 99.6897 126.267 98.1287V86.337C126.269 84.776 126.89 83.2795 127.995 82.1757C129.1 81.0719 130.597 80.4509 132.16 80.4488H149.808C151.37 80.4509 152.868 81.0719 153.973 82.1757C155.078 83.2795 155.699 84.776 155.701 86.337V87.8262H152.697C152.518 86.6009 151.903 85.4809 150.966 84.6706C150.029 83.8603 148.831 83.4136 147.592 83.412H134.369C133.001 83.414 131.69 83.9578 130.723 84.9241C129.756 85.8904 129.211 87.2005 129.209 88.567V95.9292C129.211 97.2957 129.756 98.6058 130.723 99.5721C131.69 100.538 133.001 101.082 134.369 101.084H147.63C148.869 101.083 150.067 100.636 151.004 99.8256C151.941 99.0153 152.556 97.8953 152.736 96.67H155.739L155.709 98.1287ZM148.341 96.6547H149.686C149.533 97.0843 149.252 97.4564 148.88 97.7202C148.508 97.984 148.063 98.1266 147.607 98.1287H134.369C133.783 98.1287 133.221 97.8961 132.807 97.4822C132.392 97.0683 132.16 96.5069 132.16 95.9215V88.5594C132.16 87.974 132.392 87.4127 132.807 86.9987C133.221 86.5848 133.783 86.3523 134.369 86.3523H147.63C148.086 86.3543 148.53 86.497 148.903 86.7608C149.275 87.0246 149.556 87.3966 149.709 87.8262H148.364C147.191 87.8262 146.066 88.2917 145.237 89.1203C144.408 89.9488 143.942 91.0726 143.942 92.2443C143.942 93.416 144.408 94.5398 145.237 95.3683C146.066 96.1969 147.191 96.6623 148.364 96.6623L148.341 96.6547ZM148.341 93.7068C147.949 93.7068 147.574 93.5515 147.298 93.2751C147.021 92.9987 146.865 92.6237 146.865 92.2328C146.865 91.8419 147.021 91.467 147.298 91.1906C147.574 90.9142 147.949 90.7589 148.341 90.7589H174.871C175.262 90.7589 175.637 90.9142 175.914 91.1906C176.19 91.467 176.346 91.8419 176.346 92.2328C176.346 92.6237 176.19 92.9987 175.914 93.2751C175.637 93.5515 175.262 93.7068 174.871 93.7068H148.341ZM174.901 87.8262H173.556C173.709 87.3966 173.99 87.0246 174.362 86.7608C174.734 86.497 175.179 86.3543 175.635 86.3523H188.896C189.482 86.3523 190.044 86.5848 190.458 86.9987C190.872 87.4127 191.105 87.974 191.105 88.5594V95.9215C191.105 96.5069 190.872 97.0683 190.458 97.4822C190.044 97.8961 189.482 98.1287 188.896 98.1287H175.635C175.179 98.1266 174.734 97.984 174.362 97.7202C173.99 97.4564 173.709 97.0843 173.556 96.6547H174.901C176.074 96.6547 177.198 96.1892 178.028 95.3607C178.857 94.5321 179.323 93.4084 179.323 92.2367C179.323 91.0649 178.857 89.9412 178.028 89.1126C177.198 88.2841 176.074 87.8186 174.901 87.8186V87.8262ZM197.006 98.1363C197.004 99.6973 196.382 101.194 195.277 102.298C194.173 103.401 192.675 104.022 191.113 104.024H173.426C171.864 104.022 170.366 103.401 169.261 102.298C168.157 101.194 167.535 99.6973 167.533 98.1363V96.6623H170.537C170.716 97.8877 171.331 99.0076 172.268 99.818C173.206 100.628 174.403 101.075 175.643 101.077H188.904C190.271 101.075 191.582 100.531 192.55 99.5645C193.517 98.5981 194.061 97.2881 194.063 95.9215V88.5594C194.061 87.1928 193.517 85.8828 192.55 84.9165C191.582 83.9502 190.271 83.4064 188.904 83.4044H175.635C174.395 83.406 173.198 83.8526 172.261 84.663C171.323 85.4733 170.709 86.5933 170.529 87.8186H167.525V86.3447C167.527 84.7836 168.149 83.2871 169.254 82.1833C170.358 81.0795 171.856 80.4585 173.418 80.4565H191.082C192.644 80.4585 194.142 81.0795 195.247 82.1833C196.351 83.2871 196.973 84.7836 196.975 86.3447L197.006 98.1363Z" fill="black"/>
</g>
<defs>
<clipPath id="clip0">
<rect width="240" height="132.121" fill="white"/>
</clipPath>
</defs>
</svg>
