<svg width="240" height="133" viewBox="0 0 240 133" fill="none" xmlns="http://www.w3.org/2000/svg">
<g clip-path="url(#clip0)">
<path d="M226.112 0H13.8879C6.21782 0 0 6.21782 0 13.8879V118.341C0 126.011 6.21782 132.229 13.8879 132.229H226.112C233.782 132.229 240 126.011 240 118.341V13.8879C240 6.21782 233.782 0 226.112 0Z" fill="#FB525E"/>
<path d="M226.112 2.29297H13.8879C7.48418 2.29297 2.29297 7.48419 2.29297 13.8879V118.341C2.29297 124.745 7.48418 129.936 13.8879 129.936H226.112C232.516 129.936 237.707 124.745 237.707 118.341V13.8879C237.707 7.48419 232.516 2.29297 226.112 2.29297Z" fill="white"/>
<path d="M25.8572 18.5274L20.2012 21.6841V15.3631L25.8572 12.2293V18.5274Z" fill="#0E0E0E"/>
<path d="M14.5234 18.5274L20.1795 21.6841V15.3631L14.5234 12.2293V18.5274Z" fill="#FB525E"/>
<path d="M14.5234 12.2293L20.1795 15.386L25.8585 12.2293L20.2024 9.07263L14.5234 12.2293Z" fill="#CCCCCC"/>
<path d="M29.4112 12.2751V13.9643L28.0354 12.2751H27.5156V15.065H28.15V13.3681L29.5335 15.0573H30.0609V12.2751H29.4112Z" fill="#0E0E0E"/>
<path d="M31.3375 14.5223V13.8802H32.6216V13.3758H31.3375V12.7719H32.7974V12.2522H30.7031V15.042H32.8662V14.5223H31.3375Z" fill="#0E0E0E"/>
<path d="M36.9022 12.2751L36.2526 14.2471L35.6182 12.2751H35.022L34.3952 14.2318L33.7685 12.2751H33.1035L34.0131 15.065H34.701L35.3277 13.1771L35.9392 15.065H36.6271L37.5366 12.2751H36.9022Z" fill="#0E0E0E"/>
<path d="M38.7816 15.1108C39.5459 15.1108 39.9587 14.7134 39.9587 14.2471C39.9587 13.2229 38.3459 13.5745 38.3459 13.0624C38.3459 12.8866 38.4912 12.7414 38.8733 12.7414C39.1432 12.7465 39.4069 12.823 39.6377 12.9631L39.8364 12.4739C39.5458 12.3078 39.2157 12.2232 38.881 12.2293C38.1166 12.2293 37.7115 12.6268 37.7115 13.1006C37.7115 14.1325 39.3243 13.7809 39.3243 14.3006C39.3243 14.4688 39.1714 14.5987 38.7892 14.5987C38.4612 14.5965 38.1415 14.4953 37.872 14.3083L37.6504 14.7975C37.9869 15.0143 38.3815 15.1236 38.7816 15.1108Z" fill="#0E0E0E"/>
<path d="M28.7003 15.6764H27.5156V18.4662H28.1577V17.7019H28.7156C29.48 17.7019 29.9233 17.3121 29.9233 16.693C29.9233 16.0738 29.4417 15.6764 28.7003 15.6764ZM28.7003 17.2051H28.1806V16.2038H28.7003C29.0901 16.2038 29.2889 16.3796 29.2889 16.693C29.2889 17.0063 29.0443 17.1668 28.6698 17.1668L28.7003 17.2051Z" fill="#0E0E0E"/>
<path d="M32.8207 18.4663L32.2016 17.5797C32.3762 17.5103 32.5251 17.3886 32.6278 17.2312C32.7304 17.0738 32.7818 16.8885 32.7748 16.7007C32.7748 16.0739 32.3086 15.6918 31.5672 15.6918H30.3672V18.4816H31.0092V17.7172H31.5978L32.1328 18.4816L32.8207 18.4663ZM32.1022 16.6854C32.1022 16.9911 31.9035 17.1746 31.5137 17.1746H30.9939V16.2039H31.5137C31.9264 16.2039 32.1022 16.3797 32.1022 16.6854Z" fill="#0E0E0E"/>
<path d="M34.6244 18.5121C34.906 18.4957 35.1765 18.3972 35.4028 18.2288C35.629 18.0604 35.8011 17.8295 35.8976 17.5645C35.9942 17.2996 36.0111 17.0121 35.9462 16.7377C35.8813 16.4632 35.7375 16.2137 35.5325 16.02C35.3275 15.8263 35.0703 15.6968 34.7927 15.6476C34.515 15.5983 34.2289 15.6314 33.9698 15.7428C33.7107 15.8542 33.4899 16.039 33.3346 16.2744C33.1792 16.5098 33.0962 16.7855 33.0957 17.0675C33.0943 17.2648 33.1335 17.4603 33.2109 17.6418C33.2883 17.8233 33.4023 17.9869 33.5457 18.1225C33.6891 18.258 33.8589 18.3625 34.0445 18.4296C34.2301 18.4966 34.4275 18.5247 34.6244 18.5121ZM34.6244 17.9618C34.4466 17.9663 34.2715 17.9178 34.1215 17.8223C33.9714 17.7269 33.8533 17.5889 33.782 17.4259C33.7108 17.263 33.6898 17.0825 33.7217 16.9075C33.7536 16.7326 33.8369 16.5711 33.961 16.4437C34.0851 16.3164 34.2443 16.2289 34.4184 16.1925C34.5925 16.1561 34.7734 16.1724 34.9382 16.2393C35.1029 16.3063 35.244 16.4209 35.3433 16.5684C35.4426 16.7159 35.4957 16.8897 35.4957 17.0675C35.5021 17.1847 35.4842 17.3019 35.4429 17.4118C35.4017 17.5216 35.3381 17.6217 35.2563 17.7058C35.1744 17.7898 35.0759 17.856 34.9672 17.9C34.8584 17.9441 34.7417 17.9651 34.6244 17.9618Z" fill="#0E0E0E"/>
<path d="M38.7212 16.1961V15.6764H36.627V18.4662H37.269V17.4496H38.5531V16.9299H37.269V16.1656L38.7212 16.1961Z" fill="#0E0E0E"/>
<path d="M39.1562 18.4662H39.7983V15.6764H39.1562V18.4662Z" fill="#0E0E0E"/>
<path d="M41.0292 18.4663H41.6712V16.1733H42.5579V15.6459H40.1426V16.1733H41.0292V18.4663Z" fill="#0E0E0E"/>
<path d="M83.0209 22.7236V38.7745H77.6706V26.9198H72.8171V38.7745H67.4668V22.7236H83.0209Z" fill="#0E0E0E"/>
<path d="M89.373 38.0637C88.0283 37.3727 86.9002 36.3243 86.1126 35.0339C85.3249 33.7435 84.9082 32.2609 84.9082 30.7491C84.9082 29.2373 85.3249 27.7547 86.1126 26.4643C86.9002 25.1739 88.0283 24.1255 89.373 23.4344C90.8221 22.725 92.4142 22.3561 94.0277 22.3561C95.6412 22.3561 97.2334 22.725 98.6825 23.4344C100.027 24.1255 101.155 25.1739 101.943 26.4643C102.731 27.7547 103.147 29.2373 103.147 30.7491C103.147 32.2609 102.731 33.7435 101.943 35.0339C101.155 36.3243 100.027 37.3727 98.6825 38.0637C97.2334 38.7732 95.6412 39.142 94.0277 39.142C92.4142 39.142 90.8221 38.7732 89.373 38.0637ZM95.8468 34.2421C96.3971 33.9102 96.8463 33.4346 97.1462 32.8663C97.463 32.2041 97.6275 31.4793 97.6275 30.7453C97.6275 30.0112 97.463 29.2864 97.1462 28.6242C96.8497 28.0475 96.4002 27.5636 95.8468 27.2255C95.2936 26.9025 94.6645 26.7323 94.0239 26.7323C93.3833 26.7323 92.7542 26.9025 92.201 27.2255C91.6477 27.5636 91.1981 28.0475 90.9016 28.6242C90.5848 29.2864 90.4204 30.0112 90.4204 30.7453C90.4204 31.4793 90.5848 32.2041 90.9016 32.8663C91.1981 33.443 91.6477 33.9269 92.201 34.265C92.7542 34.588 93.3833 34.7582 94.0239 34.7582C94.6645 34.7582 95.2936 34.588 95.8468 34.265V34.2421Z" fill="#0E0E0E"/>
<path d="M118.47 26.9198H113.77V38.7745H108.419V26.9198H103.719V22.7236H118.47V26.9198Z" fill="#0E0E0E"/>
<path d="M123.539 38.0637C122.194 37.3727 121.066 36.3243 120.279 35.0339C119.491 33.7435 119.074 32.2609 119.074 30.7491C119.074 29.2373 119.491 27.7547 120.279 26.4643C121.066 25.1739 122.194 24.1255 123.539 23.4344C124.988 22.725 126.58 22.3561 128.194 22.3561C129.807 22.3561 131.399 22.725 132.849 23.4344C134.193 24.1255 135.321 25.1739 136.109 26.4643C136.897 27.7547 137.313 29.2373 137.313 30.7491C137.313 32.2609 136.897 33.7435 136.109 35.0339C135.321 36.3243 134.193 37.3727 132.849 38.0637C131.399 38.7732 129.807 39.142 128.194 39.142C126.58 39.142 124.988 38.7732 123.539 38.0637ZM130.013 34.2421C130.563 33.9102 131.012 33.4346 131.312 32.8663C131.629 32.2041 131.793 31.4793 131.793 30.7453C131.793 30.0112 131.629 29.2864 131.312 28.6242C131.016 28.0475 130.566 27.5636 130.013 27.2255C129.46 26.9025 128.831 26.7323 128.19 26.7323C127.549 26.7323 126.92 26.9025 126.367 27.2255C125.814 27.5636 125.364 28.0475 125.068 28.6242C124.751 29.2864 124.586 30.0112 124.586 30.7453C124.586 31.4793 124.751 32.2041 125.068 32.8663C125.364 33.443 125.814 33.9269 126.367 34.265C126.92 34.588 127.549 34.7582 128.19 34.7582C128.831 34.7582 129.46 34.588 130.013 34.265V34.2421Z" fill="#0E0E0E"/>
<path d="M150.412 30.5198L155.159 38.7745H149.044L145.987 32.9733H144.458V38.7745H139.047V22.7236H144.458V28.7083H146.109L149.526 22.7236H155.159L150.412 30.5198Z" fill="#0E0E0E"/>
<path d="M156.283 22.7236H161.634V31.0701L167.16 22.7236H172.25V38.7745H166.9V30.451L161.397 38.7745H156.283V22.7236Z" fill="#0E0E0E"/>
<path d="M22.5856 91.4293C20.4672 90.3483 18.6933 88.6962 17.4646 86.6599C16.2503 84.5443 15.6113 82.1476 15.6113 79.7083C15.6113 77.269 16.2503 74.8723 17.4646 72.7567C18.6992 70.7347 20.4724 69.0964 22.5856 68.0255C24.8556 66.8668 27.3749 66.2816 29.9232 66.321C32.2187 66.2808 34.4963 66.7316 36.6034 67.6433C38.5151 68.4884 40.182 69.803 41.4493 71.465L35.9843 76.3414C34.4149 74.3083 32.5423 73.2917 30.3665 73.2917C29.5547 73.2552 28.7444 73.3916 27.9893 73.6921C27.2342 73.9925 26.5517 74.4501 25.9869 75.0344C24.9185 76.3593 24.3359 78.0101 24.3359 79.7121C24.3359 81.4141 24.9185 83.0649 25.9869 84.3898C26.5499 84.9721 27.23 85.4285 27.9823 85.7289C28.7345 86.0293 29.5419 86.1668 30.3512 86.1325C32.5015 86.1325 34.3716 85.1287 35.9614 83.121L41.4264 87.9974C40.1593 89.6597 38.4923 90.9743 36.5805 91.8191C34.4734 92.7308 32.1958 93.1816 29.9003 93.1414C27.359 93.1748 24.8481 92.587 22.5856 91.4293Z" fill="#0E0E0E"/>
<path d="M62.507 68.0255C64.1767 68.7356 65.6006 69.921 66.6016 71.4343C67.6025 72.9477 68.1362 74.722 68.1362 76.5363C68.1362 78.3507 67.6025 80.125 66.6016 81.6383C65.6006 83.1517 64.1767 84.3371 62.507 85.0472C60.5462 85.87 58.4342 86.2711 56.3083 86.2242H52.6013V92.5376H43.9414V66.8714H56.3083C58.4326 66.8178 60.5444 67.211 62.507 68.0255ZM58.3949 78.7262C58.9603 78.1251 59.2751 77.331 59.2751 76.5058C59.2751 75.6806 58.9603 74.8865 58.3949 74.2854C57.6389 73.7109 56.6962 73.4385 55.7503 73.5211H52.6013V79.5363H55.758C56.7013 79.617 57.641 79.3446 58.3949 78.772V78.7262Z" fill="#0E0E0E"/>
<path d="M77.1442 91.4293C75.0257 90.3483 73.2519 88.6962 72.0232 86.6599C70.8089 84.5443 70.1699 82.1476 70.1699 79.7083C70.1699 77.269 70.8089 74.8723 72.0232 72.7567C73.2522 70.7206 75.026 69.0686 77.1442 67.9873C79.4142 66.8285 81.9334 66.2433 84.4818 66.2828C86.7773 66.2426 89.0549 66.6934 91.162 67.6051C93.0736 68.4501 94.7406 69.7648 96.0079 71.4268L90.5429 76.3032C88.9531 74.3006 87.0831 73.2968 84.9327 73.2917C84.1235 73.2574 83.3161 73.3949 82.5638 73.6953C81.8115 73.9957 81.1315 74.4521 80.5684 75.0344C79.5001 76.3594 78.9175 78.0101 78.9175 79.7121C78.9175 81.4141 79.5001 83.0649 80.5684 84.3898C81.1315 84.9721 81.8115 85.4285 82.5638 85.7289C83.3161 86.0293 84.1235 86.1668 84.9327 86.1325C87.0831 86.1325 88.9531 85.1287 90.5429 83.121L96.0079 87.9975C94.7408 89.6597 93.0738 90.9743 91.162 91.8191C89.0549 92.7308 86.7773 93.1816 84.4818 93.1414C81.9328 93.1785 79.4135 92.5907 77.1442 91.4293Z" fill="#0E0E0E"/>
<path d="M206.316 59.0599H180.986C177.628 59.0639 174.409 60.3996 172.035 62.7739C169.66 65.1481 168.325 68.3672 168.321 71.7249V73.8344H159.913V71.7249C159.911 70.059 159.581 68.4099 158.941 66.8717C158.302 65.3336 157.365 63.9365 156.186 62.7603C155.006 61.5842 153.606 60.652 152.066 60.0171C150.526 59.3821 148.876 59.0569 147.21 59.0599H121.88C118.524 59.066 115.307 60.4025 112.934 62.7765C110.561 65.1506 109.227 68.3685 109.223 71.7249V88.609C109.227 91.9667 110.562 95.1857 112.937 97.56C115.311 99.9342 118.53 101.27 121.888 101.274H147.21C150.568 101.27 153.787 99.9342 156.161 97.56C158.535 95.1857 159.871 91.9667 159.875 88.609V86.4994H168.283V88.609C168.287 91.9667 169.622 95.1857 171.996 97.56C174.371 99.9342 177.59 101.27 180.948 101.274H206.277C209.635 101.27 212.854 99.9342 215.228 97.56C217.603 95.1857 218.938 91.9667 218.942 88.609V71.7249C218.938 68.3738 217.608 65.1605 215.242 62.7873C212.876 60.4141 209.667 59.074 206.316 59.0599ZM155.656 88.609C155.644 90.8351 154.754 92.9666 153.18 94.5407C151.606 96.1149 149.474 97.0046 147.248 97.0166H121.88C119.654 97.0046 117.522 96.1149 115.948 94.5407C114.374 92.9666 113.484 90.8351 113.472 88.609V71.7249C113.484 69.4987 114.374 67.3672 115.948 65.7931C117.522 64.2189 119.654 63.3293 121.88 63.3172H147.21C149.436 63.3293 151.568 64.2189 153.142 65.7931C154.716 67.3672 155.606 69.4987 155.618 71.7249V73.8344H151.337C151.08 72.0773 150.2 70.4712 148.857 69.3093C147.514 68.1474 145.798 67.5073 144.023 67.5058H125.052C123.091 67.5078 121.211 68.2882 119.825 69.6755C118.439 71.0628 117.661 72.9435 117.661 74.9045V85.4599C117.663 87.4195 118.442 89.2983 119.828 90.684C121.214 92.0696 123.092 92.849 125.052 92.851H144.046C145.821 92.8495 147.537 92.2093 148.88 91.0475C150.223 89.8856 151.103 88.2794 151.36 86.5223H155.656V88.609ZM145.1 86.4994H147.026C146.808 87.1153 146.404 87.6486 145.87 88.0262C145.336 88.4038 144.699 88.6073 144.046 88.609H125.052C124.213 88.6069 123.41 88.2729 122.817 87.6799C122.224 87.0869 121.89 86.2832 121.888 85.4446V74.9045C121.89 74.0659 122.224 73.2622 122.817 72.6692C123.41 72.0762 124.213 71.7422 125.052 71.7402H144.046C144.699 71.7418 145.336 71.9453 145.87 72.3229C146.404 72.7005 146.808 73.2338 147.026 73.8497H145.1C143.421 73.8497 141.81 74.5169 140.623 75.7045C139.435 76.892 138.768 78.5027 138.768 80.1822C138.768 81.8617 139.435 83.4724 140.623 84.6599C141.81 85.8475 143.421 86.5147 145.1 86.5147V86.4994ZM145.1 82.2803C144.541 82.2803 144.004 82.058 143.609 81.6624C143.213 81.2668 142.991 80.7302 142.991 80.1707C142.991 79.6112 143.213 79.0747 143.609 78.6791C144.004 78.2834 144.541 78.0612 145.1 78.0612H183.095C183.372 78.0612 183.647 78.1157 183.903 78.2218C184.159 78.3278 184.391 78.4832 184.587 78.6791C184.783 78.8749 184.938 79.1075 185.044 79.3634C185.15 79.6194 185.205 79.8937 185.205 80.1707C185.205 80.4478 185.15 80.7221 185.044 80.978C184.938 81.234 184.783 81.4665 184.587 81.6624C184.391 81.8583 184.159 82.0137 183.903 82.1197C183.647 82.2257 183.372 82.2803 183.095 82.2803H145.1ZM183.095 73.8726H181.146C181.365 73.2567 181.769 72.7235 182.303 72.3459C182.836 71.9682 183.473 71.7647 184.127 71.7631H203.121C203.961 71.757 204.769 72.0843 205.368 72.6732C205.967 73.2621 206.308 74.0646 206.316 74.9045V85.4599C206.314 86.2985 205.98 87.1022 205.387 87.6952C204.794 88.2882 203.99 88.6222 203.151 88.6242H184.15C183.496 88.6226 182.859 88.4191 182.326 88.0415C181.792 87.6639 181.388 87.1306 181.169 86.5147H183.095C184.775 86.5147 186.385 85.8475 187.573 84.6599C188.761 83.4724 189.428 81.8617 189.428 80.1822C189.428 78.5027 188.761 76.892 187.573 75.7045C186.385 74.5169 184.775 73.8497 183.095 73.8497V73.8726ZM214.777 88.609C214.765 90.8351 213.875 92.9666 212.301 94.5407C210.727 96.1149 208.595 97.0046 206.369 97.0166H180.986C178.76 97.0046 176.628 96.1149 175.054 94.5407C173.48 92.9666 172.59 90.8351 172.578 88.609V86.4994H176.874C177.13 88.2565 178.011 89.8626 179.354 91.0245C180.696 92.1864 182.412 92.8265 184.188 92.8281H203.182C205.142 92.826 207.02 92.0467 208.406 90.661C209.792 89.2754 210.571 87.3966 210.573 85.437V74.9045C210.571 72.9449 209.792 71.0661 208.406 69.6804C207.02 68.2948 205.142 67.5154 203.182 67.5134H184.15C182.374 67.5149 180.658 68.1551 179.315 69.3169C177.972 70.4788 177.092 72.085 176.835 73.8421H172.54V71.7249C172.552 69.4987 173.442 67.3672 175.016 65.7931C176.59 64.2189 178.721 63.3293 180.948 63.3172H206.277C208.504 63.3293 210.635 64.2189 212.209 65.7931C213.783 67.3672 214.673 69.4987 214.685 71.7249L214.777 88.609Z" fill="#CCCCCC"/>
<path d="M99.6834 93.0192C98.8726 93.0435 98.1046 93.3889 97.5484 93.9795C96.9923 94.57 96.6935 95.3573 96.7178 96.1682C96.7421 96.9791 97.0876 97.747 97.6781 98.3032C98.2687 98.8594 99.056 99.1581 99.8668 99.1338L105.874 98.9504L96.4579 108.955C95.9426 109.52 95.6702 110.265 95.6994 111.029C95.7286 111.793 96.0572 112.515 96.6142 113.039C97.1712 113.563 97.9119 113.847 98.6764 113.829C99.4408 113.812 100.168 113.494 100.7 112.945L110.117 102.94L110.3 108.948C110.312 109.349 110.403 109.745 110.568 110.111C110.733 110.477 110.968 110.807 111.26 111.083C111.553 111.358 111.897 111.573 112.272 111.716C112.648 111.858 113.048 111.925 113.449 111.913C113.85 111.901 114.246 111.81 114.612 111.646C114.978 111.481 115.309 111.246 115.584 110.953C115.859 110.661 116.074 110.317 116.217 109.941C116.36 109.566 116.427 109.166 116.415 108.764L115.941 93.1185C115.939 93.0422 115.922 92.9671 115.891 92.8974C115.86 92.8276 115.815 92.7647 115.76 92.7122C115.704 92.6597 115.639 92.6186 115.568 92.5912C115.497 92.5639 115.421 92.5509 115.345 92.5529L99.6834 93.0192Z" fill="#FB525E"/>
</g>
<defs>
<clipPath id="clip0">
<rect width="240" height="132.229" fill="white"/>
</clipPath>
</defs>
</svg>
