<svg width="140" height="140" viewBox="0 0 140 140" fill="none" xmlns="http://www.w3.org/2000/svg">
<g clip-path="url(#clip0)">
<path d="M67.579 34.3784H68.6503C68.9772 37.2879 71.4531 39.5587 74.4513 39.5587H78.4108C81.6311 39.5587 84.2512 36.9397 84.2512 33.7215V29.5665C84.2512 29.3636 84.4189 29.198 84.624 29.198H88.8174C89.0225 29.198 89.1902 29.3636 89.1902 29.5665V33.7215C89.1902 33.9244 89.0225 34.09 88.8174 34.09H88.434C86.9236 34.09 85.6996 35.314 85.6996 36.8243C85.6996 38.3347 86.9236 39.5587 88.434 39.5587H88.8174C91.8156 39.5587 94.2904 37.289 94.6194 34.3784H95.6897C97.1989 34.3784 98.424 33.1543 98.424 31.644C98.424 30.1337 97.1989 28.9096 95.6897 28.9096H94.6194C94.2915 26.0001 91.8156 23.7292 88.8174 23.7292H84.624C81.4036 23.7292 78.7825 26.3472 78.7825 29.5665V33.7215C78.7825 33.9244 78.6158 34.09 78.4108 34.09H74.4513C74.2462 34.09 74.0796 33.9244 74.0796 33.7215V29.5665C74.0796 29.3636 74.2462 29.198 74.4513 29.198C75.9616 29.198 77.1856 27.9739 77.1856 26.4636C77.1856 24.9533 75.9616 23.7292 74.4513 23.7292C71.4531 23.7292 68.9782 25.999 68.6503 28.9096H67.5801C66.0698 28.9096 64.8457 30.1337 64.8457 31.644C64.8457 33.1532 66.0698 34.3784 67.579 34.3784Z" fill="#FB525E"/>
<path d="M124.92 88.7102L109.281 67.7644V41.4354C109.281 41.4236 109.282 41.413 109.282 41.4012V26.5266H119.238C123.036 26.5266 126.126 23.4377 126.126 19.6405V6.88507C126.126 3.08899 123.036 0 119.238 0H44.8608C41.0636 0 37.9746 3.08899 37.9746 6.88507V19.6405C37.9746 23.4377 41.0636 26.5266 44.8608 26.5266H53.9867V55.385L40.442 40.9174C39.9239 40.3651 39.2019 40.0511 38.4457 40.0511C37.6884 40.0511 36.9663 40.3651 36.4494 40.9174L13.5895 65.3323C12.8451 66.1281 12.6443 67.2891 13.0769 68.2889C13.5105 69.2886 14.4964 69.9348 15.5859 69.9348H25.9327V78.9604C25.9327 80.4697 27.1567 81.6948 28.6671 81.6948C30.1774 81.6948 31.4014 80.4697 31.4014 78.9604V67.2005C31.4014 66.4752 31.113 65.7799 30.6004 65.2672C30.0877 64.7545 29.3923 64.4661 28.6671 64.4661H21.892L38.4457 46.7867L54.9982 64.4661H47.3933C45.8829 64.4661 44.6589 65.6912 44.6589 67.2005V103.421H31.4014V100.289C31.4014 98.7782 30.1763 97.5542 28.6671 97.5542C27.1567 97.5542 25.9327 98.7782 25.9327 100.289V106.156C25.9327 107.666 27.1567 108.89 28.6671 108.89H47.3933C48.9025 108.89 50.1276 107.666 50.1276 106.156V69.9359H53.9867V85.4257C53.9867 86.936 55.2108 88.1601 56.7211 88.1601H66.6065C66.6129 88.1601 66.6204 88.159 66.6268 88.159H81.4373V118.379H78.1059C76.5955 118.379 75.3715 119.604 75.3715 121.114V137.266C75.3715 138.776 76.5955 140 78.1059 140H117.973C119.482 140 120.708 138.776 120.708 137.266V121.115C120.708 119.604 119.482 118.38 117.973 118.38H115.033C115.135 118.006 115.271 117.642 115.441 117.294L125.817 101.383C125.87 101.304 125.917 101.222 125.961 101.139C127.999 97.1675 127.591 92.2905 124.92 88.7102ZM115.239 134.531H80.8413V123.849H115.239V134.531ZM59.4566 23.7923V21.3516C60.6496 19.7772 62.1268 18.3427 63.8636 17.0706H99.6284C101.257 18.2637 102.66 19.6031 103.812 21.0654V40.4901C99.1926 46.353 90.8303 49.9622 81.7449 49.9622C72.4758 49.9622 64.027 46.2419 59.4566 40.2028V23.7923ZM103.803 82.6903H99.9296C100.656 80.9428 102.055 79.5436 103.803 78.8173V82.6903ZM99.3528 88.1601H103.803V94.1277C103.803 94.7215 103.571 95.2802 103.151 95.6999C102.731 96.1197 102.174 96.3515 101.58 96.3515C100.351 96.3515 99.3528 95.3539 99.3528 94.1277V88.1601ZM44.8608 21.0579C44.0789 21.0579 43.4434 20.4224 43.4434 19.6405V6.88507C43.4434 6.10428 44.0789 5.46875 44.8608 5.46875H119.238C120.021 5.46875 120.657 6.10428 120.657 6.88507V19.6405C120.657 20.4224 120.021 21.0579 119.238 21.0579H109.282V17.0695H113.987C115.497 17.0695 116.721 15.8455 116.721 14.3352C116.721 12.8249 115.497 11.6008 113.987 11.6008H50.1138C48.6034 11.6008 47.3794 12.8249 47.3794 14.3352C47.3794 15.8455 48.6034 17.0695 50.1138 17.0695H53.9867V21.0579H44.8608ZM59.4555 82.6903V78.8173C61.2029 79.5436 62.6022 80.9428 63.3285 82.6903H59.4555ZM81.4373 82.6903H69.0386C67.9812 77.9233 64.2214 74.1646 59.4555 73.1071V69.9348H61.3044C62.3928 69.9348 63.3787 69.2886 63.8123 68.2889C64.0836 67.664 64.1061 66.9762 63.9042 66.3535C63.7824 65.9796 63.5795 65.6293 63.2996 65.3313L59.4555 61.2244V47.9861C65.2233 52.6816 73.2235 55.4309 81.7449 55.4309C90.1275 55.4309 98.0529 52.7446 103.812 48.1602V68.4309C103.806 68.5068 103.803 68.5826 103.803 68.6595V73.1071C102.164 73.4703 100.646 74.1528 99.3143 75.0853C99.1231 73.0089 98.2227 71.0809 96.7316 69.5888C95.0419 67.8947 92.7924 66.9623 90.3956 66.9623H90.3945C85.4555 66.9623 81.4373 70.9805 81.4373 75.9195V82.6903ZM121.153 98.5251L110.776 114.436C110.725 114.515 110.677 114.596 110.634 114.679C110.04 115.836 109.641 117.092 109.455 118.379H86.906V75.9195C86.906 73.9638 88.4388 72.431 90.3945 72.431C91.327 72.431 92.2018 72.7931 92.8608 73.4543C93.5198 74.1133 93.884 74.9892 93.884 75.9195V85.4247V85.4407V94.1277C93.884 98.3691 97.3362 101.82 101.58 101.82C103.634 101.82 105.566 101.02 107.019 99.5676C108.471 98.1149 109.271 96.1827 109.271 94.1277V85.6201C109.276 85.555 109.281 85.4909 109.281 85.4247V76.9054L120.538 91.9818C121.942 93.8649 122.179 96.4198 121.153 98.5251Z" fill="#FB525E"/>
<path d="M26.1414 90.746C26.574 91.7831 27.6261 92.4678 28.7519 92.4315C29.8435 92.3962 30.8422 91.687 31.2235 90.6616C31.6273 89.5775 31.2993 88.3203 30.4 87.5854C29.4889 86.841 28.1751 86.7683 27.185 87.4017C26.0827 88.1077 25.6479 89.5401 26.1414 90.746Z" fill="#FB525E"/>
</g>
<defs>
<clipPath id="clip0">
<rect width="140" height="140" fill="white"/>
</clipPath>
</defs>
</svg>
