<svg width="140" height="140" viewBox="0 0 140 140" fill="none" xmlns="http://www.w3.org/2000/svg">
<g clip-path="url(#clip0)">
<path d="M138.943 51.1349L105.352 16.9509C104.573 16.1584 103.393 15.9159 102.365 16.3368C101.338 16.7565 100.667 17.7563 100.667 18.8671V33.1607H36.0502C34.5399 33.1607 33.3159 34.3858 33.3159 35.895V52.0588L0.510827 85.4449C-0.534859 86.5088 -0.534859 88.2146 0.510827 89.2784L34.0999 123.462C34.6243 123.995 35.3314 124.279 36.0502 124.279C36.3984 124.279 36.7499 124.213 37.0852 124.077C38.1128 123.656 38.7846 122.656 38.7846 121.545V107.254H41.9644C43.4747 107.254 44.6988 106.03 44.6988 104.519C44.6988 103.01 43.4747 101.785 41.9644 101.785H36.0502C34.5399 101.785 33.3159 103.01 33.3159 104.519V114.861L6.29467 87.3611L33.3159 59.8625V70.2061C33.3159 71.7164 34.5399 72.9405 36.0502 72.9405H44.9925C46.3544 85.2409 56.8101 94.8401 69.4684 94.8401C82.1255 94.8401 92.5813 85.2409 93.9432 72.9405H100.667V101.785H63.4442C61.9339 101.785 60.7098 103.009 60.7098 104.519C60.7098 106.03 61.9339 107.254 63.4442 107.254H103.401C104.912 107.254 106.136 106.03 106.136 104.519V88.3534L138.943 54.9673C139.989 53.9035 139.989 52.1988 138.943 51.1349ZM69.4684 89.3713C58.9036 89.3713 50.3096 80.7762 50.3096 70.2125C50.3096 59.6489 58.9047 51.0548 69.4684 51.0548C71.2682 51.0548 73.0092 51.3101 74.6626 51.7758C79.8943 53.253 84.2233 56.8985 86.6127 61.6772C86.6522 61.7563 86.6949 61.8332 86.7334 61.9133C86.7708 61.9902 86.8039 62.0692 86.8391 62.1472C87.9831 64.6007 88.6261 67.3318 88.6261 70.2136C88.6261 80.7773 80.032 89.3713 69.4684 89.3713ZM106.136 80.5508V70.2061C106.136 68.6958 104.912 67.4718 103.401 67.4718H93.9442C93.94 67.4354 93.9336 67.3991 93.9293 67.3617C93.8908 67.0349 93.8481 66.7091 93.7968 66.3855C93.0972 61.9197 91.1394 57.6985 88.2117 54.257C85.238 50.7643 81.2881 48.126 76.9153 46.7375C72.6215 45.3746 67.9517 45.2133 63.5777 46.2996C59.2497 47.373 55.2688 49.6235 52.1051 52.7659C48.8452 56.0034 46.5167 60.1573 45.4796 64.6348C45.3578 65.1603 45.2531 65.6891 45.1666 66.221C45.157 66.2755 45.1474 66.331 45.1388 66.3855C45.0886 66.7091 45.0448 67.0349 45.0064 67.3628C45.0032 67.3991 44.9957 67.4354 44.9925 67.4718H38.7846V38.6305H103.401C104.912 38.6305 106.136 37.4054 106.136 35.8961V25.5514L133.159 53.0511L106.136 80.5508Z" fill="#FB525E"/>
<path d="M71.2661 63.9598C71.2768 65.4605 72.4966 66.6739 74.0005 66.6739C75.5097 66.6739 76.7348 65.4488 76.7348 63.9395C76.7348 61.2479 74.7716 59.0123 72.2028 58.5744V57.9367C72.2028 56.4264 70.9788 55.2023 69.4684 55.2023C67.9592 55.2023 66.7341 56.4264 66.7341 57.9367V58.5744C64.1663 59.0123 62.2031 61.2479 62.2031 63.9395V67.397C62.2031 70.4016 64.647 72.8455 67.6516 72.8455H71.2661V76.4685H67.6719V76.1534C67.6719 74.6431 66.4478 73.4191 64.9375 73.4191C63.4272 73.4191 62.2031 74.6431 62.2031 76.1534V76.4888C62.2031 79.1794 64.1663 81.416 66.7341 81.854V82.4916C66.7341 84.0009 67.9592 85.226 69.4684 85.226C70.9788 85.226 72.2028 84.0009 72.2028 82.4916V81.854C74.7716 81.416 76.7348 79.1794 76.7348 76.4888V72.8252C76.7348 69.8216 74.291 67.3778 71.2864 67.3778L67.6719 67.3767V63.9598H71.2661Z" fill="#FB525E"/>
<path d="M55.18 103.798C54.7453 102.738 53.6516 102.051 52.5076 102.113C51.3722 102.175 50.3703 102.962 50.0392 104.049C49.7113 105.128 50.099 106.326 50.9919 107.012C51.9095 107.716 53.2104 107.76 54.1739 107.118C55.2441 106.404 55.6746 104.986 55.18 103.798Z" fill="#FB525E"/>
</g>
<defs>
<clipPath id="clip0">
<rect width="140" height="140" fill="white"/>
</clipPath>
</defs>
</svg>
