<svg width="140" height="140" viewBox="0 0 140 140" fill="none" xmlns="http://www.w3.org/2000/svg">
<path d="M137.265 68.0678H121.07C119.56 68.0678 118.336 69.2918 118.336 70.8022V73.1125H101.307C100.948 73.1125 100.592 73.183 100.261 73.3208L78.4483 82.3485C75.9244 83.3942 73.9633 85.3616 72.9283 87.8899C71.8922 90.417 71.9082 93.1941 72.9731 95.7106L73.0468 95.8847C73.6792 97.3779 74.6106 98.6479 75.7417 99.652C72.422 100.552 68.941 100.625 65.5572 99.8506L44.1426 94.9469C41.5225 94.3477 38.833 94.8166 36.5707 96.2682C34.3095 97.7187 32.7618 99.9681 32.2149 102.599C31.1308 107.811 34.3245 112.922 39.4845 114.234L65.036 120.728C67.2 121.277 69.3939 121.55 71.5803 121.55C74.8584 121.55 78.1204 120.936 81.234 119.714L113.73 106.97H118.336V108.408C118.336 109.919 119.561 111.143 121.07 111.143H137.265C138.775 111.143 140 109.919 140 108.408V70.8022C140 69.2918 138.775 68.0678 137.265 68.0678ZM113.212 101.501C112.87 101.501 112.532 101.565 112.215 101.689L79.2366 114.624C75.1169 116.239 70.6724 116.516 66.3829 115.427L40.8314 108.933C38.5157 108.344 37.0823 106.051 37.5683 103.712C37.814 102.531 38.5083 101.521 39.524 100.871C40.2504 100.404 41.076 100.164 41.9177 100.164C42.2509 100.164 42.5874 100.201 42.9217 100.278L64.3364 105.181C69.489 106.36 74.8199 105.982 79.7546 104.085L85.9689 101.695C86.0971 101.651 86.2242 101.604 86.3513 101.555C91.8446 99.4373 98.8557 96.7413 100.363 96.1614L100.657 96.0481C102.065 95.5066 102.769 93.9236 102.228 92.5148C101.686 91.1049 100.104 90.4021 98.6934 90.9436C98.6934 90.9436 98.5812 90.9874 98.374 91.0664L84.1221 96.5469C81.7061 97.3299 79.0934 96.14 78.083 93.7527L78.0082 93.5776C77.5158 92.4155 77.5094 91.1316 77.9879 89.9631C78.4665 88.7946 79.3722 87.8845 80.5397 87.4017L101.851 78.5812H118.336V101.501H113.212ZM134.531 105.674H123.805V73.5365H134.531V105.674Z" fill="#FB525E"/>
<path d="M26.6281 66.9249H21.6646V41.3756H22.4219C24.4438 41.3756 26.4626 40.8885 28.2602 39.9667C28.3446 39.9229 28.4279 39.8759 28.5069 39.8236L46.2152 28.2698C48.6623 27.0692 51.6359 27.3427 53.8255 28.979L55.1041 29.9318C55.0261 30.0418 54.9513 30.154 54.8755 30.264C54.538 30.7553 54.2133 31.2563 53.9078 31.7679C52.0172 34.9263 50.8028 38.4799 50.3563 42.104C48.4924 42.3048 46.7664 43.1273 45.4227 44.4699C43.8664 46.0262 43.0087 48.0983 43.0087 50.3029C43.0087 54.8499 46.7087 58.5498 51.2556 58.5498H71.4986C72.6158 58.5498 73.6679 58.9856 74.4572 59.7728C75.2498 60.5675 75.6866 61.6206 75.6877 62.7379C75.6866 64.4063 74.7093 65.9102 73.1873 66.5735C73.011 66.6515 72.8519 66.7091 72.7023 66.7508C72.6884 66.7551 72.6756 66.7593 72.6617 66.7636C72.2932 66.8704 71.9023 66.9249 71.4986 66.9249H48.4978C46.9885 66.9249 45.7634 68.149 45.7634 69.6593C45.7634 71.1696 46.9885 72.3936 48.4978 72.3936H71.4986C72.2046 72.3936 72.901 72.3167 73.5782 72.1683C74.7264 72.3157 75.8896 72.3958 77.0464 72.3958C91.8793 72.3958 103.948 60.3282 103.948 45.4942C103.948 30.6613 91.8793 18.5938 77.0464 18.5938C70.2115 18.5938 63.6693 21.1967 58.7186 25.8067L57.0972 24.5966C53.2124 21.6945 47.9135 21.2491 43.6005 23.4633C43.5161 23.506 43.4349 23.5541 43.3548 23.6053L25.6487 35.1581C24.6489 35.6483 23.5359 35.9058 22.4219 35.9058H21.6635V34.9167C21.6635 33.4064 20.4395 32.1823 18.9291 32.1823H2.73438C1.22406 32.1823 0 33.4064 0 34.9167V72.5229C0 74.0332 1.22406 75.2573 2.73438 75.2573H18.9291C20.4395 75.2573 21.6635 74.0332 21.6635 72.5229V72.3936H26.6281C28.1374 72.3936 29.3625 71.1696 29.3625 69.6593C29.3625 68.149 28.1374 66.9249 26.6281 66.9249ZM48.4775 50.3029C48.4775 49.5595 48.7659 48.8609 49.2903 48.3376C49.5638 48.0641 49.8853 47.8558 50.2356 47.718C50.3841 49.5467 50.7173 51.3368 51.23 53.08C49.7101 53.0661 48.4775 51.826 48.4775 50.3029ZM98.4781 45.4953C98.4781 56.1989 90.5901 65.0963 80.3201 66.6771C80.8691 65.4445 81.1565 64.088 81.1565 62.7379C81.1565 61.0812 80.7388 59.4887 79.957 58.0745C81.1436 57.8876 82.2395 57.3396 83.1058 56.4734C84.1888 55.3914 84.7849 53.9526 84.7849 52.422V48.3781C84.7849 45.2187 82.2139 42.6477 79.0544 42.6477H75.0426C74.8984 42.6477 74.7809 42.5302 74.7809 42.386V38.5686C74.7809 38.4244 74.8984 38.308 75.0426 38.308H77.0474H77.0485H77.0496H79.0544C79.1986 38.308 79.3161 38.4244 79.3161 38.5686C79.3161 40.0789 80.5402 41.3029 82.0505 41.3029C83.5597 41.3029 84.7849 40.0789 84.7849 38.5686C84.7849 35.6569 82.5984 33.2504 79.7829 32.8905V31.9431C79.7829 30.4327 78.5588 29.2087 77.0485 29.2087C75.5382 29.2087 74.3141 30.4327 74.3141 31.9431V32.8905C71.4975 33.2504 69.3121 35.6569 69.3121 38.5686V42.386C69.3121 45.5455 71.8831 48.1165 75.0426 48.1165H79.0544C79.1986 48.1165 79.3161 48.2339 79.3161 48.3781V52.422C79.3161 52.4936 79.2905 52.5555 79.2392 52.6068C79.1879 52.657 79.127 52.6826 79.0544 52.6826H75.0426C74.8984 52.6826 74.7809 52.5652 74.7809 52.422V52.0514C74.7809 50.5411 73.5568 49.317 72.0465 49.317C70.5362 49.317 69.3121 50.5411 69.3121 52.0514V52.422C69.3121 52.6442 69.3282 52.8632 69.3527 53.08H56.9946C56.0782 50.6682 55.6146 48.1229 55.6146 45.4953C55.6146 41.4888 56.7543 37.478 58.9012 34.091C59.5186 33.118 60.2065 32.1898 60.9702 31.3257C65.0386 26.7093 70.894 24.0625 77.0464 24.0625C88.864 24.0625 98.4781 33.6766 98.4781 45.4953ZM16.1948 69.7896H5.46875V37.6511H16.1948V69.7896Z" fill="#FB525E"/>
<path d="M39.7544 68.1436C39.1124 67.162 37.8542 66.7102 36.7316 67.0317C35.6464 67.3436 34.8549 68.3145 34.7577 69.4382C34.6594 70.5736 35.3185 71.6823 36.3545 72.149C37.381 72.6126 38.6168 72.3904 39.4158 71.5947C40.3269 70.6846 40.4679 69.2128 39.7544 68.1436Z" fill="#FB525E"/>
</svg>
