<svg width="48" height="48" viewBox="0 0 48 48" fill="none" xmlns="http://www.w3.org/2000/svg">
<g clip-path="url(#clip0)">
<path d="M43.7137 42.8574C44.7927 42.8574 45.7276 42.5011 46.5224 41.7977L32.9232 28.198C32.5969 28.4316 32.2807 28.6588 31.9819 28.8749C30.9642 29.6247 30.1383 30.2098 29.504 30.629C28.8698 31.0493 28.0261 31.4776 26.9728 31.9149C25.9189 32.3527 24.937 32.5709 24.0261 32.5709H23.9995H23.9728C23.0619 32.5709 22.08 32.3528 21.0261 31.9149C19.9722 31.4776 19.1285 31.0493 18.4949 30.629C17.8608 30.2098 17.0352 29.6248 16.017 28.8749C15.7333 28.6668 15.4186 28.4386 15.0783 28.1943L1.47656 41.7977C2.27125 42.5011 3.20677 42.8574 4.28565 42.8574H43.7137Z" fill="#FB525E"/>
<path d="M2.70565 19.6341C1.68803 18.9557 0.785628 18.1787 0 17.3035V37.9943L11.9863 26.008C9.58832 24.3339 6.49871 22.2117 2.70565 19.6341Z" fill="#FB525E"/>
<path d="M45.3225 19.6341C41.6741 22.1035 38.5732 24.2294 36.0195 26.0128L48.001 37.9948V17.3035C47.2328 18.1611 46.3401 18.9376 45.3225 19.6341Z" fill="#FB525E"/>
<path d="M43.7134 5.14282H4.28544C2.90992 5.14282 1.85239 5.60731 1.11156 6.53534C0.370112 7.4638 0 8.62495 0 10.0175C0 11.1423 0.491159 12.361 1.47304 13.6741C2.45492 14.9866 3.49973 16.0175 4.60693 16.7674C5.2139 17.1963 7.04434 18.4688 10.0982 20.5845C11.7468 21.7269 13.1804 22.7227 14.4124 23.5819C15.4625 24.3136 16.3682 24.9473 17.1159 25.4731C17.2017 25.5333 17.3367 25.6299 17.5159 25.758C17.7089 25.8966 17.9532 26.0726 18.2545 26.2902C18.8349 26.7099 19.317 27.0492 19.7009 27.3083C20.0844 27.5676 20.5489 27.8572 21.094 28.1788C21.6385 28.4999 22.1522 28.7414 22.6343 28.902C23.1165 29.0625 23.5628 29.143 23.9735 29.143H24.0001H24.0268C24.4373 29.143 24.8838 29.0625 25.3661 28.902C25.8481 28.7414 26.3613 28.5004 26.9063 28.1788C27.4508 27.8572 27.9148 27.567 28.2994 27.3083C28.6834 27.0492 29.1655 26.71 29.7459 26.2902C30.0466 26.0726 30.2909 25.8966 30.4839 25.7584C30.6632 25.6298 30.7981 25.5339 30.8845 25.4731C31.467 25.0678 32.3747 24.4368 33.5951 23.5894C35.8158 22.0464 39.0862 19.7755 43.4202 16.7674C44.7236 15.857 45.8126 14.7583 46.6878 13.473C47.5615 12.1877 47.9995 10.8394 47.9995 9.4287C47.9995 8.25004 47.5748 7.24149 46.7273 6.40148C45.8789 5.56252 44.8741 5.14282 43.7134 5.14282Z" fill="#FB525E"/>
</g>
<defs>
<clipPath id="clip0">
<rect width="48" height="48" fill="white"/>
</clipPath>
</defs>
</svg>
