<svg width="48" height="48" viewBox="0 0 48 48" fill="none" xmlns="http://www.w3.org/2000/svg">
<g clip-path="url(#clip0)">
<path d="M39.83 26.056C39.054 25.076 39.276 24.64 39.83 23.764C39.84 23.754 46.246 14.902 46.906 11.9L46.91 11.898C47.238 10.804 46.91 10 45.324 10H40.076C38.74 10 38.124 10.69 37.794 11.462C37.794 11.462 35.122 17.858 31.342 22.004C30.122 23.202 29.558 23.586 28.892 23.586C28.564 23.586 28.054 23.202 28.054 22.108V11.898C28.054 10.586 27.68 10 26.574 10H18.322C17.484 10 16.986 10.612 16.986 11.182C16.986 12.426 18.876 12.712 19.072 16.212V23.806C19.072 25.47 18.77 25.776 18.1 25.776C16.316 25.776 11.986 19.354 9.42 12.004C8.902 10.578 8.396 10.002 7.05 10.002H1.8C0.302 10.002 0 10.692 0 11.464C0 12.828 1.784 19.61 8.296 28.57C12.636 34.686 18.748 38 24.308 38C27.65 38 28.058 37.264 28.058 35.998C28.058 30.154 27.756 29.602 29.43 29.602C30.206 29.602 31.542 29.986 34.662 32.936C38.228 36.434 38.814 38 40.81 38H46.058C47.554 38 48.312 37.264 47.876 35.812C46.878 32.758 40.134 26.476 39.83 26.056Z" fill="#FB525E"/>
</g>
<defs>
<clipPath id="clip0">
<rect width="48" height="48" fill="white"/>
</clipPath>
</defs>
</svg>
