<svg width="48" height="48" viewBox="0 0 48 48" fill="none" xmlns="http://www.w3.org/2000/svg">
<g clip-path="url(#clip0)">
<path d="M46.618 29.094C50.094 13.474 36.41 -0.715985 20.34 2.00802C11.616 -3.40599 0 2.71202 0 13.092C0 15.506 0.666 17.766 1.824 19.714C-1.406 35.37 12.39 49.356 28.446 46.446C30.318 47.436 32.454 48 34.724 48C44.622 48 50.96 37.734 46.618 29.094ZM24.192 39.758C19.508 39.758 14.932 38.628 12.224 34.76C8.188 29.052 13.51 26.196 16.122 28.372C18.302 30.21 17.618 34.656 24.02 34.656C26.842 34.656 30.326 33.452 30.326 30.654C30.326 25.024 17.836 27.688 12.87 21.55C11.046 19.302 10.702 15.336 12.942 12.46C16.846 7.43602 28.302 7.13002 33.228 10.924C37.776 14.444 36.548 19.116 32.878 19.116C28.464 19.116 30.784 13.34 23.658 13.34C18.492 13.34 16.46 17.014 20.098 18.802C24.94 21.206 37.598 20.456 37.598 30.008C37.582 36.722 31.104 39.758 24.192 39.758Z" fill="#FB525E"/>
</g>
<defs>
<clipPath id="clip0">
<rect width="48" height="48" fill="white"/>
</clipPath>
</defs>
</svg>
