<svg width="143" height="66" viewBox="0 0 143 66" fill="none" xmlns="http://www.w3.org/2000/svg">
<path d="M57.7246 48.464L28.8623 64.5835V32.318L57.7246 16.1985V48.464Z" fill="#0E0E0E"/>
<path d="M0 48.464L28.8625 64.5835V32.318L0 16.1985V48.464Z" fill="#FB525E"/>
<path d="M0 16.1196L28.8625 32.2391L57.7248 16.1196L28.8625 0L0 16.1196Z" fill="#FEFEFE"/>
<path d="M75.8732 16.5476V25.1871L68.832 16.5476H66.1206V30.7773H69.358V22.1379L76.4196 30.7773H79.1106V16.5476H75.8732Z" fill="#FEFEFE"/>
<path d="M85.7195 28.1347V24.8415H92.2954V22.2801H85.7195V19.1904H93.1655V16.5476H82.4619V30.7773H93.4285V28.1347H85.7195Z" fill="#FEFEFE"/>
<path d="M114.11 16.5476L110.812 26.6304L107.574 16.5476H104.539L101.201 26.5492L98.0038 16.5476H94.6045L99.2582 30.7773H102.759L105.976 21.1417L109.092 30.7773H112.613L117.246 16.5476H114.11Z" fill="#FEFEFE"/>
<path d="M123.73 31.0214C127.776 31.0214 129.739 28.9886 129.739 26.6101C129.739 21.3858 121.504 23.1949 121.504 20.5726C121.504 19.6783 122.253 18.9464 124.195 18.9464C125.45 18.9464 126.805 19.3122 128.12 20.0644L129.132 17.5641C127.817 16.7306 125.996 16.3037 124.215 16.3037C120.189 16.3037 118.246 18.3162 118.246 20.7352C118.246 26.0207 126.481 24.1911 126.481 26.8542C126.481 27.7282 125.692 28.3788 123.75 28.3788C122.05 28.3788 120.27 27.7689 119.076 26.8947L117.963 29.3748C119.218 30.3505 121.484 31.0214 123.73 31.0214Z" fill="#FEFEFE"/>
<path d="M72.2513 33.9114H66.1206V48.1412H69.3985V44.2177H72.2513C76.0352 44.2177 78.4024 42.2459 78.4024 39.0747C78.4024 35.8831 76.0352 33.9114 72.2513 33.9114ZM72.0694 41.5344H69.3985V36.5946H72.0694C74.0725 36.5946 75.0841 37.5093 75.0841 39.0747C75.0841 40.6196 74.0725 41.5344 72.0694 41.5344Z" fill="#FEFEFE"/>
<path d="M93.2875 48.1412L90.1109 43.5672C91.9522 42.7744 93.0245 41.2091 93.0245 39.0747C93.0245 35.8831 90.6573 33.9114 86.8736 33.9114H80.7427V48.1412H84.0206V44.177H86.8736H87.0354L89.7669 48.1412H93.2875ZM89.7063 39.0747C89.7063 40.6196 88.6946 41.5547 86.6915 41.5547H84.0206V36.5946H86.6915C88.6946 36.5946 89.7063 37.5093 89.7063 39.0747Z" fill="#FEFEFE"/>
<path d="M102.481 48.3849C106.932 48.3849 110.23 45.2747 110.23 41.026C110.23 36.7775 106.932 33.6672 102.481 33.6672C98.0094 33.6672 94.7314 36.7977 94.7314 41.026C94.7314 45.2544 98.0094 48.3849 102.481 48.3849ZM102.481 45.5797C99.9517 45.5797 98.0498 43.7298 98.0498 41.026C98.0498 38.3225 99.9517 36.4726 102.481 36.4726C105.01 36.4726 106.912 38.3225 106.912 41.026C106.912 43.7298 105.01 45.5797 102.481 45.5797Z" fill="#FEFEFE"/>
<path d="M123.397 36.554V33.9114H112.694V48.1412H115.972V42.9573H122.527V40.3147H115.972V36.554H123.397Z" fill="#FEFEFE"/>
<path d="M125.617 48.1412H128.895V33.9114H125.617V48.1412Z" fill="#FEFEFE"/>
<path d="M135.19 48.1412H138.467V36.5946H143V33.9114H130.657V36.5946H135.19V48.1412Z" fill="#FEFEFE"/>
</svg>
